<svg version="1.1" viewBox="0.0 0.0 960.0 540.0" fill="none" stroke="none" stroke-linecap="square" stroke-miterlimit="10" xmlns:xlink="http://www.w3.org/1999/xlink" xmlns="http://www.w3.org/2000/svg"><clipPath id="ge065cb58f1_0_170.0"><path d="m0 0l960.0 0l0 540.0l-960.0 0l0 -540.0z" clip-rule="nonzero"/></clipPath><g clip-path="url(#ge065cb58f1_0_170.0)"><path fill="#ffffff" d="m0 0l960.0 0l0 540.0l-960.0 0z" fill-rule="evenodd"/><path fill="#000000" fill-opacity="0.0" d="m184.15749 169.81102l591.68506 0l0 290.86615l-591.68506 0z" fill-rule="evenodd"/><path fill="#666666" d="m216.93694 214.65102l0 -30.234375l2.859375 0l8.59375 20.078125l0 -20.078125l3.5 0l0 30.234375l-2.6875 0l-8.6875 -20.640625l0 20.640625l-3.578125 0zm25.30307 0.296875q-2.390625 0 -3.78125 -0.96875q-1.375 -0.96875 -1.953125 -2.75q-0.578125 -1.796875 -0.578125 -4.234375l0 -6.265625q0 -2.421875 0.578125 -4.21875q0.578125 -1.796875 1.953125 -2.765625q1.390625 -0.96875 3.78125 -0.96875q2.390625 0 3.75 0.96875q1.359375 0.96875 1.9375 2.765625q0.578125 1.796875 0.578125 4.21875l0 6.265625q0 2.4375 -0.578125 4.234375q-0.578125 1.78125 -1.9375 2.75q-1.359375 0.96875 -3.75 0.96875zm0 -2.953125q1.15625 0 1.625 -0.671875q0.46875 -0.671875 0.5625 -1.765625q0.09375 -1.109375 0.09375 -2.296875l0 -6.75q0 -1.234375 -0.09375 -2.3125q-0.09375 -1.09375 -0.5625 -1.78125q-0.46875 -0.6875 -1.625 -0.6875q-1.15625 0 -1.640625 0.6875q-0.484375 0.6875 -0.578125 1.78125q-0.09375 1.078125 -0.09375 2.3125l0 6.75q0 1.1875 0.09375 2.296875q0.09375 1.09375 0.578125 1.765625q0.484375 0.671875 1.640625 0.671875zm12.128342 2.65625l-3.46875 -21.578125l3.28125 0l2.234375 15.90625l2.875 -15.90625l3.0625 0l2.875 15.828125l2.25 -15.828125l3.28125 0l-3.59375 21.578125l-3.359375 0l-2.9375 -15.234375l-2.921875 15.234375l-3.578125 0zm27.669037 5.40625l0 -3.046875q1.453125 0 2.3125 -0.140625q0.859375 -0.125 1.21875 -0.484375q0.375 -0.359375 0.375 -0.984375q0 -0.34375 -0.265625 -1.5q-0.25 -1.15625 -0.546875 -2.453125l-4.328125 -18.375l4.03125 0l2.90625 16.125l2.796875 -16.125l4.03125 0l-5.140625 22.765625q-0.34375 1.578125 -1.25 2.484375q-0.890625 0.921875 -2.296875 1.328125q-1.390625 0.40625 -3.359375 0.40625l-0.484375 0zm20.898315 -5.109375q-2.390625 0 -3.78125 -0.96875q-1.375 -0.96875 -1.953125 -2.75q-0.578125 -1.796875 -0.578125 -4.234375l0 -6.265625q0 -2.421875 0.578125 -4.21875q0.578125 -1.796875 1.953125 -2.765625q1.390625 -0.96875 3.78125 -0.96875q2.390625 0 3.75 0.96875q1.359375 0.96875 1.9375 2.765625q0.578125 1.796875 0.578125 4.21875l0 6.265625q0 2.4375 -0.578125 4.234375q-0.578125 1.78125 -1.9375 2.75q-1.359375 0.96875 -3.75 0.96875zm0 -2.953125q1.15625 0 1.625 -0.671875q0.46875 -0.671875 0.5625 -1.765625q0.09375 -1.109375 0.09375 -2.296875l0 -6.75q0 -1.234375 -0.09375 -2.3125q-0.09375 -1.09375 -0.5625 -1.78125q-0.46875 -0.6875 -1.625 -0.6875q-1.15625 0 -1.640625 0.6875q-0.484375 0.6875 -0.578125 1.78125q-0.09375 1.078125 -0.09375 2.3125l0 6.75q0 1.1875 0.09375 2.296875q0.09375 1.09375 0.578125 1.765625q0.484375 0.671875 1.640625 0.671875zm13.020752 2.953125q-1.265625 0 -1.984375 -0.671875q-0.703125 -0.671875 -0.984375 -1.671875q-0.28125 -1.015625 -0.28125 -2.0625l0 -17.46875l4.0 0l0 16.28125q0 1.15625 0.328125 1.8125q0.34375 0.640625 1.390625 0.640625q0.671875 0 1.390625 -0.390625q0.734375 -0.390625 1.40625 -0.953125l0 -17.390625l4.0 0l0 21.578125l-4.0 0l0 -2.125q-1.046875 1.0 -2.375 1.71875q-1.3125 0.703125 -2.890625 0.703125zm25.753845 0q-1.265625 0 -2.234375 -0.71875q-0.96875 -0.734375 -1.53125 -1.875q-0.5625 -1.140625 -0.5625 -2.40625q0 -2.015625 0.671875 -3.390625q0.671875 -1.390625 1.84375 -2.34375q1.1875 -0.953125 2.734375 -1.65625q1.546875 -0.703125 3.265625 -1.375l0 -1.53125q0 -1.3125 -0.15625 -2.171875q-0.140625 -0.859375 -0.609375 -1.28125q-0.46875 -0.4375 -1.40625 -0.4375q-0.8125 0 -1.328125 0.375q-0.5 0.375 -0.71875 1.0625q-0.21875 0.6875 -0.21875 1.625l0 1.078125l-3.953125 -0.140625q0.0625 -3.59375 1.625 -5.28125q1.578125 -1.703125 4.859375 -1.703125q3.21875 0 4.5625 1.765625q1.34375 1.75 1.34375 5.0625l0 9.859375q0 1.0 0.046875 1.9375q0.0625 0.9375 0.15625 1.75q0.09375 0.796875 0.171875 1.5l-3.671875 0q-0.109375 -0.59375 -0.28125 -1.5q-0.15625 -0.921875 -0.234375 -1.671875q-0.375 1.265625 -1.4375 2.375q-1.0625 1.09375 -2.9375 1.09375zm1.578125 -3.4375q0.59375 0 1.109375 -0.328125q0.53125 -0.34375 0.9375 -0.765625q0.40625 -0.4375 0.5625 -0.6875l0 -6.125q-0.9375 0.515625 -1.765625 1.046875q-0.8125 0.515625 -1.4375 1.09375q-0.609375 0.578125 -0.96875 1.3125q-0.34375 0.71875 -0.34375 1.65625q0 1.3125 0.484375 2.0625q0.484375 0.734375 1.421875 0.734375zm10.558075 3.140625l0 -21.578125l4.0 0l0 3.0625q1.1875 -1.984375 2.375 -2.65625q1.203125 -0.671875 2.40625 -0.671875q0.140625 0 0.265625 0q0.140625 0 0.359375 0.046875l0 4.40625q-0.4375 -0.1875 -1.03125 -0.3125q-0.578125 -0.140625 -1.171875 -0.140625q-0.921875 0 -1.6875 0.4375q-0.765625 0.421875 -1.515625 1.65625l0 15.75l-4.0 0zm17.841736 0.296875q-2.53125 0 -3.921875 -0.984375q-1.375 -1.0 -1.921875 -2.921875q-0.53125 -1.921875 -0.53125 -4.71875l0 -4.921875q0 -2.875 0.546875 -4.78125q0.5625 -1.90625 1.96875 -2.875q1.40625 -0.96875 3.859375 -0.96875q2.734375 0 4.015625 1.125q1.28125 1.109375 1.6875 3.21875q0.421875 2.109375 0.421875 5.0625l0 1.75l-8.515625 0l0 4.328125q0 1.3125 0.234375 2.140625q0.25 0.8125 0.796875 1.203125q0.546875 0.390625 1.40625 0.390625q0.890625 0 1.359375 -0.421875q0.46875 -0.4375 0.625 -1.234375q0.171875 -0.796875 0.171875 -1.890625l0 -1.296875l3.890625 0l0 0.8125q0 3.25 -1.390625 5.125q-1.375 1.859375 -4.703125 1.859375zm-2.390625 -13.171875l4.59375 0l0 -1.9375q0 -1.34375 -0.15625 -2.265625q-0.140625 -0.921875 -0.609375 -1.375q-0.46875 -0.46875 -1.46875 -0.46875q-0.96875 0 -1.484375 0.453125q-0.5 0.4375 -0.6875 1.5q-0.1875 1.0625 -0.1875 2.9375l0 1.15625zm20.794617 12.875l0 -21.578125l4.0 0l0 3.0625q1.1875 -1.984375 2.375 -2.65625q1.203125 -0.671875 2.40625 -0.671875q0.140625 0 0.265625 0q0.140625 0 0.359375 0.046875l0 4.40625q-0.4375 -0.1875 -1.03125 -0.3125q-0.578125 -0.140625 -1.171875 -0.140625q-0.921875 0 -1.6875 0.4375q-0.765625 0.421875 -1.515625 1.65625l0 15.75l-4.0 0zm17.841736 0.296875q-2.53125 0 -3.921875 -0.984375q-1.375 -1.0 -1.921875 -2.921875q-0.53125 -1.921875 -0.53125 -4.71875l0 -4.921875q0 -2.875 0.546875 -4.78125q0.5625 -1.90625 1.96875 -2.875q1.40625 -0.96875 3.859375 -0.96875q2.734375 0 4.015625 1.125q1.28125 1.109375 1.6875 3.21875q0.421875 2.109375 0.421875 5.0625l0 1.75l-8.515625 0l0 4.328125q0 1.3125 0.234375 2.140625q0.25 0.8125 0.796875 1.203125q0.546875 0.390625 1.40625 0.390625q0.890625 0 1.359375 -0.421875q0.46875 -0.4375 0.625 -1.234375q0.171875 -0.796875 0.171875 -1.890625l0 -1.296875l3.890625 0l0 0.8125q0 3.25 -1.390625 5.125q-1.375 1.859375 -4.703125 1.859375zm-2.390625 -13.171875l4.59375 0l0 -1.9375q0 -1.34375 -0.15625 -2.265625q-0.140625 -0.921875 -0.609375 -1.375q-0.46875 -0.46875 -1.46875 -0.46875q-0.96875 0 -1.484375 0.453125q-0.5 0.4375 -0.6875 1.5q-0.1875 1.0625 -0.1875 2.9375l0 1.15625zm16.012054 13.171875q-1.265625 0 -2.234375 -0.71875q-0.96875 -0.734375 -1.53125 -1.875q-0.5625 -1.140625 -0.5625 -2.40625q0 -2.015625 0.671875 -3.390625q0.671875 -1.390625 1.84375 -2.34375q1.1875 -0.953125 2.734375 -1.65625q1.546875 -0.703125 3.265625 -1.375l0 -1.53125q0 -1.3125 -0.15625 -2.171875q-0.140625 -0.859375 -0.609375 -1.28125q-0.46875 -0.4375 -1.40625 -0.4375q-0.8125 0 -1.328125 0.375q-0.5 0.375 -0.71875 1.0625q-0.21875 0.6875 -0.21875 1.625l0 1.078125l-3.953125 -0.140625q0.0625 -3.59375 1.625 -5.28125q1.578125 -1.703125 4.859375 -1.703125q3.21875 0 4.5625 1.765625q1.34375 1.75 1.34375 5.0625l0 9.859375q0 1.0 0.046875 1.9375q0.0625 0.9375 0.15625 1.75q0.09375 0.796875 0.171875 1.5l-3.671875 0q-0.109375 -0.59375 -0.28125 -1.5q-0.15625 -0.921875 -0.234375 -1.671875q-0.375 1.265625 -1.4375 2.375q-1.0625 1.09375 -2.9375 1.09375zm1.578125 -3.4375q0.59375 0 1.109375 -0.328125q0.53125 -0.34375 0.9375 -0.765625q0.40625 -0.4375 0.5625 -0.6875l0 -6.125q-0.9375 0.515625 -1.765625 1.046875q-0.8125 0.515625 -1.4375 1.09375q-0.609375 0.578125 -0.96875 1.3125q-0.34375 0.71875 -0.34375 1.65625q0 1.3125 0.484375 2.0625q0.484375 0.734375 1.421875 0.734375zm15.4487 3.4375q-2.71875 0 -4.0625 -2.0q-1.34375 -2.0 -1.34375 -6.765625l0 -4.1875q0 -2.46875 0.40625 -4.578125q0.40625 -2.109375 1.546875 -3.375q1.140625 -1.265625 3.34375 -1.265625q1.078125 0 1.96875 0.484375q0.90625 0.484375 1.609375 1.203125l0 -10.046875l4.0 0l0 30.234375l-4.0 0l0 -1.375q-0.703125 0.734375 -1.546875 1.203125q-0.84375 0.46875 -1.921875 0.46875zm1.015625 -3.140625q0.546875 0 1.1875 -0.203125q0.640625 -0.203125 1.265625 -0.609375l0 -14.15625q-0.515625 -0.359375 -1.15625 -0.640625q-0.625 -0.28125 -1.375 -0.28125q-1.390625 0 -1.875 1.328125q-0.484375 1.3125 -0.484375 3.1875l0 6.078125q0 1.5 0.171875 2.71875q0.171875 1.203125 0.6875 1.890625q0.53125 0.6875 1.578125 0.6875zm10.155334 8.25l0 -3.046875q1.453125 0 2.3125 -0.140625q0.859375 -0.125 1.21875 -0.484375q0.375 -0.359375 0.375 -0.984375q0 -0.34375 -0.265625 -1.5q-0.25 -1.15625 -0.546875 -2.453125l-4.328125 -18.375l4.03125 0l2.90625 16.125l2.796875 -16.125l4.03125 0l-5.140625 22.765625q-0.34375 1.578125 -1.25 2.484375q-0.890625 0.921875 -2.296875 1.328125q-1.390625 0.40625 -3.359375 0.40625l-0.484375 0zm29.258972 -5.109375q-1.6875 0 -2.71875 -0.625q-1.015625 -0.640625 -1.484375 -1.796875q-0.46875 -1.15625 -0.46875 -2.734375l0 -14.0625l-2.265625 0l0 -2.65625l2.265625 0l0 -6.3125l4.0 0l0 6.3125l3.46875 0l0 2.65625l-3.46875 0l0 13.8125q0 1.265625 0.40625 1.8125q0.40625 0.53125 1.578125 0.53125q0.296875 0 0.6875 -0.03125q0.390625 -0.046875 0.765625 -0.078125l0 2.953125q-0.75 0.109375 -1.390625 0.15625q-0.625 0.0625 -1.375 0.0625zm11.684601 0q-2.390625 0 -3.78125 -0.96875q-1.375 -0.96875 -1.953125 -2.75q-0.578125 -1.796875 -0.578125 -4.234375l0 -6.265625q0 -2.421875 0.578125 -4.21875q0.578125 -1.796875 1.953125 -2.765625q1.390625 -0.96875 3.78125 -0.96875q2.390625 0 3.75 0.96875q1.359375 0.96875 1.9375 2.765625q0.578125 1.796875 0.578125 4.21875l0 6.265625q0 2.4375 -0.578125 4.234375q-0.578125 1.78125 -1.9375 2.75q-1.359375 0.96875 -3.75 0.96875zm0 -2.953125q1.15625 0 1.625 -0.671875q0.46875 -0.671875 0.5625 -1.765625q0.09375 -1.109375 0.09375 -2.296875l0 -6.75q0 -1.234375 -0.09375 -2.3125q-0.09375 -1.09375 -0.5625 -1.78125q-0.46875 -0.6875 -1.625 -0.6875q-1.15625 0 -1.640625 0.6875q-0.484375 0.6875 -0.578125 1.78125q-0.09375 1.078125 -0.09375 2.3125l0 6.75q0 1.1875 0.09375 2.296875q0.09375 1.09375 0.578125 1.765625q0.484375 0.671875 1.640625 0.671875zm24.365814 2.953125q-2.640625 0 -4.0156555 -1.0625q-1.359375 -1.0625 -1.828125 -3.0q-0.453125 -1.953125 -0.453125 -4.515625l0 -4.96875q0 -2.71875 0.484375 -4.640625q0.484375 -1.9375 1.84375 -2.953125q1.3594055 -1.03125 3.9687805 -1.03125q2.359375 0 3.640625 0.765625q1.296875 0.765625 1.78125 2.28125q0.484375 1.515625 0.484375 3.75l0 1.265625l-3.625 0l0 -1.3125q0 -1.40625 -0.1875 -2.21875q-0.1875 -0.828125 -0.671875 -1.203125q-0.484375 -0.375 -1.375 -0.375q-0.96875 0 -1.5 0.453125q-0.515625 0.4375 -0.6875 1.5q-0.171875 1.0625 -0.171875 2.890625l0 6.796875q0 2.765625 0.515625 3.703125q0.53125 0.921875 1.875 0.921875q1.015625 0 1.46875 -0.453125q0.46875 -0.46875 0.59375 -1.328125q0.140625 -0.859375 0.140625 -1.953125l0 -1.75l3.625 0l0 1.5q0 2.15625 -0.515625 3.734375q-0.5 1.5625 -1.78125 2.390625q-1.28125 0.8125 -3.609375 0.8125zm15.388794 0q-2.390625 0 -3.78125 -0.96875q-1.375 -0.96875 -1.953125 -2.75q-0.578125 -1.796875 -0.578125 -4.234375l0 -6.265625q0 -2.421875 0.578125 -4.21875q0.578125 -1.796875 1.953125 -2.765625q1.390625 -0.96875 3.78125 -0.96875q2.390625 0 3.75 0.96875q1.359375 0.96875 1.9375 2.765625q0.578125 1.796875 0.578125 4.21875l0 6.265625q0 2.4375 -0.578125 4.234375q-0.578125 1.78125 -1.9375 2.75q-1.359375 0.96875 -3.75 0.96875zm0 -2.953125q1.15625 0 1.625 -0.671875q0.46875 -0.671875 0.5625 -1.765625q0.09375 -1.109375 0.09375 -2.296875l0 -6.75q0 -1.234375 -0.09375 -2.3125q-0.09375 -1.09375 -0.5625 -1.78125q-0.46875 -0.6875 -1.625 -0.6875q-1.15625 0 -1.640625 0.6875q-0.484375 0.6875 -0.578125 1.78125q-0.09375 1.078125 -0.09375 2.3125l0 6.75q0 1.1875 0.09375 2.296875q0.09375 1.09375 0.578125 1.765625q0.484375 0.671875 1.640625 0.671875zm9.927002 2.65625l0 -21.578125l3.703125 0l0 2.0625q1.078125 -1.234375 2.375 -1.828125q1.3125 -0.609375 2.6875 -0.609375q1.203125 0 2.15625 0.609375q0.953125 0.59375 1.359375 2.125q1.15625 -1.421875 2.515625 -2.078125q1.359375 -0.65625 2.859375 -0.65625q1.046875 0 1.90625 0.515625q0.859375 0.5 1.375 1.609375q0.53125 1.09375 0.53125 2.875l0 16.953125l-3.65625 0l0 -16.6875q0 -1.5625 -0.515625 -2.109375q-0.5 -0.546875 -1.359375 -0.546875q-0.8125 0 -1.71875 0.46875q-0.890625 0.46875 -1.640625 1.296875q0 0.140625 0 0.296875q0 0.140625 0 0.328125l0 16.953125l-3.65625 0l0 -16.6875q0 -1.5625 -0.515625 -2.109375q-0.5 -0.546875 -1.34375 -0.546875q-0.828125 0 -1.703125 0.46875q-0.875 0.46875 -1.65625 1.296875l0 17.578125l-3.703125 0zm25.383179 7.09375l0 -28.671875l4.0 0l0 1.71875q0.703125 -0.828125 1.703125 -1.421875q1.015625 -0.59375 2.390625 -0.59375q1.6875 0 2.671875 0.875q1.0 0.875 1.484375 2.203125q0.484375 1.328125 0.625 2.6875q0.15625 1.359375 0.15625 2.328125l0 5.234375q0 2.28125 -0.453125 4.3125q-0.453125 2.03125 -1.625 3.28125q-1.171875 1.25 -3.296875 1.25q-1.15625 0 -2.0625 -0.578125q-0.890625 -0.578125 -1.59375 -1.328125l0 8.703125l-4.0 0zm6.875 -9.9375q1.03125 0 1.484375 -0.765625q0.453125 -0.765625 0.5625 -2.0625q0.109375 -1.3125 0.109375 -2.875l0 -5.234375q0 -1.34375 -0.15625 -2.46875q-0.140625 -1.140625 -0.625 -1.8125q-0.484375 -0.671875 -1.53125 -0.671875q-0.78125 0 -1.5 0.34375q-0.703125 0.328125 -1.21875 0.765625l0 13.8125q0.546875 0.421875 1.25 0.703125q0.71875 0.265625 1.625 0.265625zm10.1484375 2.84375l0 -30.234375l4.0 0l0 30.234375l-4.0 0zm14.141907 0.296875q-2.53125 0 -3.921875 -0.984375q-1.375 -1.0 -1.921875 -2.921875q-0.53125 -1.921875 -0.53125 -4.71875l0 -4.921875q0 -2.875 0.546875 -4.78125q0.5625 -1.90625 1.96875 -2.875q1.40625 -0.96875 3.859375 -0.96875q2.734375 0 4.015625 1.125q1.28125 1.109375 1.6875 3.21875q0.421875 2.109375 0.421875 5.0625l0 1.75l-8.515625 0l0 4.328125q0 1.3125 0.234375 2.140625q0.25 0.8125 0.796875 1.203125q0.546875 0.390625 1.40625 0.390625q0.890625 0 1.359375 -0.421875q0.46875 -0.4375 0.625 -1.234375q0.171875 -0.796875 0.171875 -1.890625l0 -1.296875l3.890625 0l0 0.8125q0 3.25 -1.390625 5.125q-1.375 1.859375 -4.703125 1.859375zm-2.390625 -13.171875l4.59375 0l0 -1.9375q0 -1.34375 -0.15625 -2.265625q-0.140625 -0.921875 -0.609375 -1.375q-0.46875 -0.46875 -1.46875 -0.46875q-0.96875 0 -1.484375 0.453125q-0.5 0.4375 -0.6875 1.5q-0.1875 1.0625 -0.1875 2.9375l0 1.15625zm17.887085 13.171875q-1.6875 0 -2.71875 -0.625q-1.015625 -0.640625 -1.484375 -1.796875q-0.46875 -1.15625 -0.46875 -2.734375l0 -14.0625l-2.265625 0l0 -2.65625l2.265625 0l0 -6.3125l4.0 0l0 6.3125l3.46875 0l0 2.65625l-3.46875 0l0 13.8125q0 1.265625 0.40625 1.8125q0.40625 0.53125 1.578125 0.53125q0.296875 0 0.6875 -0.03125q0.390625 -0.046875 0.765625 -0.078125l0 2.953125q-0.75 0.109375 -1.390625 0.15625q-0.625 0.0625 -1.375 0.0625zm11.71582 0q-2.53125 0 -3.921875 -0.984375q-1.375 -1.0 -1.921875 -2.921875q-0.53125 -1.921875 -0.53125 -4.71875l0 -4.921875q0 -2.875 0.546875 -4.78125q0.5625 -1.90625 1.96875 -2.875q1.40625 -0.96875 3.859375 -0.96875q2.734375 0 4.015625 1.125q1.28125 1.109375 1.6875 3.21875q0.421875 2.109375 0.421875 5.0625l0 1.75l-8.515625 0l0 4.328125q0 1.3125 0.234375 2.140625q0.25 0.8125 0.796875 1.203125q0.546875 0.390625 1.40625 0.390625q0.890625 0 1.359375 -0.421875q0.46875 -0.4375 0.625 -1.234375q0.171875 -0.796875 0.171875 -1.890625l0 -1.296875l3.890625 0l0 0.8125q0 3.25 -1.390625 5.125q-1.375 1.859375 -4.703125 1.859375zm-2.390625 -13.171875l4.59375 0l0 -1.9375q0 -1.34375 -0.15625 -2.265625q-0.140625 -0.921875 -0.609375 -1.375q-0.46875 -0.46875 -1.46875 -0.46875q-0.96875 0 -1.484375 0.453125q-0.5 0.4375 -0.6875 1.5q-0.1875 1.0625 -0.1875 2.9375l0 1.15625zm26.435242 13.171875q-1.6875 0 -2.71875 -0.625q-1.015625 -0.640625 -1.484375 -1.796875q-0.46875 -1.15625 -0.46875 -2.734375l0 -14.0625l-2.265625 0l0 -2.65625l2.265625 0l0 -6.3125l4.0 0l0 6.3125l3.46875 0l0 2.65625l-3.46875 0l0 13.8125q0 1.265625 0.40625 1.8125q0.40625 0.53125 1.578125 0.53125q0.296875 0 0.6875 -0.03125q0.390625 -0.046875 0.765625 -0.078125l0 2.953125q-0.75 0.109375 -1.390625 0.15625q-0.625 0.0625 -1.375 0.0625zm5.8564453 -0.296875l0 -30.234375l4.0 0l0 10.890625q1.078125 -1.03125 2.421875 -1.78125q1.34375 -0.75 2.984375 -0.75q1.265625 0 1.953125 0.671875q0.703125 0.671875 0.984375 1.6875q0.28125 1.0 0.28125 2.046875l0 17.46875l-4.0 0l0 -16.3125q0 -1.15625 -0.34375 -1.78125q-0.328125 -0.640625 -1.375 -0.640625q-0.703125 0 -1.46875 0.40625q-0.765625 0.40625 -1.4375 1.015625l0 17.3125l-4.0 0zm22.470459 0.296875q-2.53125 0 -3.921875 -0.984375q-1.375 -1.0 -1.921875 -2.921875q-0.53125 -1.921875 -0.53125 -4.71875l0 -4.921875q0 -2.875 0.546875 -4.78125q0.5625 -1.90625 1.96875 -2.875q1.40625 -0.96875 3.859375 -0.96875q2.734375 0 4.015625 1.125q1.28125 1.109375 1.6875 3.21875q0.421875 2.109375 0.421875 5.0625l0 1.75l-8.515625 0l0 4.328125q0 1.3125 0.234375 2.140625q0.25 0.8125 0.796875 1.203125q0.546875 0.390625 1.40625 0.390625q0.890625 0 1.359375 -0.421875q0.46875 -0.4375 0.625 -1.234375q0.171875 -0.796875 0.171875 -1.890625l0 -1.296875l3.890625 0l0 0.8125q0 3.25 -1.390625 5.125q-1.375 1.859375 -4.703125 1.859375zm-2.390625 -13.171875l4.59375 0l0 -1.9375q0 -1.34375 -0.15625 -2.265625q-0.140625 -0.921875 -0.609375 -1.375q-0.46875 -0.46875 -1.46875 -0.46875q-0.96875 0 -1.484375 0.453125q-0.5 0.4375 -0.6875 1.5q-0.1875 1.0625 -0.1875 2.9375l0 1.15625zm21.028992 12.875l0 -30.234375l4.203125 0l0 13.0625l7.765625 0l0 -13.0625l4.21875 0l0 30.234375l-4.21875 0l0 -14.140625l-7.765625 0l0 14.140625l-4.203125 0zm21.159912 0l0 -30.234375l4.140625 0l0 30.234375l-4.140625 0zm12.351074 0l0 -27.09375l-5.109375 0l0 -3.140625l14.296875 0l0 3.140625l-4.96875 0l0 27.09375l-4.21875 0zm11.572876 0l0 -4.4375l4.0 0l0 4.4375l-4.0 0z" fill-rule="nonzero"/><path fill="#666666" d="m202.84187 259.45102l0 -10.671875l-6.53125 -19.5625l3.921875 0l4.625 14.59375l4.546875 -14.59375l3.953125 0l-6.484375 19.5625l0 10.671875l-4.03125 0zm18.176956 0.296875q-2.390625 0 -3.78125 -0.96875q-1.375 -0.96875 -1.953125 -2.75q-0.578125 -1.796875 -0.578125 -4.234375l0 -6.265625q0 -2.421875 0.578125 -4.21875q0.578125 -1.796875 1.953125 -2.765625q1.390625 -0.96875 3.78125 -0.96875q2.390625 0 3.75 0.96875q1.359375 0.96875 1.9375 2.765625q0.578125 1.796875 0.578125 4.21875l0 6.265625q0 2.4375 -0.578125 4.234375q-0.578125 1.78125 -1.9375 2.75q-1.359375 0.96875 -3.75 0.96875zm0 -2.953125q1.15625 0 1.625 -0.671875q0.46875 -0.671875 0.5625 -1.765625q0.09375 -1.109375 0.09375 -2.296875l0 -6.75q0 -1.234375 -0.09375 -2.3125q-0.09375 -1.09375 -0.5625 -1.78125q-0.46875 -0.6875 -1.625 -0.6875q-1.15625 0 -1.640625 0.6875q-0.484375 0.6875 -0.578125 1.78125q-0.09375 1.078125 -0.09375 2.3125l0 6.75q0 1.1875 0.09375 2.296875q0.09375 1.09375 0.578125 1.765625q0.484375 0.671875 1.640625 0.671875zm13.020752 2.953125q-1.265625 0 -1.984375 -0.671875q-0.703125 -0.671875 -0.984375 -1.671875q-0.28125 -1.015625 -0.28125 -2.0625l0 -17.46875l4.0 0l0 16.28125q0 1.15625 0.328125 1.8125q0.34375 0.640625 1.390625 0.640625q0.671875 0 1.390625 -0.390625q0.734375 -0.390625 1.40625 -0.953125l0 -17.390625l4.0 0l0 21.578125l-4.0 0l0 -2.125q-1.046875 1.0 -2.375 1.71875q-1.3125 0.703125 -2.890625 0.703125zm24.378845 -0.296875l-3.46875 -21.578125l3.28125 0l2.234375 15.90625l2.875 -15.90625l3.0625 0l2.875 15.828125l2.25 -15.828125l3.28125 0l-3.59375 21.578125l-3.359375 0l-2.9375 -15.234375l-2.921875 15.234375l-3.578125 0zm19.71463 0l0 -21.578125l3.984375 0l0 21.578125l-3.984375 0zm0 -24.78125l0 -4.1875l3.984375 0l0 4.1875l-3.984375 0zm8.657532 24.78125l0 -30.234375l4.0 0l0 30.234375l-4.0 0zm8.548187 0l0 -30.234375l4.0 0l0 30.234375l-4.0 0zm24.455719 0.296875q-1.171875 0 -2.09375 -0.578125q-0.90625 -0.578125 -1.578125 -1.28125l0 1.5625l-3.984375 0l0 -30.234375l3.984375 0l0 10.375q0.71875 -0.828125 1.703125 -1.421875q0.984375 -0.59375 2.375 -0.59375q1.671875 0 2.65625 0.875q1.0 0.875 1.484375 2.203125q0.484375 1.328125 0.625 2.6875q0.15625 1.359375 0.15625 2.328125l0 5.234375q0 2.28125 -0.453125 4.3125q-0.4375 2.03125 -1.59375 3.28125q-1.15625 1.25 -3.28125 1.25zm-0.828125 -3.140625q1.046875 0 1.484375 -0.765625q0.453125 -0.765625 0.5625 -2.0625q0.125 -1.3125 0.125 -2.875l0 -5.234375q0 -1.34375 -0.15625 -2.46875q-0.15625 -1.140625 -0.640625 -1.8125q-0.484375 -0.671875 -1.53125 -0.671875q-0.78125 0 -1.46875 0.34375q-0.6875 0.328125 -1.21875 0.734375l0 13.84375q0.53125 0.421875 1.25 0.703125q0.734375 0.265625 1.59375 0.265625zm15.74823 3.140625q-2.53125 0 -3.921875 -0.984375q-1.375 -1.0 -1.921875 -2.921875q-0.53125 -1.921875 -0.53125 -4.71875l0 -4.921875q0 -2.875 0.546875 -4.78125q0.5625 -1.90625 1.96875 -2.875q1.40625 -0.96875 3.859375 -0.96875q2.734375 0 4.015625 1.125q1.28125 1.109375 1.6875 3.21875q0.421875 2.109375 0.421875 5.0625l0 1.75l-8.515625 0l0 4.328125q0 1.3125 0.234375 2.140625q0.25 0.8125 0.796875 1.203125q0.546875 0.390625 1.40625 0.390625q0.890625 0 1.359375 -0.421875q0.46875 -0.4375 0.625 -1.234375q0.171875 -0.796875 0.171875 -1.890625l0 -1.296875l3.890625 0l0 0.8125q0 3.25 -1.390625 5.125q-1.375 1.859375 -4.703125 1.859375zm-2.390625 -13.171875l4.59375 0l0 -1.9375q0 -1.34375 -0.15625 -2.265625q-0.140625 -0.921875 -0.609375 -1.375q-0.46875 -0.46875 -1.46875 -0.46875q-0.96875 0 -1.484375 0.453125q-0.5 0.4375 -0.6875 1.5q-0.1875 1.0625 -0.1875 2.9375l0 1.15625zm26.278992 19.5625q-1.9375 0 -3.515625 -0.421875q-1.5625 -0.40625 -2.453125 -1.3125q-0.890625 -0.890625 -0.890625 -2.34375q0 -1.046875 0.4375 -1.828125q0.453125 -0.78125 1.15625 -1.359375q0.71875 -0.578125 1.5 -0.953125q-1.046875 -0.296875 -1.578125 -0.953125q-0.515625 -0.65625 -0.515625 -1.359375q0 -1.203125 0.640625 -2.046875q0.640625 -0.859375 1.75 -1.875q-1.234375 -0.9375 -1.875 -2.390625q-0.625 -1.453125 -0.625 -4.03125q0 -2.53125 0.6875 -4.234375q0.703125 -1.703125 2.0625 -2.578125q1.359375 -0.875 3.34375 -0.875q1.75 0 2.8125 0.59375q1.0625 0.59375 1.625 1.796875q0.1875 -0.296875 1.0 -1.015625q0.828125 -0.734375 1.90625 -1.21875l0.59375 -0.265625l1.015625 2.578125q-0.484375 0.0625 -1.296875 0.34375q-0.796875 0.28125 -1.484375 0.5625q-0.6875 0.28125 -0.875 0.46875q0.25 0.640625 0.453125 1.84375q0.21875 1.1875 0.21875 2.109375q0 2.203125 -0.5625 3.890625q-0.5625 1.671875 -1.859375 2.625q-1.28125 0.953125 -3.546875 0.953125q-0.5 0 -1.0625 -0.0625q-0.546875 -0.078125 -1.0 -0.203125q-0.21875 0.34375 -0.46875 0.796875q-0.234375 0.4375 -0.234375 0.859375q0 0.40625 0.421875 0.65625q0.4375 0.234375 1.359375 0.3125l3.359375 0.296875q2.546875 0.21875 3.78125 1.53125q1.234375 1.296875 1.234375 3.734375q0 1.75 -0.828125 2.953125q-0.828125 1.21875 -2.484375 1.8125q-1.65625 0.609375 -4.203125 0.609375zm0.296875 -3.140625q2.140625 0 3.140625 -0.515625q1.015625 -0.5 1.015625 -1.609375q0 -0.671875 -0.25 -1.125q-0.234375 -0.453125 -0.875 -0.703125q-0.640625 -0.265625 -1.828125 -0.375l-3.390625 -0.296875q-0.421875 0.40625 -0.796875 0.828125q-0.375 0.40625 -0.59375 0.859375q-0.21875 0.46875 -0.21875 1.0q0 0.96875 0.8125 1.453125q0.828125 0.484375 2.984375 0.484375zm-0.171875 -12.953125q0.84375 0 1.34375 -0.3125q0.515625 -0.328125 0.765625 -0.9375q0.265625 -0.609375 0.359375 -1.5q0.09375 -0.90625 0.09375 -2.03125q0 -1.109375 -0.09375 -2.03125q-0.09375 -0.921875 -0.34375 -1.5625q-0.234375 -0.65625 -0.734375 -0.984375q-0.5 -0.34375 -1.359375 -0.34375q-0.828125 0 -1.375 0.34375q-0.53125 0.328125 -0.796875 0.953125q-0.25 0.609375 -0.375 1.53125q-0.109375 0.90625 -0.109375 2.09375q0 1.015625 0.09375 1.890625q0.09375 0.875 0.375 1.515625q0.28125 0.625 0.796875 1.0q0.53125 0.375 1.359375 0.375zm10.784668 9.40625l0 -21.578125l3.984375 0l0 21.578125l-3.984375 0zm0 -24.78125l0 -4.1875l3.984375 0l0 4.1875l-3.984375 0zm11.079407 24.78125l-4.25 -21.578125l4.03125 0l2.640625 17.359375l2.6875 -17.359375l3.890625 0l-4.109375 21.578125l-4.890625 0zm17.543243 0.296875q-2.53125 0 -3.921875 -0.984375q-1.375 -1.0 -1.921875 -2.921875q-0.53125 -1.921875 -0.53125 -4.71875l0 -4.921875q0 -2.875 0.546875 -4.78125q0.5625 -1.90625 1.96875 -2.875q1.40625 -0.96875 3.859375 -0.96875q2.734375 0 4.015625 1.125q1.28125 1.109375 1.6875 3.21875q0.421875 2.109375 0.421875 5.0625l0 1.75l-8.515625 0l0 4.328125q0 1.3125 0.234375 2.140625q0.25 0.8125 0.796875 1.203125q0.546875 0.390625 1.40625 0.390625q0.890625 0 1.359375 -0.421875q0.46875 -0.4375 0.625 -1.234375q0.171875 -0.796875 0.171875 -1.890625l0 -1.296875l3.890625 0l0 0.8125q0 3.25 -1.390625 5.125q-1.375 1.859375 -4.703125 1.859375zm-2.390625 -13.171875l4.59375 0l0 -1.9375q0 -1.34375 -0.15625 -2.265625q-0.140625 -0.921875 -0.609375 -1.375q-0.46875 -0.46875 -1.46875 -0.46875q-0.96875 0 -1.484375 0.453125q-0.5 0.4375 -0.6875 1.5q-0.1875 1.0625 -0.1875 2.9375l0 1.15625zm12.137085 12.875l0 -21.578125l4.0 0l0 2.125q1.078125 -1.0 2.375 -1.703125q1.3125 -0.71875 2.875 -0.71875q1.3125 0 2.0 0.671875q0.6875 0.671875 0.96875 1.6875q0.28125 1.0 0.28125 2.046875l0 17.46875l-3.984375 0l0 -16.3125q0 -1.15625 -0.34375 -1.78125q-0.328125 -0.640625 -1.375 -0.640625q-0.671875 0 -1.40625 0.390625q-0.71875 0.390625 -1.390625 0.953125l0 17.390625l-4.0 0zm30.685272 0.296875q-1.6875 0 -2.71875 -0.625q-1.015625 -0.640625 -1.484375 -1.796875q-0.46875 -1.15625 -0.46875 -2.734375l0 -14.0625l-2.265625 0l0 -2.65625l2.265625 0l0 -6.3125l4.0 0l0 6.3125l3.46875 0l0 2.65625l-3.46875 0l0 13.8125q0 1.265625 0.40625 1.8125q0.40625 0.53125 1.578125 0.53125q0.296875 0 0.6875 -0.03125q0.390625 -0.046875 0.765625 -0.078125l0 2.953125q-0.75 0.109375 -1.390625 0.15625q-0.625 0.0625 -1.375 0.0625zm8.24707 -0.296875l-3.46875 -21.578125l3.28125 0l2.234375 15.90625l2.875 -15.90625l3.0625 0l2.875 15.828125l2.25 -15.828125l3.28125 0l-3.59375 21.578125l-3.359375 0l-2.9375 -15.234375l-2.921875 15.234375l-3.578125 0zm25.386536 0.296875q-2.390625 0 -3.78125 -0.96875q-1.375 -0.96875 -1.953125 -2.75q-0.578125 -1.796875 -0.578125 -4.234375l0 -6.265625q0 -2.421875 0.578125 -4.21875q0.578125 -1.796875 1.953125 -2.765625q1.390625 -0.96875 3.78125 -0.96875q2.390625 0 3.75 0.96875q1.359375 0.96875 1.9375 2.765625q0.578125 1.796875 0.578125 4.21875l0 6.265625q0 2.4375 -0.578125 4.234375q-0.578125 1.78125 -1.9375 2.75q-1.359375 0.96875 -3.75 0.96875zm0 -2.953125q1.15625 0 1.625 -0.671875q0.46875 -0.671875 0.5625 -1.765625q0.09375 -1.109375 0.09375 -2.296875l0 -6.75q0 -1.234375 -0.09375 -2.3125q-0.09375 -1.09375 -0.5625 -1.78125q-0.46875 -0.6875 -1.625 -0.6875q-1.15625 0 -1.640625 0.6875q-0.484375 0.6875 -0.578125 1.78125q-0.09375 1.078125 -0.09375 2.3125l0 6.75q0 1.1875 0.09375 2.296875q0.09375 1.09375 0.578125 1.765625q0.484375 0.671875 1.640625 0.671875zm18.740784 2.65625l0 -21.578125l3.984375 0l0 21.578125l-3.984375 0zm0 -24.78125l0 -4.1875l3.984375 0l0 4.1875l-3.984375 0zm8.282532 24.78125l0 -21.578125l3.703125 0l0 2.0625q1.078125 -1.234375 2.375 -1.828125q1.3125 -0.609375 2.6875 -0.609375q1.203125 0 2.15625 0.609375q0.953125 0.59375 1.359375 2.125q1.15625 -1.421875 2.515625 -2.078125q1.359375 -0.65625 2.859375 -0.65625q1.046875 0 1.90625 0.515625q0.859375 0.5 1.375 1.609375q0.53125 1.09375 0.53125 2.875l0 16.953125l-3.65625 0l0 -16.6875q0 -1.5625 -0.515625 -2.109375q-0.5 -0.546875 -1.359375 -0.546875q-0.8125 0 -1.71875 0.46875q-0.890625 0.46875 -1.640625 1.296875q0 0.140625 0 0.296875q0 0.140625 0 0.328125l0 16.953125l-3.65625 0l0 -16.6875q0 -1.5625 -0.515625 -2.109375q-0.5 -0.546875 -1.34375 -0.546875q-0.828125 0 -1.703125 0.46875q-0.875 0.46875 -1.65625 1.296875l0 17.578125l-3.703125 0zm29.25824 0.296875q-1.265625 0 -2.234375 -0.71875q-0.96875 -0.734375 -1.53125 -1.875q-0.5625 -1.140625 -0.5625 -2.40625q0 -2.015625 0.671875 -3.390625q0.671875 -1.390625 1.84375 -2.34375q1.1875 -0.953125 2.734375 -1.65625q1.546875 -0.703125 3.265625 -1.375l0 -1.53125q0 -1.3125 -0.15625 -2.171875q-0.140625 -0.859375 -0.609375 -1.28125q-0.46875 -0.4375 -1.40625 -0.4375q-0.8125 0 -1.328125 0.375q-0.5 0.375 -0.71875 1.0625q-0.21875 0.6875 -0.21875 1.625l0 1.078125l-3.953125 -0.140625q0.0625 -3.59375 1.625 -5.28125q1.578125 -1.703125 4.859375 -1.703125q3.21875 0 4.5625 1.765625q1.34375 1.75 1.34375 5.0625l0 9.859375q0 1.0 0.046875 1.9375q0.0625 0.9375 0.15625 1.75q0.09375 0.796875 0.171875 1.5l-3.671875 0q-0.109375 -0.59375 -0.28125 -1.5q-0.15625 -0.921875 -0.234375 -1.671875q-0.375 1.265625 -1.4375 2.375q-1.0625 1.09375 -2.9375 1.09375zm1.578125 -3.4375q0.59375 0 1.109375 -0.328125q0.53125 -0.34375 0.9375 -0.765625q0.40625 -0.4375 0.5625 -0.6875l0 -6.125q-0.9375 0.515625 -1.765625 1.046875q-0.8125 0.515625 -1.4375 1.09375q-0.609375 0.578125 -0.96875 1.3125q-0.34375 0.71875 -0.34375 1.65625q0 1.3125 0.484375 2.0625q0.484375 0.734375 1.421875 0.734375zm16.04242 9.828125q-1.9375 0 -3.515625 -0.421875q-1.5625 -0.40625 -2.453125 -1.3125q-0.890625 -0.890625 -0.890625 -2.34375q0 -1.046875 0.4375 -1.828125q0.453125 -0.78125 1.15625 -1.359375q0.71875 -0.578125 1.5 -0.953125q-1.046875 -0.296875 -1.578125 -0.953125q-0.515625 -0.65625 -0.515625 -1.359375q0 -1.203125 0.640625 -2.046875q0.640625 -0.859375 1.75 -1.875q-1.234375 -0.9375 -1.875 -2.390625q-0.625 -1.453125 -0.625 -4.03125q0 -2.53125 0.6875 -4.234375q0.703125 -1.703125 2.0625 -2.578125q1.359375 -0.875 3.34375 -0.875q1.75 0 2.8125 0.59375q1.0625 0.59375 1.625 1.796875q0.1875 -0.296875 1.0 -1.015625q0.828125 -0.734375 1.90625 -1.21875l0.59375 -0.265625l1.015625 2.578125q-0.484375 0.0625 -1.296875 0.34375q-0.796875 0.28125 -1.484375 0.5625q-0.6875 0.28125 -0.875 0.46875q0.25 0.640625 0.453125 1.84375q0.21875 1.1875 0.21875 2.109375q0 2.203125 -0.5625 3.890625q-0.5625 1.671875 -1.859375 2.625q-1.28125 0.953125 -3.546875 0.953125q-0.5 0 -1.0625 -0.0625q-0.546875 -0.078125 -1.0 -0.203125q-0.21875 0.34375 -0.46875 0.796875q-0.234375 0.4375 -0.234375 0.859375q0 0.40625 0.421875 0.65625q0.4375 0.234375 1.359375 0.3125l3.359375 0.296875q2.546875 0.21875 3.78125 1.53125q1.234375 1.296875 1.234375 3.734375q0 1.75 -0.828125 2.953125q-0.828125 1.21875 -2.484375 1.8125q-1.65625 0.609375 -4.203125 0.609375zm0.296875 -3.140625q2.140625 0 3.140625 -0.515625q1.015625 -0.5 1.015625 -1.609375q0 -0.671875 -0.25 -1.125q-0.234375 -0.453125 -0.875 -0.703125q-0.640625 -0.265625 -1.828125 -0.375l-3.390625 -0.296875q-0.421875 0.40625 -0.796875 0.828125q-0.375 0.40625 -0.59375 0.859375q-0.21875 0.46875 -0.21875 1.0q0 0.96875 0.8125 1.453125q0.828125 0.484375 2.984375 0.484375zm-0.171875 -12.953125q0.84375 0 1.34375 -0.3125q0.515625 -0.328125 0.765625 -0.9375q0.265625 -0.609375 0.359375 -1.5q0.09375 -0.90625 0.09375 -2.03125q0 -1.109375 -0.09375 -2.03125q-0.09375 -0.921875 -0.34375 -1.5625q-0.234375 -0.65625 -0.734375 -0.984375q-0.5 -0.34375 -1.359375 -0.34375q-0.828125 0 -1.375 0.34375q-0.53125 0.328125 -0.796875 0.953125q-0.25 0.609375 -0.375 1.53125q-0.109375 0.90625 -0.109375 2.09375q0 1.015625 0.09375 1.890625q0.09375 0.875 0.375 1.515625q0.28125 0.625 0.796875 1.0q0.53125 0.375 1.359375 0.375zm16.33844 9.703125q-2.53125 0 -3.921875 -0.984375q-1.375 -1.0 -1.921875 -2.921875q-0.53125 -1.921875 -0.53125 -4.71875l0 -4.921875q0 -2.875 0.546875 -4.78125q0.5625 -1.90625 1.96875 -2.875q1.40625 -0.96875 3.859375 -0.96875q2.734375 0 4.015625 1.125q1.28125 1.109375 1.6875 3.21875q0.421875 2.109375 0.421875 5.0625l0 1.75l-8.515625 0l0 4.328125q0 1.3125 0.234375 2.140625q0.25 0.8125 0.796875 1.203125q0.546875 0.390625 1.40625 0.390625q0.890625 0 1.359375 -0.421875q0.46875 -0.4375 0.625 -1.234375q0.171875 -0.796875 0.171875 -1.890625l0 -1.296875l3.890625 0l0 0.8125q0 3.25 -1.390625 5.125q-1.375 1.859375 -4.703125 1.859375zm-2.390625 -13.171875l4.59375 0l0 -1.9375q0 -1.34375 -0.15625 -2.265625q-0.140625 -0.921875 -0.609375 -1.375q-0.46875 -0.46875 -1.46875 -0.46875q-0.96875 0 -1.484375 0.453125q-0.5 0.4375 -0.6875 1.5q-0.1875 1.0625 -0.1875 2.9375l0 1.15625zm17.137085 13.171875q-2.640625 0 -4.25 -1.65625q-1.609375 -1.671875 -1.828125 -4.390625l3.3125 -1.0q0.296875 2.046875 1.0 3.078125q0.71875 1.015625 2.109375 1.015625q1.078125 0 1.640625 -0.609375q0.5625 -0.609375 0.5625 -1.65625q0 -0.9375 -0.421875 -1.6875q-0.40625 -0.75 -1.34375 -1.53125l-3.6875 -3.171875q-1.125 -0.96875 -1.890625 -2.15625q-0.765625 -1.203125 -0.765625 -3.109375q0 -1.71875 0.6875 -2.890625q0.703125 -1.171875 1.953125 -1.78125q1.25 -0.625 2.921875 -0.625q2.578125 0 3.9375 1.671875q1.359375 1.65625 1.546875 4.0l-2.6875 1.015625q-0.140625 -1.125 -0.4375 -1.96875q-0.296875 -0.84375 -0.828125 -1.296875q-0.515625 -0.46875 -1.375 -0.46875q-0.96875 0 -1.546875 0.65625q-0.578125 0.640625 -0.578125 1.546875q0 0.5625 0.234375 1.109375q0.25 0.53125 0.84375 1.046875l3.796875 3.515625q0.796875 0.703125 1.484375 1.53125q0.6875 0.8125 1.125 1.859375q0.453125 1.046875 0.453125 2.4375q0 1.828125 -0.75 3.0625q-0.734375 1.21875 -2.078125 1.84375q-1.34375 0.609375 -3.140625 0.609375zm21.383911 0q-1.265625 0 -2.234375 -0.71875q-0.96875 -0.734375 -1.53125 -1.875q-0.5625 -1.140625 -0.5625 -2.40625q0 -2.015625 0.671875 -3.390625q0.671875 -1.390625 1.84375 -2.34375q1.1875 -0.953125 2.734375 -1.65625q1.546875 -0.703125 3.265625 -1.375l0 -1.53125q0 -1.3125 -0.15625 -2.171875q-0.140625 -0.859375 -0.609375 -1.28125q-0.46875 -0.4375 -1.40625 -0.4375q-0.8125 0 -1.328125 0.375q-0.5 0.375 -0.71875 1.0625q-0.21875 0.6875 -0.21875 1.625l0 1.078125l-3.953125 -0.140625q0.0625 -3.59375 1.625 -5.28125q1.578125 -1.703125 4.859375 -1.703125q3.21875 0 4.5625 1.765625q1.34375 1.75 1.34375 5.0625l0 9.859375q0 1.0 0.046875 1.9375q0.0625 0.9375 0.15625 1.75q0.09375 0.796875 0.171875 1.5l-3.671875 0q-0.109375 -0.59375 -0.28125 -1.5q-0.15625 -0.921875 -0.234375 -1.671875q-0.375 1.265625 -1.4375 2.375q-1.0625 1.09375 -2.9375 1.09375zm1.578125 -3.4375q0.59375 0 1.109375 -0.328125q0.53125 -0.34375 0.9375 -0.765625q0.40625 -0.4375 0.5625 -0.6875l0 -6.125q-0.9375 0.515625 -1.765625 1.046875q-0.8125 0.515625 -1.4375 1.09375q-0.609375 0.578125 -0.96875 1.3125q-0.34375 0.71875 -0.34375 1.65625q0 1.3125 0.484375 2.0625q0.484375 0.734375 1.421875 0.734375zm10.44873 3.140625l0 -21.578125l4.0 0l0 2.125q1.078125 -1.0 2.375 -1.703125q1.3125 -0.71875 2.875 -0.71875q1.3125 0 2.0 0.671875q0.6875 0.671875 0.96875 1.6875q0.28125 1.0 0.28125 2.046875l0 17.46875l-3.984375 0l0 -16.3125q0 -1.15625 -0.34375 -1.78125q-0.328125 -0.640625 -1.375 -0.640625q-0.671875 0 -1.40625 0.390625q-0.71875 0.390625 -1.390625 0.953125l0 17.390625l-4.0 0zm21.387085 0.296875q-2.71875 0 -4.0625 -2.0q-1.34375 -2.0 -1.34375 -6.765625l0 -4.1875q0 -2.46875 0.40625 -4.578125q0.40625 -2.109375 1.546875 -3.375q1.140625 -1.265625 3.34375 -1.265625q1.078125 0 1.96875 0.484375q0.90625 0.484375 1.609375 1.203125l0 -10.046875l4.0 0l0 30.234375l-4.0 0l0 -1.375q-0.703125 0.734375 -1.546875 1.203125q-0.84375 0.46875 -1.921875 0.46875zm1.015625 -3.140625q0.546875 0 1.1875 -0.203125q0.640625 -0.203125 1.265625 -0.609375l0 -14.15625q-0.515625 -0.359375 -1.15625 -0.640625q-0.625 -0.28125 -1.375 -0.28125q-1.390625 0 -1.875 1.328125q-0.484375 1.3125 -0.484375 3.1875l0 6.078125q0 1.5 0.171875 2.71875q0.171875 1.203125 0.6875 1.890625q0.53125 0.6875 1.578125 0.6875zm22.906616 3.140625q-1.265625 0 -2.234375 -0.71875q-0.96875 -0.734375 -1.53125 -1.875q-0.5625 -1.140625 -0.5625 -2.40625q0 -2.015625 0.671875 -3.390625q0.671875 -1.390625 1.84375 -2.34375q1.1875 -0.953125 2.734375 -1.65625q1.546875 -0.703125 3.265625 -1.375l0 -1.53125q0 -1.3125 -0.15625 -2.171875q-0.140625 -0.859375 -0.609375 -1.28125q-0.46875 -0.4375 -1.40625 -0.4375q-0.8125 0 -1.328125 0.375q-0.5 0.375 -0.71875 1.0625q-0.21875 0.6875 -0.21875 1.625l0 1.078125l-3.953125 -0.140625q0.0625 -3.59375 1.625 -5.28125q1.578125 -1.703125 4.859375 -1.703125q3.21875 0 4.5625 1.765625q1.34375 1.75 1.34375 5.0625l0 9.859375q0 1.0 0.046875 1.9375q0.0625 0.9375 0.15625 1.75q0.09375 0.796875 0.171875 1.5l-3.671875 0q-0.109375 -0.59375 -0.28125 -1.5q-0.15625 -0.921875 -0.234375 -1.671875q-0.375 1.265625 -1.4375 2.375q-1.0625 1.09375 -2.9375 1.09375zm1.578125 -3.4375q0.59375 0 1.109375 -0.328125q0.53125 -0.34375 0.9375 -0.765625q0.40625 -0.4375 0.5625 -0.6875l0 -6.125q-0.9375 0.515625 -1.765625 1.046875q-0.8125 0.515625 -1.4375 1.09375q-0.609375 0.578125 -0.96875 1.3125q-0.34375 0.71875 -0.34375 1.65625q0 1.3125 0.484375 2.0625q0.484375 0.734375 1.421875 0.734375zm15.44873 3.4375q-2.640625 0 -4.25 -1.65625q-1.609375 -1.671875 -1.828125 -4.390625l3.3125 -1.0q0.296875 2.046875 1.0 3.078125q0.71875 1.015625 2.109375 1.015625q1.078125 0 1.640625 -0.609375q0.5625 -0.609375 0.5625 -1.65625q0 -0.9375 -0.421875 -1.6875q-0.40625 -0.75 -1.34375 -1.53125l-3.6875 -3.171875q-1.125 -0.96875 -1.890625 -2.15625q-0.765625 -1.203125 -0.765625 -3.109375q0 -1.71875 0.6875 -2.890625q0.703125 -1.171875 1.953125 -1.78125q1.25 -0.625 2.921875 -0.625q2.578125 0 3.9375 1.671875q1.359375 1.65625 1.546875 4.0l-2.6875 1.015625q-0.140625 -1.125 -0.4375 -1.96875q-0.296875 -0.84375 -0.828125 -1.296875q-0.515625 -0.46875 -1.375 -0.46875q-0.96875 0 -1.546875 0.65625q-0.578125 0.640625 -0.578125 1.546875q0 0.5625 0.234375 1.109375q0.25 0.53125 0.84375 1.046875l3.796875 3.515625q0.796875 0.703125 1.484375 1.53125q0.6875 0.8125 1.125 1.859375q0.453125 1.046875 0.453125 2.4375q0 1.828125 -0.75 3.0625q-0.734375 1.21875 -2.078125 1.84375q-1.34375 0.609375 -3.140625 0.609375zm9.038879 -0.328125l0 -30.234375l3.984375 0l0 18.015625l5.828125 -9.328125l4.1875 0l-5.078125 8.4375l4.921875 13.140625l-4.0 0l-4.03125 -11.046875l-1.828125 2.765625l0 8.25l-3.984375 0zm21.904419 0.328125q-2.53125 0 -3.921875 -0.984375q-1.375 -1.0 -1.921875 -2.921875q-0.53125 -1.921875 -0.53125 -4.71875l0 -4.921875q0 -2.875 0.546875 -4.78125q0.5625 -1.90625 1.96875 -2.875q1.40625 -0.96875 3.859375 -0.96875q2.734375 0 4.015625 1.125q1.28125 1.109375 1.6875 3.21875q0.421875 2.109375 0.421875 5.0625l0 1.75l-8.515625 0l0 4.328125q0 1.3125 0.234375 2.140625q0.25 0.8125 0.796875 1.203125q0.546875 0.390625 1.40625 0.390625q0.890625 0 1.359375 -0.421875q0.46875 -0.4375 0.625 -1.234375q0.171875 -0.796875 0.171875 -1.890625l0 -1.296875l3.890625 0l0 0.8125q0 3.25 -1.390625 5.125q-1.375 1.859375 -4.703125 1.859375zm-2.390625 -13.171875l4.59375 0l0 -1.9375q0 -1.34375 -0.15625 -2.265625q-0.140625 -0.921875 -0.609375 -1.375q-0.46875 -0.46875 -1.46875 -0.46875q-0.96875 0 -1.484375 0.453125q-0.5 0.4375 -0.6875 1.5q-0.1875 1.0625 -0.1875 2.9375l0 1.15625zm17.137085 13.171875q-2.71875 0 -4.0625 -2.0q-1.34375 -2.0 -1.34375 -6.765625l0 -4.1875q0 -2.46875 0.40625 -4.578125q0.40625 -2.109375 1.546875 -3.375q1.140625 -1.265625 3.34375 -1.265625q1.078125 0 1.96875 0.484375q0.90625 0.484375 1.609375 1.203125l0 -10.046875l4.0 0l0 30.234375l-4.0 0l0 -1.375q-0.703125 0.734375 -1.546875 1.203125q-0.84375 0.46875 -1.921875 0.46875zm1.015625 -3.140625q0.546875 0 1.1875 -0.203125q0.640625 -0.203125 1.265625 -0.609375l0 -14.15625q-0.515625 -0.359375 -1.15625 -0.640625q-0.625 -0.28125 -1.375 -0.28125q-1.390625 0 -1.875 1.328125q-0.484375 1.3125 -0.484375 3.1875l0 6.078125q0 1.5 0.171875 2.71875q0.171875 1.203125 0.6875 1.890625q0.53125 0.6875 1.578125 0.6875zm24.781616 3.140625q-1.6875 0 -2.71875 -0.625q-1.015625 -0.640625 -1.484375 -1.796875q-0.46875 -1.15625 -0.46875 -2.734375l0 -14.0625l-2.265625 0l0 -2.65625l2.265625 0l0 -6.3125l4.0 0l0 6.3125l3.46875 0l0 2.65625l-3.46875 0l0 13.8125q0 1.265625 0.40625 1.8125q0.40625 0.53125 1.578125 0.53125q0.296875 0 0.6875 -0.03125q0.390625 -0.046875 0.765625 -0.078125l0 2.953125q-0.75 0.109375 -1.390625 0.15625q-0.625 0.0625 -1.375 0.0625zm11.68457 0q-2.390625 0 -3.78125 -0.96875q-1.375 -0.96875 -1.953125 -2.75q-0.578125 -1.796875 -0.578125 -4.234375l0 -6.265625q0 -2.421875 0.578125 -4.21875q0.578125 -1.796875 1.953125 -2.765625q1.390625 -0.96875 3.78125 -0.96875q2.390625 0 3.75 0.96875q1.359375 0.96875 1.9375 2.765625q0.578125 1.796875 0.578125 4.21875l0 6.265625q0 2.4375 -0.578125 4.234375q-0.578125 1.78125 -1.9375 2.75q-1.359375 0.96875 -3.75 0.96875zm0 -2.953125q1.15625 0 1.625 -0.671875q0.46875 -0.671875 0.5625 -1.765625q0.09375 -1.109375 0.09375 -2.296875l0 -6.75q0 -1.234375 -0.09375 -2.3125q-0.09375 -1.09375 -0.5625 -1.78125q-0.46875 -0.6875 -1.625 -0.6875q-1.15625 0 -1.640625 0.6875q-0.484375 0.6875 -0.578125 1.78125q-0.09375 1.078125 -0.09375 2.3125l0 6.75q0 1.1875 0.09375 2.296875q0.09375 1.09375 0.578125 1.765625q0.484375 0.671875 1.640625 0.671875z" fill-rule="nonzero"/><path fill="#666666" d="m209.61076 304.54788q-2.640625 0 -4.25 -1.65625q-1.609375 -1.671875 -1.828125 -4.390625l3.3125 -1.0q0.296875 2.046875 1.0 3.078125q0.71875 1.015625 2.109375 1.015625q1.078125 0 1.640625 -0.609375q0.5625 -0.609375 0.5625 -1.65625q0 -0.9375 -0.421875 -1.6875q-0.40625 -0.75 -1.34375 -1.53125l-3.6875 -3.171875q-1.125 -0.96875 -1.890625 -2.15625q-0.765625 -1.203125 -0.765625 -3.109375q0 -1.71875 0.6875 -2.890625q0.703125 -1.171875 1.953125 -1.78125q1.25 -0.625 2.921875 -0.625q2.578125 0 3.9375 1.671875q1.359375 1.65625 1.546875 4.0l-2.6875 1.015625q-0.140625 -1.125 -0.4375 -1.96875q-0.296875 -0.84375 -0.828125 -1.296875q-0.515625 -0.46875 -1.375 -0.46875q-0.96875 0 -1.546875 0.65625q-0.578125 0.640625 -0.578125 1.546875q0 0.5625 0.234375 1.109375q0.25 0.53125 0.84375 1.046875l3.796875 3.515625q0.796875 0.703125 1.484375 1.53125q0.6875 0.8125 1.125 1.859375q0.453125 1.046875 0.453125 2.4375q0 1.828125 -0.75 3.0625q-0.734375 1.21875 -2.078125 1.84375q-1.34375 0.609375 -3.140625 0.609375zm14.92952 0q-2.53125 0 -3.921875 -0.984375q-1.375 -1.0 -1.921875 -2.921875q-0.53125 -1.921875 -0.53125 -4.71875l0 -4.921875q0 -2.875 0.546875 -4.78125q0.5625 -1.90625 1.96875 -2.875q1.40625 -0.96875 3.859375 -0.96875q2.734375 0 4.015625 1.125q1.28125 1.109375 1.6875 3.21875q0.421875 2.109375 0.421875 5.0625l0 1.75l-8.515625 0l0 4.328125q0 1.3125 0.234375 2.140625q0.25 0.8125 0.796875 1.203125q0.546875 0.390625 1.40625 0.390625q0.890625 0 1.359375 -0.421875q0.46875 -0.4375 0.625 -1.234375q0.171875 -0.796875 0.171875 -1.890625l0 -1.296875l3.890625 0l0 0.8125q0 3.25 -1.390625 5.125q-1.375 1.859375 -4.703125 1.859375zm-2.390625 -13.171875l4.59375 0l0 -1.9375q0 -1.34375 -0.15625 -2.265625q-0.140625 -0.921875 -0.609375 -1.375q-0.46875 -0.46875 -1.46875 -0.46875q-0.96875 0 -1.484375 0.453125q-0.5 0.4375 -0.6875 1.5q-0.1875 1.0625 -0.1875 2.9375l0 1.15625zm12.51207 12.875l0 -30.234375l4.0 0l0 30.234375l-4.0 0zm14.141922 0.296875q-2.53125 0 -3.921875 -0.984375q-1.375 -1.0 -1.921875 -2.921875q-0.53125 -1.921875 -0.53125 -4.71875l0 -4.921875q0 -2.875 0.546875 -4.78125q0.5625 -1.90625 1.96875 -2.875q1.40625 -0.96875 3.859375 -0.96875q2.734375 0 4.015625 1.125q1.28125 1.109375 1.6875 3.21875q0.421875 2.109375 0.421875 5.0625l0 1.75l-8.515625 0l0 4.328125q0 1.3125 0.234375 2.140625q0.25 0.8125 0.796875 1.203125q0.546875 0.390625 1.40625 0.390625q0.890625 0 1.359375 -0.421875q0.46875 -0.4375 0.625 -1.234375q0.171875 -0.796875 0.171875 -1.890625l0 -1.296875l3.890625 0l0 0.8125q0 3.25 -1.390625 5.125q-1.375 1.859375 -4.703125 1.859375zm-2.390625 -13.171875l4.59375 0l0 -1.9375q0 -1.34375 -0.15625 -2.265625q-0.140625 -0.921875 -0.609375 -1.375q-0.46875 -0.46875 -1.46875 -0.46875q-0.96875 0 -1.484375 0.453125q-0.5 0.4375 -0.6875 1.5q-0.1875 1.0625 -0.1875 2.9375l0 1.15625zm18.02768 13.171875q-2.640625 0 -4.015625 -1.0625q-1.359375 -1.0625 -1.828125 -3.0q-0.453125 -1.953125 -0.453125 -4.515625l0 -4.96875q0 -2.71875 0.484375 -4.640625q0.484375 -1.9375 1.84375 -2.953125q1.359375 -1.03125 3.96875 -1.03125q2.359375 0 3.640625 0.765625q1.296875 0.765625 1.78125 2.28125q0.484375 1.515625 0.484375 3.75l0 1.265625l-3.625 0l0 -1.3125q0 -1.40625 -0.1875 -2.21875q-0.1875 -0.828125 -0.671875 -1.203125q-0.484375 -0.375 -1.375 -0.375q-0.96875 0 -1.5 0.453125q-0.515625 0.4375 -0.6875 1.5q-0.171875 1.0625 -0.171875 2.890625l0 6.796875q0 2.765625 0.515625 3.703125q0.53125 0.921875 1.875 0.921875q1.015625 0 1.46875 -0.453125q0.46875 -0.46875 0.59375 -1.328125q0.140625 -0.859375 0.140625 -1.953125l0 -1.75l3.625 0l0 1.5q0 2.15625 -0.515625 3.734375q-0.5 1.5625 -1.78125 2.390625q-1.28125 0.8125 -3.609375 0.8125zm15.201294 0q-1.6875 0 -2.71875 -0.625q-1.015625 -0.640625 -1.484375 -1.796875q-0.46875 -1.15625 -0.46875 -2.734375l0 -14.0625l-2.265625 0l0 -2.65625l2.265625 0l0 -6.3125l4.0 0l0 6.3125l3.46875 0l0 2.65625l-3.46875 0l0 13.8125q0 1.265625 0.40625 1.8125q0.40625 0.53125 1.578125 0.53125q0.296875 0 0.6875 -0.03125q0.390625 -0.046875 0.765625 -0.078125l0 2.953125q-0.75 0.109375 -1.390625 0.15625q-0.625 0.0625 -1.375 0.0625zm16.795258 -0.296875l-3.46875 -21.578125l3.28125 0l2.234375 15.90625l2.875 -15.90625l3.0625 0l2.875 15.828125l2.25 -15.828125l3.28125 0l-3.59375 21.578125l-3.359375 0l-2.9375 -15.234375l-2.921875 15.234375l-3.578125 0zm19.55838 0l0 -30.234375l4.0 0l0 10.890625q1.078125 -1.03125 2.421875 -1.78125q1.34375 -0.75 2.984375 -0.75q1.265625 0 1.953125 0.671875q0.703125 0.671875 0.984375 1.6875q0.28125 1.0 0.28125 2.046875l0 17.46875l-4.0 0l0 -16.3125q0 -1.15625 -0.34375 -1.78125q-0.328125 -0.640625 -1.375 -0.640625q-0.703125 0 -1.46875 0.40625q-0.765625 0.40625 -1.4375 1.015625l0 17.3125l-4.0 0zm16.767334 0l0 -21.578125l3.984375 0l0 21.578125l-3.984375 0zm0 -24.78125l0 -4.1875l3.984375 0l0 4.1875l-3.984375 0zm14.173157 25.078125q-2.640625 0 -4.015625 -1.0625q-1.359375 -1.0625 -1.828125 -3.0q-0.453125 -1.953125 -0.453125 -4.515625l0 -4.96875q0 -2.71875 0.484375 -4.640625q0.484375 -1.9375 1.84375 -2.953125q1.359375 -1.03125 3.96875 -1.03125q2.359375 0 3.640625 0.765625q1.296875 0.765625 1.78125 2.28125q0.484375 1.515625 0.484375 3.75l0 1.265625l-3.625 0l0 -1.3125q0 -1.40625 -0.1875 -2.21875q-0.1875 -0.828125 -0.671875 -1.203125q-0.484375 -0.375 -1.375 -0.375q-0.96875 0 -1.5 0.453125q-0.515625 0.4375 -0.6875 1.5q-0.171875 1.0625 -0.171875 2.890625l0 6.796875q0 2.765625 0.515625 3.703125q0.53125 0.921875 1.875 0.921875q1.015625 0 1.46875 -0.453125q0.46875 -0.46875 0.59375 -1.328125q0.140625 -0.859375 0.140625 -1.953125l0 -1.75l3.625 0l0 1.5q0 2.15625 -0.515625 3.734375q-0.5 1.5625 -1.78125 2.390625q-1.28125 0.8125 -3.609375 0.8125zm9.560669 -0.296875l0 -30.234375l4.0 0l0 10.890625q1.078125 -1.03125 2.421875 -1.78125q1.34375 -0.75 2.984375 -0.75q1.265625 0 1.953125 0.671875q0.703125 0.671875 0.984375 1.6875q0.28125 1.0 0.28125 2.046875l0 17.46875l-4.0 0l0 -16.3125q0 -1.15625 -0.34375 -1.78125q-0.328125 -0.640625 -1.375 -0.640625q-0.703125 0 -1.46875 0.40625q-0.765625 0.40625 -1.4375 1.015625l0 17.3125l-4.0 0zm30.987366 0.296875q-2.390625 0 -3.78125 -0.96875q-1.375 -0.96875 -1.953125 -2.75q-0.578125 -1.796875 -0.578125 -4.234375l0 -6.265625q0 -2.421875 0.578125 -4.21875q0.578125 -1.796875 1.953125 -2.765625q1.390625 -0.96875 3.78125 -0.96875q2.390625 0 3.75 0.96875q1.359375 0.96875 1.9375 2.765625q0.578125 1.796875 0.578125 4.21875l0 6.265625q0 2.4375 -0.578125 4.234375q-0.578125 1.78125 -1.9375 2.75q-1.359375 0.96875 -3.75 0.96875zm0 -2.953125q1.15625 0 1.625 -0.671875q0.46875 -0.671875 0.5625 -1.765625q0.09375 -1.109375 0.09375 -2.296875l0 -6.75q0 -1.234375 -0.09375 -2.3125q-0.09375 -1.09375 -0.5625 -1.78125q-0.46875 -0.6875 -1.625 -0.6875q-1.15625 0 -1.640625 0.6875q-0.484375 0.6875 -0.578125 1.78125q-0.09375 1.078125 -0.09375 2.3125l0 6.75q0 1.1875 0.09375 2.296875q0.09375 1.09375 0.578125 1.765625q0.484375 0.671875 1.640625 0.671875zm9.927002 2.65625l0 -21.578125l4.0 0l0 2.125q1.078125 -1.0 2.375 -1.703125q1.3125 -0.71875 2.875 -0.71875q1.3125 0 2.0 0.671875q0.6875 0.671875 0.96875 1.6875q0.28125 1.0 0.28125 2.046875l0 17.46875l-3.984375 0l0 -16.3125q0 -1.15625 -0.34375 -1.78125q-0.328125 -0.640625 -1.375 -0.640625q-0.671875 0 -1.40625 0.390625q-0.71875 0.390625 -1.390625 0.953125l0 17.390625l-4.0 0zm22.355835 0.296875q-2.53125 0 -3.921875 -0.984375q-1.375 -1.0 -1.921875 -2.921875q-0.53125 -1.921875 -0.53125 -4.71875l0 -4.921875q0 -2.875 0.546875 -4.78125q0.5625 -1.90625 1.96875 -2.875q1.40625 -0.96875 3.859375 -0.96875q2.734375 0 4.015625 1.125q1.28125 1.109375 1.6875 3.21875q0.421875 2.109375 0.421875 5.0625l0 1.75l-8.515625 0l0 4.328125q0 1.3125 0.234375 2.140625q0.25 0.8125 0.796875 1.203125q0.546875 0.390625 1.40625 0.390625q0.890625 0 1.359375 -0.421875q0.46875 -0.4375 0.625 -1.234375q0.171875 -0.796875 0.171875 -1.890625l0 -1.296875l3.890625 0l0 0.8125q0 3.25 -1.390625 5.125q-1.375 1.859375 -4.703125 1.859375zm-2.390625 -13.171875l4.59375 0l0 -1.9375q0 -1.34375 -0.15625 -2.265625q-0.140625 -0.921875 -0.609375 -1.375q-0.46875 -0.46875 -1.46875 -0.46875q-0.96875 0 -1.484375 0.453125q-0.5 0.4375 -0.6875 1.5q-0.1875 1.0625 -0.1875 2.9375l0 1.15625zm25.685242 13.171875q-2.640625 0 -4.25 -1.65625q-1.609375 -1.671875 -1.828125 -4.390625l3.3125 -1.0q0.296875 2.046875 1.0 3.078125q0.71875 1.015625 2.109375 1.015625q1.078125 0 1.640625 -0.609375q0.5625 -0.609375 0.5625 -1.65625q0 -0.9375 -0.421875 -1.6875q-0.40625 -0.75 -1.34375 -1.53125l-3.6875 -3.171875q-1.125 -0.96875 -1.890625 -2.15625q-0.765625 -1.203125 -0.765625 -3.109375q0 -1.71875 0.6875 -2.890625q0.703125 -1.171875 1.953125 -1.78125q1.25 -0.625 2.921875 -0.625q2.578125 0 3.9375 1.671875q1.359375 1.65625 1.546875 4.0l-2.6875 1.015625q-0.140625 -1.125 -0.4375 -1.96875q-0.296875 -0.84375 -0.828125 -1.296875q-0.515625 -0.46875 -1.375 -0.46875q-0.96875 0 -1.546875 0.65625q-0.578125 0.640625 -0.578125 1.546875q0 0.5625 0.234375 1.109375q0.25 0.53125 0.84375 1.046875l3.796875 3.515625q0.796875 0.703125 1.484375 1.53125q0.6875 0.8125 1.125 1.859375q0.453125 1.046875 0.453125 2.4375q0 1.828125 -0.75 3.0625q-0.734375 1.21875 -2.078125 1.84375q-1.34375 0.609375 -3.140625 0.609375zm9.07016 -0.296875l0 -30.234375l4.0 0l0 10.890625q1.078125 -1.03125 2.421875 -1.78125q1.34375 -0.75 2.984375 -0.75q1.265625 0 1.953125 0.671875q0.703125 0.671875 0.984375 1.6875q0.28125 1.0 0.28125 2.046875l0 17.46875l-4.0 0l0 -16.3125q0 -1.15625 -0.34375 -1.78125q-0.328125 -0.640625 -1.375 -0.640625q-0.703125 0 -1.46875 0.40625q-0.765625 0.40625 -1.4375 1.015625l0 17.3125l-4.0 0zm22.439178 0.296875q-2.390625 0 -3.78125 -0.96875q-1.375 -0.96875 -1.953125 -2.75q-0.578125 -1.796875 -0.578125 -4.234375l0 -6.265625q0 -2.421875 0.578125 -4.21875q0.578125 -1.796875 1.953125 -2.765625q1.390625 -0.96875 3.78125 -0.96875q2.390625 0 3.75 0.96875q1.359375 0.96875 1.9375 2.765625q0.578125 1.796875 0.578125 4.21875l0 6.265625q0 2.4375 -0.578125 4.234375q-0.578125 1.78125 -1.9375 2.75q-1.359375 0.96875 -3.75 0.96875zm0 -2.953125q1.15625 0 1.625 -0.671875q0.46875 -0.671875 0.5625 -1.765625q0.09375 -1.109375 0.09375 -2.296875l0 -6.75q0 -1.234375 -0.09375 -2.3125q-0.09375 -1.09375 -0.5625 -1.78125q-0.46875 -0.6875 -1.625 -0.6875q-1.15625 0 -1.640625 0.6875q-0.484375 0.6875 -0.578125 1.78125q-0.09375 1.078125 -0.09375 2.3125l0 6.75q0 1.1875 0.09375 2.296875q0.09375 1.09375 0.578125 1.765625q0.484375 0.671875 1.640625 0.671875zm12.128357 2.65625l-3.46875 -21.578125l3.28125 0l2.234375 15.90625l2.875 -15.90625l3.0625 0l2.875 15.828125l2.25 -15.828125l3.28125 0l-3.59375 21.578125l-3.359375 0l-2.9375 -15.234375l-2.921875 15.234375l-3.578125 0zm24.449005 0.296875q-2.640625 0 -4.25 -1.65625q-1.609375 -1.671875 -1.828125 -4.390625l3.3125 -1.0q0.296875 2.046875 1.0 3.078125q0.71875 1.015625 2.109375 1.015625q1.078125 0 1.640625 -0.609375q0.5625 -0.609375 0.5625 -1.65625q0 -0.9375 -0.421875 -1.6875q-0.40625 -0.75 -1.34375 -1.53125l-3.6875 -3.171875q-1.125 -0.96875 -1.890625 -2.15625q-0.765625 -1.203125 -0.765625 -3.109375q0 -1.71875 0.6875 -2.890625q0.703125 -1.171875 1.953125 -1.78125q1.25 -0.625 2.921875 -0.625q2.578125 0 3.9375 1.671875q1.359375 1.65625 1.546875 4.0l-2.6875 1.015625q-0.140625 -1.125 -0.4375 -1.96875q-0.296875 -0.84375 -0.828125 -1.296875q-0.515625 -0.46875 -1.375 -0.46875q-0.96875 0 -1.546875 0.65625q-0.578125 0.640625 -0.578125 1.546875q0 0.5625 0.234375 1.109375q0.25 0.53125 0.84375 1.046875l3.796875 3.515625q0.796875 0.703125 1.484375 1.53125q0.6875 0.8125 1.125 1.859375q0.453125 1.046875 0.453125 2.4375q0 1.828125 -0.75 3.0625q-0.734375 1.21875 -2.078125 1.84375q-1.34375 0.609375 -3.140625 0.609375zm25.243347 0q-1.171875 0 -2.09375 -0.578125q-0.90625 -0.578125 -1.578125 -1.28125l0 1.5625l-3.984375 0l0 -30.234375l3.984375 0l0 10.375q0.71875 -0.828125 1.703125 -1.421875q0.984375 -0.59375 2.375 -0.59375q1.671875 0 2.65625 0.875q1.0 0.875 1.484375 2.203125q0.484375 1.328125 0.625 2.6875q0.15625 1.359375 0.15625 2.328125l0 5.234375q0 2.28125 -0.453125 4.3125q-0.4375 2.03125 -1.59375 3.28125q-1.15625 1.25 -3.28125 1.25zm-0.828125 -3.140625q1.046875 0 1.484375 -0.765625q0.453125 -0.765625 0.5625 -2.0625q0.125 -1.3125 0.125 -2.875l0 -5.234375q0 -1.34375 -0.15625 -2.46875q-0.15625 -1.140625 -0.640625 -1.8125q-0.484375 -0.671875 -1.53125 -0.671875q-0.78125 0 -1.46875 0.34375q-0.6875 0.328125 -1.21875 0.734375l0 13.84375q0.53125 0.421875 1.25 0.703125q0.734375 0.265625 1.59375 0.265625zm15.74823 3.140625q-2.53125 0 -3.921875 -0.984375q-1.375 -1.0 -1.921875 -2.921875q-0.53125 -1.921875 -0.53125 -4.71875l0 -4.921875q0 -2.875 0.546875 -4.78125q0.5625 -1.90625 1.96875 -2.875q1.40625 -0.96875 3.859375 -0.96875q2.734375 0 4.015625 1.125q1.28125 1.109375 1.6875 3.21875q0.421875 2.109375 0.421875 5.0625l0 1.75l-8.515625 0l0 4.328125q0 1.3125 0.234375 2.140625q0.25 0.8125 0.796875 1.203125q0.546875 0.390625 1.40625 0.390625q0.890625 0 1.359375 -0.421875q0.46875 -0.4375 0.625 -1.234375q0.171875 -0.796875 0.171875 -1.890625l0 -1.296875l3.890625 0l0 0.8125q0 3.25 -1.390625 5.125q-1.375 1.859375 -4.703125 1.859375zm-2.390625 -13.171875l4.59375 0l0 -1.9375q0 -1.34375 -0.15625 -2.265625q-0.140625 -0.921875 -0.609375 -1.375q-0.46875 -0.46875 -1.46875 -0.46875q-0.96875 0 -1.484375 0.453125q-0.5 0.4375 -0.6875 1.5q-0.1875 1.0625 -0.1875 2.9375l0 1.15625zm17.887085 13.171875q-1.6875 0 -2.71875 -0.625q-1.015625 -0.640625 -1.484375 -1.796875q-0.46875 -1.15625 -0.46875 -2.734375l0 -14.0625l-2.265625 0l0 -2.65625l2.265625 0l0 -6.3125l4.0 0l0 6.3125l3.46875 0l0 2.65625l-3.46875 0l0 13.8125q0 1.265625 0.40625 1.8125q0.40625 0.53125 1.578125 0.53125q0.296875 0 0.6875 -0.03125q0.390625 -0.046875 0.765625 -0.078125l0 2.953125q-0.75 0.109375 -1.390625 0.15625q-0.625 0.0625 -1.375 0.0625zm11.49707 0q-1.6875 0 -2.71875 -0.625q-1.015625 -0.640625 -1.484375 -1.796875q-0.46875 -1.15625 -0.46875 -2.734375l0 -14.0625l-2.265625 0l0 -2.65625l2.265625 0l0 -6.3125l4.0 0l0 6.3125l3.46875 0l0 2.65625l-3.46875 0l0 13.8125q0 1.265625 0.40625 1.8125q0.40625 0.53125 1.578125 0.53125q0.296875 0 0.6875 -0.03125q0.390625 -0.046875 0.765625 -0.078125l0 2.953125q-0.75 0.109375 -1.390625 0.15625q-0.625 0.0625 -1.375 0.0625zm11.715881 0q-2.53125 0 -3.921875 -0.984375q-1.375 -1.0 -1.921875 -2.921875q-0.53125 -1.921875 -0.53125 -4.71875l0 -4.921875q0 -2.875 0.546875 -4.78125q0.5625 -1.90625 1.96875 -2.875q1.40625 -0.96875 3.859375 -0.96875q2.734375 0 4.015625 1.125q1.28125 1.109375 1.6875 3.21875q0.421875 2.109375 0.421875 5.0625l0 1.75l-8.515625 0l0 4.328125q0 1.3125 0.234375 2.140625q0.25 0.8125 0.796875 1.203125q0.546875 0.390625 1.40625 0.390625q0.890625 0 1.359375 -0.421875q0.46875 -0.4375 0.625 -1.234375q0.171875 -0.796875 0.171875 -1.890625l0 -1.296875l3.890625 0l0 0.8125q0 3.25 -1.390625 5.125q-1.375 1.859375 -4.703125 1.859375zm-2.390625 -13.171875l4.59375 0l0 -1.9375q0 -1.34375 -0.15625 -2.265625q-0.140625 -0.921875 -0.609375 -1.375q-0.46875 -0.46875 -1.46875 -0.46875q-0.96875 0 -1.484375 0.453125q-0.5 0.4375 -0.6875 1.5q-0.1875 1.0625 -0.1875 2.9375l0 1.15625zm12.24646 12.875l0 -21.578125l4.0 0l0 3.0625q1.1875 -1.984375 2.375 -2.65625q1.203125 -0.671875 2.40625 -0.671875q0.140625 0 0.265625 0q0.140625 0 0.359375 0.046875l0 4.40625q-0.4375 -0.1875 -1.03125 -0.3125q-0.578125 -0.140625 -1.171875 -0.140625q-0.921875 0 -1.6875 0.4375q-0.765625 0.421875 -1.515625 1.65625l0 15.75l-4.0 0zm28.155518 0.296875q-1.171875 0 -2.09375 -0.578125q-0.90625 -0.578125 -1.578125 -1.28125l0 1.5625l-3.984375 0l0 -30.234375l3.984375 0l0 10.375q0.71875 -0.828125 1.703125 -1.421875q0.984375 -0.59375 2.375 -0.59375q1.671875 0 2.65625 0.875q1.0 0.875 1.484375 2.203125q0.484375 1.328125 0.625 2.6875q0.15625 1.359375 0.15625 2.328125l0 5.234375q0 2.28125 -0.453125 4.3125q-0.4375 2.03125 -1.59375 3.28125q-1.15625 1.25 -3.28125 1.25zm-0.828125 -3.140625q1.046875 0 1.484375 -0.765625q0.453125 -0.765625 0.5625 -2.0625q0.125 -1.3125 0.125 -2.875l0 -5.234375q0 -1.34375 -0.15625 -2.46875q-0.15625 -1.140625 -0.640625 -1.8125q-0.484375 -0.671875 -1.53125 -0.671875q-0.78125 0 -1.46875 0.34375q-0.6875 0.328125 -1.21875 0.734375l0 13.84375q0.53125 0.421875 1.25 0.703125q0.734375 0.265625 1.59375 0.265625zm15.74823 3.140625q-2.53125 0 -3.921875 -0.984375q-1.375 -1.0 -1.921875 -2.921875q-0.53125 -1.921875 -0.53125 -4.71875l0 -4.921875q0 -2.875 0.546875 -4.78125q0.5625 -1.90625 1.96875 -2.875q1.40625 -0.96875 3.859375 -0.96875q2.734375 0 4.015625 1.125q1.28125 1.109375 1.6875 3.21875q0.421875 2.109375 0.421875 5.0625l0 1.75l-8.515625 0l0 4.328125q0 1.3125 0.234375 2.140625q0.25 0.8125 0.796875 1.203125q0.546875 0.390625 1.40625 0.390625q0.890625 0 1.359375 -0.421875q0.46875 -0.4375 0.625 -1.234375q0.171875 -0.796875 0.171875 -1.890625l0 -1.296875l3.890625 0l0 0.8125q0 3.25 -1.390625 5.125q-1.375 1.859375 -4.703125 1.859375zm-2.390625 -13.171875l4.59375 0l0 -1.9375q0 -1.34375 -0.15625 -2.265625q-0.140625 -0.921875 -0.609375 -1.375q-0.46875 -0.46875 -1.46875 -0.46875q-0.96875 0 -1.484375 0.453125q-0.5 0.4375 -0.6875 1.5q-0.1875 1.0625 -0.1875 2.9375l0 1.15625zm12.24646 12.875l0 -30.234375l4.0 0l0 10.890625q1.078125 -1.03125 2.421875 -1.78125q1.34375 -0.75 2.984375 -0.75q1.265625 0 1.953125 0.671875q0.703125 0.671875 0.984375 1.6875q0.28125 1.0 0.28125 2.046875l0 17.46875l-4.0 0l0 -16.3125q0 -1.15625 -0.34375 -1.78125q-0.328125 -0.640625 -1.375 -0.640625q-0.703125 0 -1.46875 0.40625q-0.765625 0.40625 -1.4375 1.015625l0 17.3125l-4.0 0zm20.376709 0.296875q-1.265625 0 -2.234375 -0.71875q-0.96875 -0.734375 -1.53125 -1.875q-0.5625 -1.140625 -0.5625 -2.40625q0 -2.015625 0.671875 -3.390625q0.671875 -1.390625 1.84375 -2.34375q1.1875 -0.953125 2.734375 -1.65625q1.546875 -0.703125 3.265625 -1.375l0 -1.53125q0 -1.3125 -0.15625 -2.171875q-0.140625 -0.859375 -0.609375 -1.28125q-0.46875 -0.4375 -1.40625 -0.4375q-0.8125 0 -1.328125 0.375q-0.5 0.375 -0.71875 1.0625q-0.21875 0.6875 -0.21875 1.625l0 1.078125l-3.953125 -0.140625q0.0625 -3.59375 1.625 -5.28125q1.578125 -1.703125 4.859375 -1.703125q3.21875 0 4.5625 1.765625q1.34375 1.75 1.34375 5.0625l0 9.859375q0 1.0 0.046875 1.9375q0.0625 0.9375 0.15625 1.75q0.09375 0.796875 0.171875 1.5l-3.671875 0q-0.109375 -0.59375 -0.28125 -1.5q-0.15625 -0.921875 -0.234375 -1.671875q-0.375 1.265625 -1.4375 2.375q-1.0625 1.09375 -2.9375 1.09375zm1.578125 -3.4375q0.59375 0 1.109375 -0.328125q0.53125 -0.34375 0.9375 -0.765625q0.40625 -0.4375 0.5625 -0.6875l0 -6.125q-0.9375 0.515625 -1.765625 1.046875q-0.8125 0.515625 -1.4375 1.09375q-0.609375 0.578125 -0.96875 1.3125q-0.34375 0.71875 -0.34375 1.65625q0 1.3125 0.484375 2.0625q0.484375 0.734375 1.421875 0.734375zm13.245544 3.140625l-4.25 -21.578125l4.03125 0l2.640625 17.359375l2.6875 -17.359375l3.890625 0l-4.109375 21.578125l-4.890625 0zm11.840149 0l0 -21.578125l3.984375 0l0 21.578125l-3.984375 0zm0 -24.78125l0 -4.1875l3.984375 0l0 4.1875l-3.984375 0zm14.219971 25.078125q-2.390625 0 -3.78125 -0.96875q-1.375 -0.96875 -1.953125 -2.75q-0.578125 -1.796875 -0.578125 -4.234375l0 -6.265625q0 -2.421875 0.578125 -4.21875q0.578125 -1.796875 1.953125 -2.765625q1.390625 -0.96875 3.78125 -0.96875q2.390625 0 3.75 0.96875q1.359375 0.96875 1.9375 2.765625q0.578125 1.796875 0.578125 4.21875l0 6.265625q0 2.4375 -0.578125 4.234375q-0.578125 1.78125 -1.9375 2.75q-1.359375 0.96875 -3.75 0.96875zm0 -2.953125q1.15625 0 1.625 -0.671875q0.46875 -0.671875 0.5625 -1.765625q0.09375 -1.109375 0.09375 -2.296875l0 -6.75q0 -1.234375 -0.09375 -2.3125q-0.09375 -1.09375 -0.5625 -1.78125q-0.46875 -0.6875 -1.625 -0.6875q-1.15625 0 -1.640625 0.6875q-0.484375 0.6875 -0.578125 1.78125q-0.09375 1.078125 -0.09375 2.3125l0 6.75q0 1.1875 0.09375 2.296875q0.09375 1.09375 0.578125 1.765625q0.484375 0.671875 1.640625 0.671875zm13.020752 2.953125q-1.265625 0 -1.984375 -0.671875q-0.703125 -0.671875 -0.984375 -1.671875q-0.28125 -1.015625 -0.28125 -2.0625l0 -17.46875l4.0 0l0 16.28125q0 1.15625 0.328125 1.8125q0.34375 0.640625 1.390625 0.640625q0.671875 0 1.390625 -0.390625q0.734375 -0.390625 1.40625 -0.953125l0 -17.390625l4.0 0l0 21.578125l-4.0 0l0 -2.125q-1.046875 1.0 -2.375 1.71875q-1.3125 0.703125 -2.890625 0.703125zm13.440063 -0.296875l0 -21.578125l4.0 0l0 3.0625q1.1875 -1.984375 2.375 -2.65625q1.203125 -0.671875 2.40625 -0.671875q0.140625 0 0.265625 0q0.140625 0 0.359375 0.046875l0 4.40625q-0.4375 -0.1875 -1.03125 -0.3125q-0.578125 -0.140625 -1.171875 -0.140625q-0.921875 0 -1.6875 0.4375q-0.765625 0.421875 -1.515625 1.65625l0 15.75l-4.0 0zm11.685547 0l0 -4.4375l4.0 0l0 4.4375l-4.0 0z" fill-rule="nonzero"/><path fill="#666666" d="m224.73332 349.05103l0 -30.234375l4.140625 0l0 30.234375l-4.140625 0zm9.9605255 0l0 -18.625l-2.578125 0l0 -2.953125l2.578125 0l0 -1.125q0 -2.015625 0.3125 -3.4375q0.328125 -1.4375 1.328125 -2.21875q1.015625 -0.796875 3.03125 -0.796875q0.75 0 1.328125 0.0625q0.578125 0.046875 1.28125 0.203125l0 2.90625q-0.328125 -0.078125 -0.75 -0.125q-0.40625 -0.0625 -0.734375 -0.0625q-1.171875 0 -1.484375 0.765625q-0.3125 0.765625 -0.3125 2.03125l0 1.796875l3.28125 0l0 2.953125l-3.28125 0l0 18.625l-4.0 0zm17.667633 5.40625l0 -3.046875q1.453125 0 2.3125 -0.140625q0.859375 -0.125 1.21875 -0.484375q0.375 -0.359375 0.375 -0.984375q0 -0.34375 -0.265625 -1.5q-0.25 -1.15625 -0.546875 -2.453125l-4.328125 -18.375l4.03125 0l2.90625 16.125l2.796875 -16.125l4.03125 0l-5.140625 22.765625q-0.34375 1.578125 -1.25 2.484375q-0.890625 0.921875 -2.296875 1.328125q-1.390625 0.40625 -3.359375 0.40625l-0.484375 0zm20.898285 -5.109375q-2.390625 0 -3.78125 -0.96875q-1.375 -0.96875 -1.953125 -2.75q-0.578125 -1.796875 -0.578125 -4.234375l0 -6.265625q0 -2.421875 0.578125 -4.21875q0.578125 -1.796875 1.953125 -2.765625q1.390625 -0.96875 3.78125 -0.96875q2.390625 0 3.75 0.96875q1.359375 0.96875 1.9375 2.765625q0.578125 1.796875 0.578125 4.21875l0 6.265625q0 2.4375 -0.578125 4.234375q-0.578125 1.78125 -1.9375 2.75q-1.359375 0.96875 -3.75 0.96875zm0 -2.953125q1.15625 0 1.625 -0.671875q0.46875 -0.671875 0.5625 -1.765625q0.09375 -1.109375 0.09375 -2.296875l0 -6.75q0 -1.234375 -0.09375 -2.3125q-0.09375 -1.09375 -0.5625 -1.78125q-0.46875 -0.6875 -1.625 -0.6875q-1.15625 0 -1.640625 0.6875q-0.484375 0.6875 -0.578125 1.78125q-0.09375 1.078125 -0.09375 2.3125l0 6.75q0 1.1875 0.09375 2.296875q0.09375 1.09375 0.578125 1.765625q0.484375 0.671875 1.640625 0.671875zm13.020752 2.953125q-1.265625 0 -1.984375 -0.671875q-0.703125 -0.671875 -0.984375 -1.671875q-0.28125 -1.015625 -0.28125 -2.0625l0 -17.46875l4.0 0l0 16.28125q0 1.15625 0.328125 1.8125q0.34375 0.640625 1.390625 0.640625q0.671875 0 1.390625 -0.390625q0.734375 -0.390625 1.40625 -0.953125l0 -17.390625l4.0 0l0 21.578125l-4.0 0l0 -2.125q-1.046875 1.0 -2.375 1.71875q-1.3125 0.703125 -2.890625 0.703125zm25.753845 0q-1.265625 0 -2.234375 -0.71875q-0.96875 -0.734375 -1.53125 -1.875q-0.5625 -1.140625 -0.5625 -2.40625q0 -2.015625 0.671875 -3.390625q0.671875 -1.390625 1.84375 -2.34375q1.1875 -0.953125 2.734375 -1.65625q1.546875 -0.703125 3.265625 -1.375l0 -1.53125q0 -1.3125 -0.15625 -2.171875q-0.140625 -0.859375 -0.609375 -1.28125q-0.46875 -0.4375 -1.40625 -0.4375q-0.8125 0 -1.328125 0.375q-0.5 0.375 -0.71875 1.0625q-0.21875 0.6875 -0.21875 1.625l0 1.078125l-3.953125 -0.140625q0.0625 -3.59375 1.625 -5.28125q1.578125 -1.703125 4.859375 -1.703125q3.21875 0 4.5625 1.765625q1.34375 1.75 1.34375 5.0625l0 9.859375q0 1.0 0.046875 1.9375q0.0625 0.9375 0.15625 1.75q0.09375 0.796875 0.171875 1.5l-3.671875 0q-0.109375 -0.59375 -0.28125 -1.5q-0.15625 -0.921875 -0.234375 -1.671875q-0.375 1.265625 -1.4375 2.375q-1.0625 1.09375 -2.9375 1.09375zm1.578125 -3.4375q0.59375 0 1.109375 -0.328125q0.53125 -0.34375 0.9375 -0.765625q0.40625 -0.4375 0.5625 -0.6875l0 -6.125q-0.9375 0.515625 -1.765625 1.046875q-0.8125 0.515625 -1.4375 1.09375q-0.609375 0.578125 -0.96875 1.3125q-0.34375 0.71875 -0.34375 1.65625q0 1.3125 0.484375 2.0625q0.484375 0.734375 1.421875 0.734375zm10.558075 3.140625l0 -21.578125l4.0 0l0 3.0625q1.1875 -1.984375 2.375 -2.65625q1.203125 -0.671875 2.40625 -0.671875q0.140625 0 0.265625 0q0.140625 0 0.359375 0.046875l0 4.40625q-0.4375 -0.1875 -1.03125 -0.3125q-0.578125 -0.140625 -1.171875 -0.140625q-0.921875 0 -1.6875 0.4375q-0.765625 0.421875 -1.515625 1.65625l0 15.75l-4.0 0zm17.841736 0.296875q-2.53125 0 -3.921875 -0.984375q-1.375 -1.0 -1.921875 -2.921875q-0.53125 -1.921875 -0.53125 -4.71875l0 -4.921875q0 -2.875 0.546875 -4.78125q0.5625 -1.90625 1.96875 -2.875q1.40625 -0.96875 3.859375 -0.96875q2.734375 0 4.015625 1.125q1.28125 1.109375 1.6875 3.21875q0.421875 2.109375 0.421875 5.0625l0 1.75l-8.515625 0l0 4.328125q0 1.3125 0.234375 2.140625q0.25 0.8125 0.796875 1.203125q0.546875 0.390625 1.40625 0.390625q0.890625 0 1.359375 -0.421875q0.46875 -0.4375 0.625 -1.234375q0.171875 -0.796875 0.171875 -1.890625l0 -1.296875l3.890625 0l0 0.8125q0 3.25 -1.390625 5.125q-1.375 1.859375 -4.703125 1.859375zm-2.390625 -13.171875l4.59375 0l0 -1.9375q0 -1.34375 -0.15625 -2.265625q-0.140625 -0.921875 -0.609375 -1.375q-0.46875 -0.46875 -1.46875 -0.46875q-0.96875 0 -1.484375 0.453125q-0.5 0.4375 -0.6875 1.5q-0.1875 1.0625 -0.1875 2.9375l0 1.15625zm23.778992 13.171875q-1.265625 0 -1.984375 -0.671875q-0.703125 -0.671875 -0.984375 -1.671875q-0.28125 -1.015625 -0.28125 -2.0625l0 -17.46875l4.0 0l0 16.28125q0 1.15625 0.328125 1.8125q0.34375 0.640625 1.390625 0.640625q0.671875 0 1.390625 -0.390625q0.734375 -0.390625 1.40625 -0.953125l0 -17.390625l4.0 0l0 21.578125l-4.0 0l0 -2.125q-1.046875 1.0 -2.375 1.71875q-1.3125 0.703125 -2.890625 0.703125zm13.330688 -0.296875l0 -21.578125l4.0 0l0 2.125q1.078125 -1.0 2.375 -1.703125q1.3125 -0.71875 2.875 -0.71875q1.3125 0 2.0 0.671875q0.6875 0.671875 0.96875 1.6875q0.28125 1.0 0.28125 2.046875l0 17.46875l-3.984375 0l0 -16.3125q0 -1.15625 -0.34375 -1.78125q-0.328125 -0.640625 -1.375 -0.640625q-0.671875 0 -1.40625 0.390625q-0.71875 0.390625 -1.390625 0.953125l0 17.390625l-4.0 0zm21.387085 0.296875q-2.640625 0 -4.25 -1.65625q-1.609375 -1.671875 -1.828125 -4.390625l3.3125 -1.0q0.296875 2.046875 1.0 3.078125q0.71875 1.015625 2.109375 1.015625q1.078125 0 1.640625 -0.609375q0.5625 -0.609375 0.5625 -1.65625q0 -0.9375 -0.421875 -1.6875q-0.40625 -0.75 -1.34375 -1.53125l-3.6875 -3.171875q-1.125 -0.96875 -1.890625 -2.15625q-0.765625 -1.203125 -0.765625 -3.109375q0 -1.71875 0.6875 -2.890625q0.703125 -1.171875 1.953125 -1.78125q1.25 -0.625 2.921875 -0.625q2.578125 0 3.9375 1.671875q1.359375 1.65625 1.546875 4.0l-2.6875 1.015625q-0.140625 -1.125 -0.4375 -1.96875q-0.296875 -0.84375 -0.828125 -1.296875q-0.515625 -0.46875 -1.375 -0.46875q-0.96875 0 -1.546875 0.65625q-0.578125 0.640625 -0.578125 1.546875q0 0.5625 0.234375 1.109375q0.25 0.53125 0.84375 1.046875l3.796875 3.515625q0.796875 0.703125 1.484375 1.53125q0.6875 0.8125 1.125 1.859375q0.453125 1.046875 0.453125 2.4375q0 1.828125 -0.75 3.0625q-0.734375 1.21875 -2.078125 1.84375q-1.34375 0.609375 -3.140625 0.609375zm12.054535 0q-1.265625 0 -1.984375 -0.671875q-0.703125 -0.671875 -0.984375 -1.671875q-0.28125 -1.015625 -0.28125 -2.0625l0 -17.46875l4.0 0l0 16.28125q0 1.15625 0.328125 1.8125q0.34375 0.640625 1.390625 0.640625q0.671875 0 1.390625 -0.390625q0.734375 -0.390625 1.40625 -0.953125l0 -17.390625l4.0 0l0 21.578125l-4.0 0l0 -2.125q-1.046875 1.0 -2.375 1.71875q-1.3125 0.703125 -2.890625 0.703125zm13.440033 -0.296875l0 -21.578125l4.0 0l0 3.0625q1.1875 -1.984375 2.375 -2.65625q1.203125 -0.671875 2.40625 -0.671875q0.140625 0 0.265625 0q0.140625 0 0.359375 0.046875l0 4.40625q-0.4375 -0.1875 -1.03125 -0.3125q-0.578125 -0.140625 -1.171875 -0.140625q-0.921875 0 -1.6875 0.4375q-0.765625 0.421875 -1.515625 1.65625l0 15.75l-4.0 0zm17.841736 0.296875q-2.53125 0 -3.921875 -0.984375q-1.375 -1.0 -1.921875 -2.921875q-0.53125 -1.921875 -0.53125 -4.71875l0 -4.921875q0 -2.875 0.546875 -4.78125q0.5625 -1.90625 1.96875 -2.875q1.40625 -0.96875 3.859375 -0.96875q2.734375 0 4.015625 1.125q1.28125 1.109375 1.6875 3.21875q0.421875 2.109375 0.421875 5.0625l0 1.75l-8.515625 0l0 4.328125q0 1.3125 0.234375 2.140625q0.25 0.8125 0.796875 1.203125q0.546875 0.390625 1.40625 0.390625q0.890625 0 1.359375 -0.421875q0.46875 -0.4375 0.625 -1.234375q0.171875 -0.796875 0.171875 -1.890625l0 -1.296875l3.890625 0l0 0.8125q0 3.25 -1.390625 5.125q-1.375 1.859375 -4.703125 1.859375zm-2.390625 -13.171875l4.59375 0l0 -1.9375q0 -1.34375 -0.15625 -2.265625q-0.140625 -0.921875 -0.609375 -1.375q-0.46875 -0.46875 -1.46875 -0.46875q-0.96875 0 -1.484375 0.453125q-0.5 0.4375 -0.6875 1.5q-0.1875 1.0625 -0.1875 2.9375l0 1.15625zm12.246429 17.765625l-0.625 -1.71875q1.0 -0.328125 1.578125 -1.171875q0.578125 -0.84375 0.578125 -2.0l-2.125 0l0 -4.296875l4.109375 0l0 4.21875q0 1.984375 -0.859375 3.15625q-0.859375 1.171875 -2.65625 1.8125zm21.309814 -4.59375q-2.640625 0 -4.015625 -1.0625q-1.359375 -1.0625 -1.828125 -3.0q-0.453125 -1.953125 -0.453125 -4.515625l0 -4.96875q0 -2.71875 0.484375 -4.640625q0.484375 -1.9375 1.84375 -2.953125q1.359375 -1.03125 3.96875 -1.03125q2.359375 0 3.640625 0.765625q1.296875 0.765625 1.78125 2.28125q0.484375 1.515625 0.484375 3.75l0 1.265625l-3.625 0l0 -1.3125q0 -1.40625 -0.1875 -2.21875q-0.1875 -0.828125 -0.671875 -1.203125q-0.484375 -0.375 -1.375 -0.375q-0.96875 0 -1.5 0.453125q-0.515625 0.4375 -0.6875 1.5q-0.171875 1.0625 -0.171875 2.890625l0 6.796875q0 2.765625 0.515625 3.703125q0.53125 0.921875 1.875 0.921875q1.015625 0 1.46875 -0.453125q0.46875 -0.46875 0.59375 -1.328125q0.140625 -0.859375 0.140625 -1.953125l0 -1.75l3.625 0l0 1.5q0 2.15625 -0.515625 3.734375q-0.5 1.5625 -1.78125 2.390625q-1.28125 0.8125 -3.609375 0.8125zm9.826263 -0.296875l0 -30.234375l4.0 0l0 30.234375l-4.0 0zm8.438782 0l0 -21.578125l3.984375 0l0 21.578125l-3.984375 0zm0 -24.78125l0 -4.1875l3.984375 0l0 4.1875l-3.984375 0zm14.173157 25.078125q-2.640625 0 -4.015625 -1.0625q-1.359375 -1.0625 -1.828125 -3.0q-0.453125 -1.953125 -0.453125 -4.515625l0 -4.96875q0 -2.71875 0.484375 -4.640625q0.484375 -1.9375 1.84375 -2.953125q1.359375 -1.03125 3.96875 -1.03125q2.359375 0 3.640625 0.765625q1.296875 0.765625 1.78125 2.28125q0.484375 1.515625 0.484375 3.75l0 1.265625l-3.625 0l0 -1.3125q0 -1.40625 -0.1875 -2.21875q-0.1875 -0.828125 -0.671875 -1.203125q-0.484375 -0.375 -1.375 -0.375q-0.96875 0 -1.5 0.453125q-0.515625 0.4375 -0.6875 1.5q-0.171875 1.0625 -0.171875 2.890625l0 6.796875q0 2.765625 0.515625 3.703125q0.53125 0.921875 1.875 0.921875q1.015625 0 1.46875 -0.453125q0.46875 -0.46875 0.59375 -1.328125q0.140625 -0.859375 0.140625 -1.953125l0 -1.75l3.625 0l0 1.5q0 2.15625 -0.515625 3.734375q-0.5 1.5625 -1.78125 2.390625q-1.28125 0.8125 -3.609375 0.8125zm9.529449 -0.328125l0 -30.234375l3.984375 0l0 18.015625l5.828125 -9.328125l4.1875 0l-5.078125 8.4375l4.921875 13.140625l-4.0 0l-4.03125 -11.046875l-1.828125 2.765625l0 8.25l-3.984375 0zm30.233826 0.328125q-1.6875 0 -2.71875 -0.625q-1.015625 -0.640625 -1.484375 -1.796875q-0.46875 -1.15625 -0.46875 -2.734375l0 -14.0625l-2.265625 0l0 -2.65625l2.265625 0l0 -6.3125l4.0 0l0 6.3125l3.46875 0l0 2.65625l-3.46875 0l0 13.8125q0 1.265625 0.40625 1.8125q0.40625 0.53125 1.578125 0.53125q0.296875 0 0.6875 -0.03125q0.390625 -0.046875 0.765625 -0.078125l0 2.953125q-0.75 0.109375 -1.390625 0.15625q-0.625 0.0625 -1.375 0.0625zm5.8564453 -0.296875l0 -30.234375l4.0 0l0 10.890625q1.078125 -1.03125 2.421875 -1.78125q1.34375 -0.75 2.984375 -0.75q1.265625 0 1.953125 0.671875q0.703125 0.671875 0.984375 1.6875q0.28125 1.0 0.28125 2.046875l0 17.46875l-4.0 0l0 -16.3125q0 -1.15625 -0.34375 -1.78125q-0.328125 -0.640625 -1.375 -0.640625q-0.703125 0 -1.46875 0.40625q-0.765625 0.40625 -1.4375 1.015625l0 17.3125l-4.0 0zm22.470459 0.296875q-2.53125 0 -3.921875 -0.984375q-1.375 -1.0 -1.921875 -2.921875q-0.53125 -1.921875 -0.53125 -4.71875l0 -4.921875q0 -2.875 0.546875 -4.78125q0.5625 -1.90625 1.96875 -2.875q1.40625 -0.96875 3.859375 -0.96875q2.734375 0 4.015625 1.125q1.28125 1.109375 1.6875 3.21875q0.421875 2.109375 0.421875 5.0625l0 1.75l-8.515625 0l0 4.328125q0 1.3125 0.234375 2.140625q0.25 0.8125 0.796875 1.203125q0.546875 0.390625 1.40625 0.390625q0.890625 0 1.359375 -0.421875q0.46875 -0.4375 0.625 -1.234375q0.171875 -0.796875 0.171875 -1.890625l0 -1.296875l3.890625 0l0 0.8125q0 3.25 -1.390625 5.125q-1.375 1.859375 -4.703125 1.859375zm-2.390625 -13.171875l4.59375 0l0 -1.9375q0 -1.34375 -0.15625 -2.265625q-0.140625 -0.921875 -0.609375 -1.375q-0.46875 -0.46875 -1.46875 -0.46875q-0.96875 0 -1.484375 0.453125q-0.5 0.4375 -0.6875 1.5q-0.1875 1.0625 -0.1875 2.9375l0 1.15625zm19.825867 -8.734375q0 -0.90625 0 -1.8125q0 -0.921875 0 -1.8125q0 -2.875 0.8125 -4.515625q0.828125 -1.640625 2.890625 -1.71875l0.703125 1.453125q-1.15625 0.109375 -1.59375 1.109375q-0.421875 0.984375 -0.421875 3.109375l1.984375 0l0 4.1875l-4.375 0zm6.5625 0q0 -0.90625 0 -1.8125q0 -0.921875 0 -1.8125q0 -2.875 0.8125 -4.515625q0.828125 -1.640625 2.890625 -1.71875l0.703125 1.453125q-1.15625 0.109375 -1.59375 1.109375q-0.421875 0.984375 -0.421875 3.109375l1.984375 0l0 4.1875l-4.375 0zm14.521545 21.90625q-2.640625 0 -4.015625 -1.0625q-1.359375 -1.0625 -1.828125 -3.0q-0.453125 -1.953125 -0.453125 -4.515625l0 -4.96875q0 -2.71875 0.484375 -4.640625q0.484375 -1.9375 1.84375 -2.953125q1.359375 -1.03125 3.96875 -1.03125q2.359375 0 3.640625 0.765625q1.296875 0.765625 1.78125 2.28125q0.484375 1.515625 0.484375 3.75l0 1.265625l-3.625 0l0 -1.3125q0 -1.40625 -0.1875 -2.21875q-0.1875 -0.828125 -0.671875 -1.203125q-0.484375 -0.375 -1.375 -0.375q-0.96875 0 -1.5 0.453125q-0.515625 0.4375 -0.6875 1.5q-0.171875 1.0625 -0.171875 2.890625l0 6.796875q0 2.765625 0.515625 3.703125q0.53125 0.921875 1.875 0.921875q1.015625 0 1.46875 -0.453125q0.46875 -0.46875 0.59375 -1.328125q0.140625 -0.859375 0.140625 -1.953125l0 -1.75l3.625 0l0 1.5q0 2.15625 -0.515625 3.734375q-0.5 1.5625 -1.78125 2.390625q-1.28125 0.8125 -3.609375 0.8125zm13.326294 0q-1.265625 0 -2.234375 -0.71875q-0.96875 -0.734375 -1.53125 -1.875q-0.5625 -1.140625 -0.5625 -2.40625q0 -2.015625 0.671875 -3.390625q0.671875 -1.390625 1.84375 -2.34375q1.1875 -0.953125 2.734375 -1.65625q1.546875 -0.703125 3.265625 -1.375l0 -1.53125q0 -1.3125 -0.15625 -2.171875q-0.140625 -0.859375 -0.609375 -1.28125q-0.46875 -0.4375 -1.40625 -0.4375q-0.8125 0 -1.328125 0.375q-0.5 0.375 -0.71875 1.0625q-0.21875 0.6875 -0.21875 1.625l0 1.078125l-3.953125 -0.140625q0.0625 -3.59375 1.625 -5.28125q1.578125 -1.703125 4.859375 -1.703125q3.21875 0 4.5625 1.765625q1.34375 1.75 1.34375 5.0625l0 9.859375q0 1.0 0.046875 1.9375q0.0625 0.9375 0.15625 1.75q0.09375 0.796875 0.171875 1.5l-3.671875 0q-0.109375 -0.59375 -0.28125 -1.5q-0.15625 -0.921875 -0.234375 -1.671875q-0.375 1.265625 -1.4375 2.375q-1.0625 1.09375 -2.9375 1.09375zm1.578125 -3.4375q0.59375 0 1.109375 -0.328125q0.53125 -0.34375 0.9375 -0.765625q0.40625 -0.4375 0.5625 -0.6875l0 -6.125q-0.9375 0.515625 -1.765625 1.046875q-0.8125 0.515625 -1.4375 1.09375q-0.609375 0.578125 -0.96875 1.3125q-0.34375 0.71875 -0.34375 1.65625q0 1.3125 0.484375 2.0625q0.484375 0.734375 1.421875 0.734375zm10.448669 3.140625l0 -21.578125l4.0 0l0 2.125q1.078125 -1.0 2.375 -1.703125q1.3125 -0.71875 2.875 -0.71875q1.3125 0 2.0 0.671875q0.6875 0.671875 0.96875 1.6875q0.28125 1.0 0.28125 2.046875l0 17.46875l-3.984375 0l0 -16.3125q0 -1.15625 -0.34375 -1.78125q-0.328125 -0.640625 -1.375 -0.640625q-0.671875 0 -1.40625 0.390625q-0.71875 0.390625 -1.390625 0.953125l0 17.390625l-4.0 0zm17.277771 -20.34375l-0.703125 -1.5q1.15625 -0.0625 1.578125 -1.0625q0.4375 -1.015625 0.4375 -3.109375l-1.984375 0l0 -4.21875l4.375 0q0 0.890625 0 1.8125q0 0.90625 0 1.8125q0 2.90625 -0.828125 4.53125q-0.8125 1.625 -2.875 1.734375zm12.623657 20.640625q-1.6875 0 -2.71875 -0.625q-1.015625 -0.640625 -1.484375 -1.796875q-0.46875 -1.15625 -0.46875 -2.734375l0 -14.0625l-2.265625 0l0 -2.65625l2.265625 0l0 -6.3125l4.0 0l0 6.3125l3.46875 0l0 2.65625l-3.46875 0l0 13.8125q0 1.265625 0.40625 1.8125q0.40625 0.53125 1.578125 0.53125q0.296875 0 0.6875 -0.03125q0.390625 -0.046875 0.765625 -0.078125l0 2.953125q-0.75 0.109375 -1.390625 0.15625q-0.625 0.0625 -1.375 0.0625zm20.045288 0q-1.6875 0 -2.71875 -0.625q-1.015625 -0.640625 -1.484375 -1.796875q-0.46875 -1.15625 -0.46875 -2.734375l0 -14.0625l-2.265625 0l0 -2.65625l2.265625 0l0 -6.3125l4.0 0l0 6.3125l3.46875 0l0 2.65625l-3.46875 0l0 13.8125q0 1.265625 0.40625 1.8125q0.40625 0.53125 1.578125 0.53125q0.296875 0 0.6875 -0.03125q0.390625 -0.046875 0.765625 -0.078125l0 2.953125q-0.75 0.109375 -1.390625 0.15625q-0.625 0.0625 -1.375 0.0625zm11.71582 0q-2.53125 0 -3.921875 -0.984375q-1.375 -1.0 -1.921875 -2.921875q-0.53125 -1.921875 -0.53125 -4.71875l0 -4.921875q0 -2.875 0.546875 -4.78125q0.5625 -1.90625 1.96875 -2.875q1.40625 -0.96875 3.859375 -0.96875q2.734375 0 4.015625 1.125q1.28125 1.109375 1.6875 3.21875q0.421875 2.109375 0.421875 5.0625l0 1.75l-8.515625 0l0 4.328125q0 1.3125 0.234375 2.140625q0.25 0.8125 0.796875 1.203125q0.546875 0.390625 1.40625 0.390625q0.890625 0 1.359375 -0.421875q0.46875 -0.4375 0.625 -1.234375q0.171875 -0.796875 0.171875 -1.890625l0 -1.296875l3.890625 0l0 0.8125q0 3.25 -1.390625 5.125q-1.375 1.859375 -4.703125 1.859375zm-2.390625 -13.171875l4.59375 0l0 -1.9375q0 -1.34375 -0.15625 -2.265625q-0.140625 -0.921875 -0.609375 -1.375q-0.46875 -0.46875 -1.46875 -0.46875q-0.96875 0 -1.484375 0.453125q-0.5 0.4375 -0.6875 1.5q-0.1875 1.0625 -0.1875 2.9375l0 1.15625zm12.512024 12.875l0 -30.234375l4.0 0l0 30.234375l-4.0 0zm8.548218 0l0 -30.234375l4.0 0l0 30.234375l-4.0 0zm9.063721 -20.34375l-0.703125 -1.5q1.15625 -0.0625 1.578125 -1.0625q0.4375 -1.015625 0.4375 -3.109375l-1.984375 0l0 -4.21875l4.375 0q0 0.890625 0 1.8125q0 0.90625 0 1.8125q0 2.90625 -0.828125 4.53125q-0.8125 1.625 -2.875 1.734375zm6.5625 0l-0.703125 -1.5q1.15625 -0.0625 1.578125 -1.0625q0.4375 -1.015625 0.4375 -3.109375l-1.984375 0l0 -4.21875l4.375 0q0 0.890625 0 1.8125q0 0.90625 0 1.8125q0 2.90625 -0.828125 4.53125q-0.8125 1.625 -2.875 1.734375z" fill-rule="nonzero"/><path fill="#666666" d="m442.06317 394.1479q-1.171875 0 -2.09375 -0.578125q-0.90625 -0.578125 -1.578125 -1.28125l0 1.5625l-3.984375 0l0 -30.234375l3.984375 0l0 10.375q0.71875 -0.828125 1.703125 -1.421875q0.984375 -0.59375 2.375 -0.59375q1.671875 0 2.65625 0.875q1.0 0.875 1.484375 2.203125q0.484375 1.328125 0.625 2.6875q0.15625 1.359375 0.15625 2.328125l0 5.234375q0 2.28125 -0.453125 4.3125q-0.4375 2.03125 -1.59375 3.28125q-1.15625 1.25 -3.28125 1.25zm-0.828125 -3.140625q1.046875 0 1.484375 -0.765625q0.453125 -0.765625 0.5625 -2.0625q0.125 -1.3125 0.125 -2.875l0 -5.234375q0 -1.34375 -0.15625 -2.46875q-0.15625 -1.140625 -0.640625 -1.8125q-0.484375 -0.671875 -1.53125 -0.671875q-0.78125 0 -1.46875 0.34375q-0.6875 0.328125 -1.21875 0.734375l0 13.84375q0.53125 0.421875 1.25 0.703125q0.734375 0.265625 1.59375 0.265625zm12.87323 3.140625q-1.265625 0 -1.984375 -0.671875q-0.703125 -0.671875 -0.984375 -1.671875q-0.28125 -1.015625 -0.28125 -2.0625l0 -17.46875l4.0 0l0 16.28125q0 1.15625 0.328125 1.8125q0.34375 0.640625 1.390625 0.640625q0.671875 0 1.390625 -0.390625q0.734375 -0.390625 1.40625 -0.953125l0 -17.390625l4.0 0l0 21.578125l-4.0 0l0 -2.125q-1.046875 1.0 -2.375 1.71875q-1.3125 0.703125 -2.890625 0.703125zm19.080688 0q-1.6875 0 -2.71875 -0.625q-1.015625 -0.640625 -1.484375 -1.796875q-0.46875 -1.15625 -0.46875 -2.734375l0 -14.0625l-2.265625 0l0 -2.65625l2.265625 0l0 -6.3125l4.0 0l0 6.3125l3.46875 0l0 2.65625l-3.46875 0l0 13.8125q0 1.265625 0.40625 1.8125q0.40625 0.53125 1.578125 0.53125q0.296875 0 0.6875 -0.03125q0.390625 -0.046875 0.765625 -0.078125l0 2.953125q-0.75 0.109375 -1.390625 0.15625q-0.625 0.0625 -1.375 0.0625zm11.49707 0q-1.6875 0 -2.71875 -0.625q-1.015625 -0.640625 -1.484375 -1.796875q-0.46875 -1.15625 -0.46875 -2.734375l0 -14.0625l-2.265625 0l0 -2.65625l2.265625 0l0 -6.3125l4.0 0l0 6.3125l3.46875 0l0 2.65625l-3.46875 0l0 13.8125q0 1.265625 0.40625 1.8125q0.40625 0.53125 1.578125 0.53125q0.296875 0 0.6875 -0.03125q0.390625 -0.046875 0.765625 -0.078125l0 2.953125q-0.75 0.109375 -1.390625 0.15625q-0.625 0.0625 -1.375 0.0625zm11.684631 0q-2.390625 0 -3.78125 -0.96875q-1.375 -0.96875 -1.953125 -2.75q-0.578125 -1.796875 -0.578125 -4.234375l0 -6.265625q0 -2.421875 0.578125 -4.21875q0.578125 -1.796875 1.953125 -2.765625q1.390625 -0.96875 3.78125 -0.96875q2.390625 0 3.75 0.96875q1.359375 0.96875 1.9375 2.765625q0.578125 1.796875 0.578125 4.21875l0 6.265625q0 2.4375 -0.578125 4.234375q-0.578125 1.78125 -1.9375 2.75q-1.359375 0.96875 -3.75 0.96875zm0 -2.953125q1.15625 0 1.625 -0.671875q0.46875 -0.671875 0.5625 -1.765625q0.09375 -1.109375 0.09375 -2.296875l0 -6.75q0 -1.234375 -0.09375 -2.3125q-0.09375 -1.09375 -0.5625 -1.78125q-0.46875 -0.6875 -1.625 -0.6875q-1.15625 0 -1.640625 0.6875q-0.484375 0.6875 -0.578125 1.78125q-0.09375 1.078125 -0.09375 2.3125l0 6.75q0 1.1875 0.09375 2.296875q0.09375 1.09375 0.578125 1.765625q0.484375 0.671875 1.640625 0.671875zm9.927002 2.65625l0 -21.578125l4.0 0l0 2.125q1.078125 -1.0 2.375 -1.703125q1.3125 -0.71875 2.875 -0.71875q1.3125 0 2.0 0.671875q0.6875 0.671875 0.96875 1.6875q0.28125 1.0 0.28125 2.046875l0 17.46875l-3.984375 0l0 -16.3125q0 -1.15625 -0.34375 -1.78125q-0.328125 -0.640625 -1.375 -0.640625q-0.671875 0 -1.40625 0.390625q-0.71875 0.390625 -1.390625 0.953125l0 17.390625l-4.0 0zm16.199585 0l0 -4.4375l4.0 0l0 4.4375l-4.0 0z" fill-rule="nonzero"/><path fill="#000000" fill-opacity="0.0" d="m174.66405 98.72441l591.685 0l0 71.08661l-591.685 0z" fill-rule="evenodd"/><path fill="#434343" d="m397.44223 148.6844l-5.640625 -34.546867l4.015625 0l3.703125 24.828117l4.65625 -24.703117l3.40625 0l4.703125 24.828117l3.625 -24.953117l3.921875 0l-5.546875 34.546867l-3.5 0l-4.8125 -25.593742l-4.875 25.593742l-3.65625 0zm32.622803 0.34375q-2.890625 0 -4.46875 -1.125q-1.578125 -1.140625 -2.203125 -3.328125q-0.625 -2.203125 -0.625 -5.40625l0 -5.625q0 -3.28125 0.640625 -5.453125q0.640625 -2.1874924 2.234375 -3.2968674q1.609375 -1.109375 4.421875 -1.109375q3.125 0 4.59375 1.28125q1.46875 1.28125 1.9375 3.7031174q0.46875 2.40625 0.46875 5.765625l0 2.0l-9.734375 0l0 4.953125q0 1.5 0.28125 2.4375q0.28125 0.9375 0.890625 1.390625q0.625 0.4375 1.609375 0.4375q1.015625 0 1.546875 -0.484375q0.546875 -0.5 0.734375 -1.40625q0.1875 -0.921875 0.1875 -2.15625l0 -1.5l4.4375 0l0 0.9375q0 3.71875 -1.578125 5.859375q-1.578125 2.125 -5.375 2.125zm-2.734375 -15.0625l5.25 0l0 -2.21875q0 -1.53125 -0.171875 -2.578125q-0.171875 -1.046875 -0.703125 -1.5781174q-0.53125 -0.53125 -1.6875 -0.53125q-1.09375 0 -1.671875 0.515625q-0.578125 0.49999237 -0.796875 1.7187424q-0.21875 1.21875 -0.21875 3.359375l0 1.3125zm14.302002 14.71875l0 -34.546867l4.5625 0l0 34.546867l-4.5625 0zm9.7682495 0l0 -34.546867l4.5625 0l0 34.546867l-4.5625 0zm24.81781 0.34375q-3.109375 0 -4.65625 -2.28125q-1.53125 -2.28125 -1.53125 -7.75l0 -4.765625q0 -2.828125 0.46875 -5.234375q0.46875 -2.4062424 1.765625 -3.8593674q1.3125 -1.453125 3.828125 -1.453125q1.234375 0 2.25 0.5625q1.03125 0.546875 1.84375 1.359375l0 -11.46875l4.5625 0l0 34.546867l-4.5625 0l0 -1.578125q-0.8125 0.859375 -1.78125 1.390625q-0.953125 0.53125 -2.1875 0.53125zm1.15625 -3.578125q0.640625 0 1.359375 -0.234375q0.734375 -0.25 1.453125 -0.71875l0 -16.15625q-0.59375 -0.43749237 -1.328125 -0.7499924q-0.71875 -0.3125 -1.578125 -0.3125q-1.578125 0 -2.140625 1.5156174q-0.546875 1.5 -0.546875 3.640625l0 6.953125q0 1.703125 0.1875 3.09375q0.203125 1.390625 0.796875 2.1875q0.609375 0.78125 1.796875 0.78125zm18.760254 3.578125q-2.71875 0 -4.296875 -1.109375q-1.578125 -1.109375 -2.25 -3.15625q-0.65625 -2.046875 -0.65625 -4.828125l0 -7.15625q0 -2.78125 0.65625 -4.8281174q0.671875 -2.046875 2.25 -3.15625q1.578125 -1.109375 4.296875 -1.109375q2.734375 0 4.28125 1.109375q1.5625 1.109375 2.21875 3.15625q0.671875 2.0468674 0.671875 4.8281174l0 7.15625q0 2.78125 -0.671875 4.828125q-0.65625 2.046875 -2.21875 3.15625q-1.546875 1.109375 -4.28125 1.109375zm0 -3.375q1.328125 0 1.859375 -0.765625q0.53125 -0.765625 0.640625 -2.015625q0.109375 -1.265625 0.109375 -2.640625l0 -7.71875q0 -1.40625 -0.109375 -2.640625q-0.109375 -1.234375 -0.640625 -2.0156174q-0.53125 -0.796875 -1.859375 -0.796875q-1.3125 0 -1.875 0.796875q-0.546875 0.7812424 -0.65625 2.0156174q-0.109375 1.234375 -0.109375 2.640625l0 7.71875q0 1.375 0.109375 2.640625q0.109375 1.25 0.65625 2.015625q0.5625 0.765625 1.875 0.765625zm11.347656 3.03125l0 -24.656242l4.5781555 0l0 2.4375q1.234375 -1.15625 2.71875 -1.96875q1.5 -0.8125 3.28125 -0.8125q1.5 0 2.28125 0.78125q0.796875 0.765625 1.109375 1.921875q0.328125 1.140625 0.328125 2.3281174l0 19.96875l-4.5625 0l0 -18.640625q0 -1.328125 -0.390625 -2.0468674q-0.375 -0.71875 -1.578125 -0.71875q-0.765625 0 -1.59375 0.453125q-0.828125 0.43749237 -1.59375 1.0781174l0 19.875l-4.5781555 0zm25.554169 0.34375q-2.890625 0 -4.46875 -1.125q-1.578125 -1.140625 -2.203125 -3.328125q-0.625 -2.203125 -0.625 -5.40625l0 -5.625q0 -3.28125 0.640625 -5.453125q0.640625 -2.1874924 2.234375 -3.2968674q1.609375 -1.109375 4.421875 -1.109375q3.125 0 4.59375 1.28125q1.46875 1.28125 1.9375 3.7031174q0.46875 2.40625 0.46875 5.765625l0 2.0l-9.734375 0l0 4.953125q0 1.5 0.28125 2.4375q0.28125 0.9375 0.890625 1.390625q0.625 0.4375 1.609375 0.4375q1.015625 0 1.546875 -0.484375q0.546875 -0.5 0.734375 -1.40625q0.1875 -0.921875 0.1875 -2.15625l0 -1.5l4.4375 0l0 0.9375q0 3.71875 -1.578125 5.859375q-1.578125 2.125 -5.375 2.125zm-2.734375 -15.0625l5.25 0l0 -2.21875q0 -1.53125 -0.171875 -2.578125q-0.171875 -1.046875 -0.703125 -1.5781174q-0.53125 -0.53125 -1.6875 -0.53125q-1.09375 0 -1.671875 0.515625q-0.578125 0.49999237 -0.796875 1.7187424q-0.21875 1.21875 -0.21875 3.359375l0 1.3125zm15.145752 7.34375l-1.453125 -27.171867l4.609375 0l-1.53125 27.171867l-1.625 0zm-1.453125 7.375l0 -4.6875l4.609375 0l0 4.6875l-4.609375 0z" fill-rule="nonzero"/></g></svg>