<svg version="1.1" viewBox="0.0 0.0 960.0 540.0" fill="none" stroke="none" stroke-linecap="square" stroke-miterlimit="10" xmlns:xlink="http://www.w3.org/1999/xlink" xmlns="http://www.w3.org/2000/svg"><clipPath id="gb6ef885fa8_0_0.0"><path d="m0 0l960.0 0l0 540.0l-960.0 0l0 -540.0z" clip-rule="nonzero"/></clipPath><g clip-path="url(#gb6ef885fa8_0_0.0)"><path fill="#ffffff" d="m0 0l960.0 0l0 540.0l-960.0 0z" fill-rule="evenodd"/><path fill="#000000" fill-opacity="0.0" d="m184.15749 131.02362l591.68506 0l0 277.95276l-591.68506 0z" fill-rule="evenodd"/><path fill="#434343" d="m204.8756 180.98363l0 -12.203125l-7.46875 -22.34375l4.46875 0l5.296875 16.671875l5.203125 -16.671875l4.515625 0l-7.421875 22.34375l0 12.203125l-4.59375 0zm20.758041 0.34375q-2.71875 0 -4.296875 -1.109375q-1.578125 -1.109375 -2.25 -3.15625q-0.65625 -2.046875 -0.65625 -4.828125l0 -7.15625q0 -2.78125 0.65625 -4.828125q0.671875 -2.046875 2.25 -3.15625q1.578125 -1.109375 4.296875 -1.109375q2.734375 0 4.28125 1.109375q1.5625 1.109375 2.21875 3.15625q0.671875 2.046875 0.671875 4.828125l0 7.15625q0 2.78125 -0.671875 4.828125q-0.65625 2.046875 -2.21875 3.15625q-1.546875 1.109375 -4.28125 1.109375zm0 -3.375q1.328125 0 1.859375 -0.765625q0.53125 -0.765625 0.640625 -2.015625q0.109375 -1.265625 0.109375 -2.640625l0 -7.71875q0 -1.40625 -0.109375 -2.640625q-0.109375 -1.234375 -0.640625 -2.015625q-0.53125 -0.796875 -1.859375 -0.796875q-1.3125 0 -1.875 0.796875q-0.546875 0.78125 -0.65625 2.015625q-0.109375 1.234375 -0.109375 2.640625l0 7.71875q0 1.375 0.109375 2.640625q0.109375 1.25 0.65625 2.015625q0.5625 0.765625 1.875 0.765625zm14.894501 3.375q-1.453125 0 -2.265625 -0.765625q-0.8125 -0.765625 -1.140625 -1.921875q-0.3125 -1.15625 -0.3125 -2.34375l0 -19.96875l4.578125 0l0 18.59375q0 1.328125 0.375 2.078125q0.390625 0.75 1.578125 0.75q0.765625 0 1.59375 -0.453125q0.84375 -0.453125 1.609375 -1.09375l0 -19.875l4.5625 0l0 24.65625l-4.5625 0l0 -2.4375q-1.203125 1.15625 -2.71875 1.96875q-1.5 0.8125 -3.296875 0.8125zm27.849487 -0.34375l-3.96875 -24.65625l3.765625 0l2.546875 18.171875l3.296875 -18.171875l3.5 0l3.28125 18.09375l2.5625 -18.09375l3.75 0l-4.09375 24.65625l-3.84375 0l-3.375 -17.40625l-3.328125 17.40625l-4.09375 0zm22.534943 0l0 -24.65625l4.5625 0l0 24.65625l-4.5625 0zm0 -28.328125l0 -4.765625l4.5625 0l0 4.765625l-4.5625 0zm9.89328 28.328125l0 -34.546875l4.5625 0l0 34.546875l-4.5625 0zm9.7682495 0l0 -34.546875l4.5625 0l0 34.546875l-4.5625 0zm19.09903 0l0 -24.65625l4.578125 0l0 2.4375q1.234375 -1.15625 2.71875 -1.96875q1.5 -0.8125 3.28125 -0.8125q1.5 0 2.28125 0.78125q0.796875 0.765625 1.109375 1.921875q0.328125 1.140625 0.328125 2.328125l0 19.96875l-4.5625 0l0 -18.640625q0 -1.328125 -0.390625 -2.046875q-0.375 -0.71875 -1.578125 -0.71875q-0.765625 0 -1.59375 0.453125q-0.828125 0.4375 -1.59375 1.078125l0 19.875l-4.578125 0zm25.507324 0.34375q-2.71875 0 -4.296875 -1.109375q-1.578125 -1.109375 -2.25 -3.15625q-0.65625 -2.046875 -0.65625 -4.828125l0 -7.15625q0 -2.78125 0.65625 -4.828125q0.671875 -2.046875 2.25 -3.15625q1.578125 -1.109375 4.296875 -1.109375q2.734375 0 4.28125 1.109375q1.5625 1.109375 2.21875 3.15625q0.671875 2.046875 0.671875 4.828125l0 7.15625q0 2.78125 -0.671875 4.828125q-0.65625 2.046875 -2.21875 3.15625q-1.546875 1.109375 -4.28125 1.109375zm0 -3.375q1.328125 0 1.859375 -0.765625q0.53125 -0.765625 0.640625 -2.015625q0.109375 -1.265625 0.109375 -2.640625l0 -7.71875q0 -1.40625 -0.109375 -2.640625q-0.109375 -1.234375 -0.640625 -2.015625q-0.53125 -0.796875 -1.859375 -0.796875q-1.3125 0 -1.875 0.796875q-0.546875 0.78125 -0.65625 2.015625q-0.109375 1.234375 -0.109375 2.640625l0 7.71875q0 1.375 0.109375 2.640625q0.109375 1.25 0.65625 2.015625q0.5625 0.765625 1.875 0.765625zm13.865662 3.03125l-3.96875 -24.65625l3.765625 0l2.546875 18.171875l3.296875 -18.171875l3.5 0l3.28125 18.09375l2.5625 -18.09375l3.75 0l-4.09375 24.65625l-3.84375 0l-3.375 -17.40625l-3.328125 17.40625l-4.09375 0zm40.834473 0.34375q-1.328125 0 -2.375 -0.65625q-1.046875 -0.671875 -1.8125 -1.484375l0 1.796875l-4.5625 0l0 -34.546875l4.5625 0l0 11.859375q0.8125 -0.9375 1.9375 -1.625q1.140625 -0.6875 2.71875 -0.6875q1.90625 0 3.03125 1.015625q1.140625 1.0 1.6875 2.515625q0.5625 1.5 0.734375 3.0625q0.171875 1.5625 0.171875 2.671875l0 5.96875q0 2.59375 -0.515625 4.921875q-0.515625 2.328125 -1.84375 3.765625q-1.3125 1.421875 -3.734375 1.421875zm-0.953125 -3.578125q1.203125 0 1.703125 -0.875q0.515625 -0.875 0.640625 -2.375q0.140625 -1.5 0.140625 -3.28125l0 -5.96875q0 -1.546875 -0.171875 -2.84375q-0.171875 -1.296875 -0.734375 -2.0625q-0.546875 -0.765625 -1.734375 -0.765625q-0.90625 0 -1.703125 0.390625q-0.78125 0.375 -1.375 0.84375l0 15.828125q0.59375 0.46875 1.421875 0.796875q0.84375 0.3125 1.8125 0.3125zm18.004791 3.578125q-2.890625 0 -4.46875 -1.125q-1.578125 -1.140625 -2.203125 -3.328125q-0.625 -2.203125 -0.625 -5.40625l0 -5.625q0 -3.28125 0.640625 -5.453125q0.640625 -2.1875 2.234375 -3.296875q1.609375 -1.109375 4.421875 -1.109375q3.125 0 4.59375 1.28125q1.46875 1.28125 1.9375 3.703125q0.46875 2.40625 0.46875 5.765625l0 2.0l-9.734375 0l0 4.953125q0 1.5 0.28125 2.4375q0.28125 0.9375 0.890625 1.390625q0.625 0.4375 1.609375 0.4375q1.015625 0 1.546875 -0.484375q0.546875 -0.5 0.734375 -1.40625q0.1875 -0.921875 0.1875 -2.15625l0 -1.5l4.4375 0l0 0.9375q0 3.71875 -1.578125 5.859375q-1.578125 2.125 -5.375 2.125zm-2.734375 -15.0625l5.25 0l0 -2.21875q0 -1.53125 -0.171875 -2.578125q-0.171875 -1.046875 -0.703125 -1.578125q-0.53125 -0.53125 -1.6875 -0.53125q-1.09375 0 -1.671875 0.515625q-0.578125 0.5 -0.796875 1.71875q-0.21875 1.21875 -0.21875 3.359375l0 1.3125zm29.351501 15.0625q-3.03125 0 -4.859375 -1.890625q-1.828125 -1.90625 -2.09375 -5.015625l3.796875 -1.15625q0.34375 2.34375 1.15625 3.515625q0.8125 1.171875 2.390625 1.171875q1.234375 0 1.875 -0.703125q0.640625 -0.703125 0.640625 -1.890625q0 -1.078125 -0.46875 -1.921875q-0.46875 -0.859375 -1.53125 -1.75l-4.234375 -3.625q-1.28125 -1.109375 -2.15625 -2.46875q-0.875 -1.375 -0.875 -3.546875q0 -1.96875 0.78125 -3.3125q0.796875 -1.34375 2.21875 -2.046875q1.4375 -0.703125 3.359375 -0.703125q2.953125 0 4.5 1.90625q1.5625 1.890625 1.78125 4.578125l-3.078125 1.15625q-0.171875 -1.28125 -0.515625 -2.234375q-0.34375 -0.96875 -0.9375 -1.5q-0.59375 -0.53125 -1.578125 -0.53125q-1.109375 0 -1.765625 0.75q-0.65625 0.734375 -0.65625 1.765625q0 0.640625 0.265625 1.265625q0.28125 0.609375 0.96875 1.203125l4.34375 4.015625q0.90625 0.8125 1.6875 1.75q0.796875 0.9375 1.296875 2.140625q0.515625 1.1875 0.515625 2.765625q0 2.09375 -0.859375 3.5q-0.84375 1.40625 -2.390625 2.109375q-1.53125 0.703125 -3.578125 0.703125zm10.375305 -0.34375l0 -34.546875l4.5625 0l0 12.453125q1.234375 -1.203125 2.765625 -2.046875q1.53125 -0.859375 3.421875 -0.859375q1.4375 0 2.21875 0.78125q0.796875 0.765625 1.109375 1.921875q0.328125 1.140625 0.328125 2.328125l0 19.96875l-4.5625 0l0 -18.640625q0 -1.328125 -0.390625 -2.046875q-0.375 -0.71875 -1.5625 -0.71875q-0.8125 0 -1.6875 0.46875q-0.875 0.46875 -1.640625 1.140625l0 19.796875l-4.5625 0zm25.62262 0.34375q-2.71875 0 -4.296875 -1.109375q-1.578125 -1.109375 -2.25 -3.15625q-0.65625 -2.046875 -0.65625 -4.828125l0 -7.15625q0 -2.78125 0.65625 -4.828125q0.671875 -2.046875 2.25 -3.15625q1.578125 -1.109375 4.296875 -1.109375q2.734375 0 4.28125 1.109375q1.5625 1.109375 2.21875 3.15625q0.671875 2.046875 0.671875 4.828125l0 7.15625q0 2.78125 -0.671875 4.828125q-0.65625 2.046875 -2.21875 3.15625q-1.546875 1.109375 -4.28125 1.109375zm0 -3.375q1.328125 0 1.859375 -0.765625q0.53125 -0.765625 0.640625 -2.015625q0.109375 -1.265625 0.109375 -2.640625l0 -7.71875q0 -1.40625 -0.109375 -2.640625q-0.109375 -1.234375 -0.640625 -2.015625q-0.53125 -0.796875 -1.859375 -0.796875q-1.3125 0 -1.875 0.796875q-0.546875 0.78125 -0.65625 2.015625q-0.109375 1.234375 -0.109375 2.640625l0 7.71875q0 1.375 0.109375 2.640625q0.109375 1.25 0.65625 2.015625q0.5625 0.765625 1.875 0.765625zm13.865662 3.03125l-3.96875 -24.65625l3.765625 0l2.546875 18.171875l3.296875 -18.171875l3.5 0l3.28125 18.09375l2.5625 -18.09375l3.75 0l-4.09375 24.65625l-3.84375 0l-3.375 -17.40625l-3.328125 17.40625l-4.09375 0zm22.222473 0l0 -24.65625l4.578125 0l0 2.4375q1.234375 -1.15625 2.71875 -1.96875q1.5 -0.8125 3.28125 -0.8125q1.5 0 2.28125 0.78125q0.796875 0.765625 1.109375 1.921875q0.328125 1.140625 0.328125 2.328125l0 19.96875l-4.5625 0l0 -18.640625q0 -1.328125 -0.390625 -2.046875q-0.375 -0.71875 -1.578125 -0.71875q-0.765625 0 -1.59375 0.453125q-0.828125 0.4375 -1.59375 1.078125l0 19.875l-4.578125 0zm32.931824 0.34375q-1.4375 0 -2.546875 -0.828125q-1.109375 -0.84375 -1.75 -2.140625q-0.640625 -1.296875 -0.640625 -2.75q0 -2.296875 0.765625 -3.875q0.765625 -1.578125 2.109375 -2.671875q1.34375 -1.09375 3.109375 -1.890625q1.78125 -0.8125 3.734375 -1.59375l0 -1.734375q0 -1.5 -0.171875 -2.484375q-0.171875 -0.984375 -0.703125 -1.46875q-0.53125 -0.484375 -1.59375 -0.484375q-0.9375 0 -1.515625 0.421875q-0.578125 0.421875 -0.84375 1.21875q-0.25 0.78125 -0.25 1.84375l0 1.25l-4.515625 -0.171875q0.078125 -4.09375 1.875 -6.03125q1.796875 -1.953125 5.546875 -1.953125q3.671875 0 5.203125 2.015625q1.53125 2.0 1.53125 5.796875l0 11.265625q0 1.140625 0.0625 2.21875q0.0625 1.0625 0.171875 1.984375q0.109375 0.90625 0.203125 1.71875l-4.1875 0q-0.125 -0.6875 -0.328125 -1.71875q-0.1875 -1.046875 -0.265625 -1.90625q-0.4375 1.453125 -1.65625 2.71875q-1.203125 1.25 -3.34375 1.25zm1.796875 -3.921875q0.6875 0 1.28125 -0.375q0.59375 -0.390625 1.0625 -0.875q0.46875 -0.5 0.640625 -0.796875l0 -7.0q-1.0625 0.59375 -2.0 1.203125q-0.9375 0.59375 -1.640625 1.25q-0.703125 0.65625 -1.109375 1.5q-0.40625 0.828125 -0.40625 1.890625q0 1.484375 0.546875 2.34375q0.5625 0.859375 1.625 0.859375zm11.937134 3.578125l0 -24.65625l4.578125 0l0 2.4375q1.234375 -1.15625 2.71875 -1.96875q1.5 -0.8125 3.28125 -0.8125q1.5 0 2.28125 0.78125q0.796875 0.765625 1.109375 1.921875q0.328125 1.140625 0.328125 2.328125l0 19.96875l-4.5625 0l0 -18.640625q0 -1.328125 -0.390625 -2.046875q-0.375 -0.71875 -1.578125 -0.71875q-0.765625 0 -1.59375 0.453125q-0.828125 0.4375 -1.59375 1.078125l0 19.875l-4.578125 0zm25.507324 0.34375q-2.71875 0 -4.296875 -1.109375q-1.578125 -1.109375 -2.25 -3.15625q-0.65625 -2.046875 -0.65625 -4.828125l0 -7.15625q0 -2.78125 0.65625 -4.828125q0.671875 -2.046875 2.25 -3.15625q1.578125 -1.109375 4.296875 -1.109375q2.734375 0 4.28125 1.109375q1.5625 1.109375 2.21875 3.15625q0.671875 2.046875 0.671875 4.828125l0 7.15625q0 2.78125 -0.671875 4.828125q-0.65625 2.046875 -2.21875 3.15625q-1.546875 1.109375 -4.28125 1.109375zm0 -3.375q1.328125 0 1.859375 -0.765625q0.53125 -0.765625 0.640625 -2.015625q0.109375 -1.265625 0.109375 -2.640625l0 -7.71875q0 -1.40625 -0.109375 -2.640625q-0.109375 -1.234375 -0.640625 -2.015625q-0.53125 -0.796875 -1.859375 -0.796875q-1.3125 0 -1.875 0.796875q-0.546875 0.78125 -0.65625 2.015625q-0.109375 1.234375 -0.109375 2.640625l0 7.71875q0 1.375 0.109375 2.640625q0.109375 1.25 0.65625 2.015625q0.5625 0.765625 1.875 0.765625zm17.92572 3.375q-1.921875 0 -3.09375 -0.71875q-1.171875 -0.734375 -1.703125 -2.046875q-0.53125 -1.328125 -0.53125 -3.125l0 -16.078125l-2.609375 0l0 -3.03125l2.609375 0l0 -7.203125l4.5625 0l0 7.203125l3.96875 0l0 3.03125l-3.96875 0l0 15.78125q0 1.453125 0.46875 2.078125q0.46875 0.609375 1.78125 0.609375q0.34375 0 0.796875 -0.03125q0.453125 -0.046875 0.875 -0.09375l0 3.359375q-0.859375 0.140625 -1.59375 0.203125q-0.71875 0.0625 -1.5625 0.0625zm6.7006226 -0.34375l0 -34.546875l4.5625 0l0 12.453125q1.234375 -1.203125 2.765625 -2.046875q1.53125 -0.859375 3.421875 -0.859375q1.4375 0 2.21875 0.78125q0.796875 0.765625 1.109375 1.921875q0.328125 1.140625 0.328125 2.328125l0 19.96875l-4.5625 0l0 -18.640625q0 -1.328125 -0.390625 -2.046875q-0.375 -0.71875 -1.5625 -0.71875q-0.8125 0 -1.6875 0.46875q-0.875 0.46875 -1.640625 1.140625l0 19.796875l-4.5625 0zm25.669495 0.34375q-2.890625 0 -4.46875 -1.125q-1.578125 -1.140625 -2.203125 -3.328125q-0.625 -2.203125 -0.625 -5.40625l0 -5.625q0 -3.28125 0.640625 -5.453125q0.640625 -2.1875 2.234375 -3.296875q1.609375 -1.109375 4.421875 -1.109375q3.125 0 4.59375 1.28125q1.46875 1.28125 1.9375 3.703125q0.46875 2.40625 0.46875 5.765625l0 2.0l-9.734375 0l0 4.953125q0 1.5 0.28125 2.4375q0.28125 0.9375 0.890625 1.390625q0.625 0.4375 1.609375 0.4375q1.015625 0 1.546875 -0.484375q0.546875 -0.5 0.734375 -1.40625q0.1875 -0.921875 0.1875 -2.15625l0 -1.5l4.4375 0l0 0.9375q0 3.71875 -1.578125 5.859375q-1.578125 2.125 -5.375 2.125zm-2.734375 -15.0625l5.25 0l0 -2.21875q0 -1.53125 -0.171875 -2.578125q-0.171875 -1.046875 -0.703125 -1.578125q-0.53125 -0.53125 -1.6875 -0.53125q-1.09375 0 -1.671875 0.515625q-0.578125 0.5 -0.796875 1.71875q-0.21875 1.21875 -0.21875 3.359375l0 1.3125zm14.005127 14.71875l0 -24.65625l4.5625 0l0 3.5q1.359375 -2.265625 2.71875 -3.03125q1.375 -0.765625 2.734375 -0.765625q0.171875 0 0.3125 0q0.15625 0 0.421875 0.046875l0 5.03125q-0.515625 -0.21875 -1.1875 -0.359375q-0.65625 -0.15625 -1.34375 -0.15625q-1.0625 0 -1.9375 0.5q-0.875 0.484375 -1.71875 1.890625l0 18.0l-4.5625 0zm29.898376 0.34375q-1.921875 0 -3.09375 -0.71875q-1.171875 -0.734375 -1.703125 -2.046875q-0.53125 -1.328125 -0.53125 -3.125l0 -16.078125l-2.609375 0l0 -3.03125l2.609375 0l0 -7.203125l4.5625 0l0 7.203125l3.96875 0l0 3.03125l-3.96875 0l0 15.78125q0 1.453125 0.46875 2.078125q0.46875 0.609375 1.78125 0.609375q0.34375 0 0.796875 -0.03125q0.453125 -0.046875 0.875 -0.09375l0 3.359375q-0.859375 0.140625 -1.59375 0.203125q-0.71875 0.0625 -1.5625 0.0625zm13.341187 0q-2.71875 0 -4.296875 -1.109375q-1.578125 -1.109375 -2.249939 -3.15625q-0.65625 -2.046875 -0.65625 -4.828125l0 -7.15625q0 -2.78125 0.65625 -4.828125q0.67181396 -2.046875 2.249939 -3.15625q1.578125 -1.109375 4.296875 -1.109375q2.734375 0 4.28125 1.109375q1.5625 1.109375 2.21875 3.15625q0.671875 2.046875 0.671875 4.828125l0 7.15625q0 2.78125 -0.671875 4.828125q-0.65625 2.046875 -2.21875 3.15625q-1.546875 1.109375 -4.28125 1.109375zm0 -3.375q1.328125 0 1.859375 -0.765625q0.53125 -0.765625 0.640625 -2.015625q0.109375 -1.265625 0.109375 -2.640625l0 -7.71875q0 -1.40625 -0.109375 -2.640625q-0.109375 -1.234375 -0.640625 -2.015625q-0.53125 -0.796875 -1.859375 -0.796875q-1.3125 0 -1.875 0.796875q-0.546875 0.78125 -0.65625 2.015625q-0.109375 1.234375 -0.109375 2.640625l0 7.71875q0 1.375 0.109375 2.640625q0.109375 1.25 0.65625 2.015625q0.5625 0.765625 1.875 0.765625zm13.865723 3.03125l-3.96875 -24.65625l3.765625 0l2.546875 18.171875l3.296875 -18.171875l3.5 0l3.28125 18.09375l2.5625 -18.09375l3.75 0l-4.09375 24.65625l-3.84375 0l-3.375 -17.40625l-3.328125 17.40625l-4.09375 0zm22.222412 0l0 -24.65625l4.578125 0l0 2.4375q1.234375 -1.15625 2.71875 -1.96875q1.5 -0.8125 3.28125 -0.8125q1.5 0 2.28125 0.78125q0.796875 0.765625 1.109375 1.921875q0.328125 1.140625 0.328125 2.328125l0 19.96875l-4.5625 0l0 -18.640625q0 -1.328125 -0.390625 -2.046875q-0.375 -0.71875 -1.578125 -0.71875q-0.765625 0 -1.59375 0.453125q-0.828125 0.4375 -1.59375 1.078125l0 19.875l-4.578125 0zm18.8667 5.59375l-0.734375 -1.96875q1.15625 -0.390625 1.8125 -1.34375q0.671875 -0.953125 0.671875 -2.28125l-2.4375 0l0 -4.90625l4.6875 0l0 4.828125q0 2.25 -0.984375 3.59375q-0.96875 1.34375 -3.015625 2.078125z" fill-rule="nonzero"/><path fill="#434343" d="m213.24446 232.18362l-3.96875 -24.65625l3.765625 0l2.546875 18.171875l3.296875 -18.171875l3.5 0l3.28125 18.09375l2.5625 -18.09375l3.75 0l-4.09375 24.65625l-3.84375 0l-3.375 -17.40625l-3.328125 17.40625l-4.09375 0zm22.363083 0l0 -34.546875l4.5625 0l0 12.453125q1.234375 -1.203125 2.765625 -2.046875q1.53125 -0.859375 3.421875 -0.859375q1.4375 0 2.21875 0.78125q0.796875 0.765625 1.109375 1.921875q0.328125 1.140625 0.328125 2.328125l0 19.96875l-4.5625 0l0 -18.640625q0 -1.328125 -0.390625 -2.046875q-0.375 -0.71875 -1.5625 -0.71875q-0.8125 0 -1.6875 0.46875q-0.875 0.46875 -1.640625 1.140625l0 19.796875l-4.5625 0zm19.15387 0l0 -24.65625l4.5625 0l0 24.65625l-4.5625 0zm0 -28.328125l0 -4.765625l4.5625 0l0 4.765625l-4.5625 0zm16.20575 28.671875q-3.03125 0 -4.59375 -1.21875q-1.546875 -1.21875 -2.09375 -3.4375q-0.53125 -2.21875 -0.53125 -5.15625l0 -5.671875q0 -3.109375 0.546875 -5.3125q0.5625 -2.203125 2.125 -3.375q1.5625 -1.171875 4.546875 -1.171875q2.6875 0 4.15625 0.875q1.46875 0.875 2.015625 2.609375q0.5625 1.71875 0.5625 4.28125l0 1.453125l-4.140625 0l0 -1.5q0 -1.609375 -0.21875 -2.546875q-0.203125 -0.953125 -0.765625 -1.375q-0.546875 -0.421875 -1.578125 -0.421875q-1.09375 0 -1.703125 0.515625q-0.59375 0.5 -0.796875 1.71875q-0.1875 1.21875 -0.1875 3.3125l0 7.765625q0 3.15625 0.59375 4.21875q0.609375 1.0625 2.140625 1.0625q1.15625 0 1.6875 -0.53125q0.53125 -0.53125 0.671875 -1.515625q0.15625 -0.984375 0.15625 -2.21875l0 -2.0l4.140625 0l0 1.703125q0 2.46875 -0.578125 4.265625q-0.578125 1.796875 -2.046875 2.734375q-1.46875 0.9375 -4.109375 0.9375zm10.922333 -0.34375l0 -34.546875l4.5625 0l0 12.453125q1.234375 -1.203125 2.765625 -2.046875q1.53125 -0.859375 3.421875 -0.859375q1.4375 0 2.21875 0.78125q0.796875 0.765625 1.109375 1.921875q0.328125 1.140625 0.328125 2.328125l0 19.96875l-4.5625 0l0 -18.640625q0 -1.328125 -0.390625 -2.046875q-0.375 -0.71875 -1.5625 -0.71875q-0.8125 0 -1.6875 0.46875q-0.875 0.46875 -1.640625 1.140625l0 19.796875l-4.5625 0zm35.187744 0.34375q-1.921875 0 -3.09375 -0.71875q-1.171875 -0.734375 -1.703125 -2.046875q-0.53125 -1.328125 -0.53125 -3.125l0 -16.078125l-2.609375 0l0 -3.03125l2.609375 0l0 -7.203125l4.5625 0l0 7.203125l3.96875 0l0 3.03125l-3.96875 0l0 15.78125q0 1.453125 0.46875 2.078125q0.46875 0.609375 1.78125 0.609375q0.34375 0 0.796875 -0.03125q0.453125 -0.046875 0.875 -0.09375l0 3.359375q-0.859375 0.140625 -1.59375 0.203125q-0.71875 0.0625 -1.5625 0.0625zm6.7006226 -0.34375l0 -34.546875l4.5625 0l0 12.453125q1.234375 -1.203125 2.765625 -2.046875q1.53125 -0.859375 3.421875 -0.859375q1.4375 0 2.21875 0.78125q0.796875 0.765625 1.109375 1.921875q0.328125 1.140625 0.328125 2.328125l0 19.96875l-4.5625 0l0 -18.640625q0 -1.328125 -0.390625 -2.046875q-0.375 -0.71875 -1.5625 -0.71875q-0.8125 0 -1.6875 0.46875q-0.875 0.46875 -1.640625 1.140625l0 19.796875l-4.5625 0zm25.669495 0.34375q-2.890625 0 -4.46875 -1.125q-1.578125 -1.140625 -2.203125 -3.328125q-0.625 -2.203125 -0.625 -5.40625l0 -5.625q0 -3.28125 0.640625 -5.453125q0.640625 -2.1875 2.234375 -3.296875q1.609375 -1.109375 4.421875 -1.109375q3.125 0 4.59375 1.28125q1.46875 1.28125 1.9375 3.703125q0.46875 2.40625 0.46875 5.765625l0 2.0l-9.734375 0l0 4.953125q0 1.5 0.28125 2.4375q0.28125 0.9375 0.890625 1.390625q0.625 0.4375 1.609375 0.4375q1.015625 0 1.546875 -0.484375q0.546875 -0.5 0.734375 -1.40625q0.1875 -0.921875 0.1875 -2.15625l0 -1.5l4.4375 0l0 0.9375q0 3.71875 -1.578125 5.859375q-1.578125 2.125 -5.375 2.125zm-2.734375 -15.0625l5.25 0l0 -2.21875q0 -1.53125 -0.171875 -2.578125q-0.171875 -1.046875 -0.703125 -1.578125q-0.53125 -0.53125 -1.6875 -0.53125q-1.09375 0 -1.671875 0.515625q-0.578125 0.5 -0.796875 1.71875q-0.21875 1.21875 -0.21875 3.359375l0 1.3125zm23.773376 14.71875l0 -24.65625l4.5625 0l0 3.5q1.359375 -2.265625 2.71875 -3.03125q1.375 -0.765625 2.734375 -0.765625q0.171875 0 0.3125 0q0.15625 0 0.421875 0.046875l0 5.03125q-0.515625 -0.21875 -1.1875 -0.359375q-0.65625 -0.15625 -1.34375 -0.15625q-1.0625 0 -1.9375 0.5q-0.875 0.484375 -1.71875 1.890625l0 18.0l-4.5625 0zm20.380157 0.34375q-2.890625 0 -4.46875 -1.125q-1.578125 -1.140625 -2.203125 -3.328125q-0.625 -2.203125 -0.625 -5.40625l0 -5.625q0 -3.28125 0.640625 -5.453125q0.640625 -2.1875 2.234375 -3.296875q1.609375 -1.109375 4.421875 -1.109375q3.125 0 4.59375 1.28125q1.46875 1.28125 1.9375 3.703125q0.46875 2.40625 0.46875 5.765625l0 2.0l-9.734375 0l0 4.953125q0 1.5 0.28125 2.4375q0.28125 0.9375 0.890625 1.390625q0.625 0.4375 1.609375 0.4375q1.015625 0 1.546875 -0.484375q0.546875 -0.5 0.734375 -1.40625q0.1875 -0.921875 0.1875 -2.15625l0 -1.5l4.4375 0l0 0.9375q0 3.71875 -1.578125 5.859375q-1.578125 2.125 -5.375 2.125zm-2.734375 -15.0625l5.25 0l0 -2.21875q0 -1.53125 -0.171875 -2.578125q-0.171875 -1.046875 -0.703125 -1.578125q-0.53125 -0.53125 -1.6875 -0.53125q-1.09375 0 -1.671875 0.515625q-0.578125 0.5 -0.796875 1.71875q-0.21875 1.21875 -0.21875 3.359375l0 1.3125zm13.864502 14.71875l0 -24.65625l4.234375 0l0 2.34375q1.234375 -1.40625 2.71875 -2.078125q1.5 -0.6875 3.078125 -0.6875q1.359375 0 2.453125 0.6875q1.09375 0.671875 1.5625 2.421875q1.3125 -1.625 2.875 -2.359375q1.5625 -0.75 3.265625 -0.75q1.1875 0 2.171875 0.578125q0.984375 0.5625 1.578125 1.828125q0.59375 1.265625 0.59375 3.3125l0 19.359375l-4.171875 0l0 -19.0625q0 -1.796875 -0.578125 -2.40625q-0.578125 -0.625 -1.5625 -0.625q-0.9375 0 -1.96875 0.53125q-1.015625 0.53125 -1.875 1.46875q0 0.171875 0 0.34375q0 0.171875 0 0.390625l0 19.359375l-4.171875 0l0 -19.0625q0 -1.796875 -0.578125 -2.40625q-0.578125 -0.625 -1.5625 -0.625q-0.9375 0 -1.9375 0.53125q-1.0 0.53125 -1.890625 1.46875l0 20.09375l-4.234375 0zm33.443695 0.34375q-1.4375 0 -2.546875 -0.828125q-1.109375 -0.84375 -1.75 -2.140625q-0.640625 -1.296875 -0.640625 -2.75q0 -2.296875 0.765625 -3.875q0.765625 -1.578125 2.109375 -2.671875q1.34375 -1.09375 3.109375 -1.890625q1.78125 -0.8125 3.734375 -1.59375l0 -1.734375q0 -1.5 -0.171875 -2.484375q-0.171875 -0.984375 -0.703125 -1.46875q-0.53125 -0.484375 -1.59375 -0.484375q-0.9375 0 -1.515625 0.421875q-0.578125 0.421875 -0.84375 1.21875q-0.25 0.78125 -0.25 1.84375l0 1.25l-4.515625 -0.171875q0.078125 -4.09375 1.875 -6.03125q1.796875 -1.953125 5.546875 -1.953125q3.671875 0 5.203125 2.015625q1.53125 2.0 1.53125 5.796875l0 11.265625q0 1.140625 0.0625 2.21875q0.0625 1.0625 0.171875 1.984375q0.109375 0.90625 0.203125 1.71875l-4.1875 0q-0.125 -0.6875 -0.328125 -1.71875q-0.1875 -1.046875 -0.265625 -1.90625q-0.4375 1.453125 -1.65625 2.71875q-1.203125 1.25 -3.34375 1.25zm1.796875 -3.921875q0.6875 0 1.28125 -0.375q0.59375 -0.390625 1.0625 -0.875q0.46875 -0.5 0.640625 -0.796875l0 -7.0q-1.0625 0.59375 -2.0 1.203125q-0.9375 0.59375 -1.640625 1.25q-0.703125 0.65625 -1.109375 1.5q-0.40625 0.828125 -0.40625 1.890625q0 1.484375 0.546875 2.34375q0.5625 0.859375 1.625 0.859375zm12.249664 3.578125l0 -24.65625l4.5625 0l0 24.65625l-4.5625 0zm0 -28.328125l0 -4.765625l4.5625 0l0 4.765625l-4.5625 0zm9.4557495 28.328125l0 -24.65625l4.578125 0l0 2.4375q1.234375 -1.15625 2.71875 -1.96875q1.5 -0.8125 3.28125 -0.8125q1.5 0 2.28125 0.78125q0.796875 0.765625 1.109375 1.921875q0.328125 1.140625 0.328125 2.328125l0 19.96875l-4.5625 0l0 -18.640625q0 -1.328125 -0.390625 -2.046875q-0.375 -0.71875 -1.578125 -0.71875q-0.765625 0 -1.59375 0.453125q-0.828125 0.4375 -1.59375 1.078125l0 19.875l-4.578125 0zm24.444824 0.34375q-3.109375 0 -4.65625 -2.28125q-1.53125 -2.28125 -1.53125 -7.75l0 -4.765625q0 -2.828125 0.46875 -5.234375q0.46875 -2.40625 1.765625 -3.859375q1.3125 -1.453125 3.828125 -1.453125q1.234375 0 2.25 0.5625q1.03125 0.546875 1.84375 1.359375l0 -11.46875l4.5625 0l0 34.546875l-4.5625 0l0 -1.578125q-0.8125 0.859375 -1.78125 1.390625q-0.953125 0.53125 -2.1875 0.53125zm1.15625 -3.578125q0.640625 0 1.359375 -0.234375q0.734375 -0.25 1.453125 -0.71875l0 -16.15625q-0.59375 -0.4375 -1.328125 -0.75q-0.71875 -0.3125 -1.578125 -0.3125q-1.578125 0 -2.140625 1.515625q-0.546875 1.5 -0.546875 3.640625l0 6.953125q0 1.703125 0.1875 3.09375q0.203125 1.390625 0.796875 2.1875q0.609375 0.78125 1.796875 0.78125zm18.80716 3.578125q-2.890625 0 -4.46875 -1.125q-1.578125 -1.140625 -2.203125 -3.328125q-0.625 -2.203125 -0.625 -5.40625l0 -5.625q0 -3.28125 0.640625 -5.453125q0.640625 -2.1875 2.234375 -3.296875q1.609375 -1.109375 4.421875 -1.109375q3.125 0 4.59375 1.28125q1.46875 1.28125 1.9375 3.703125q0.46875 2.40625 0.46875 5.765625l0 2.0l-9.734375 0l0 4.953125q0 1.5 0.28125 2.4375q0.28125 0.9375 0.890625 1.390625q0.625 0.4375 1.609375 0.4375q1.015625 0 1.546875 -0.484375q0.546875 -0.5 0.734375 -1.40625q0.1875 -0.921875 0.1875 -2.15625l0 -1.5l4.4375 0l0 0.9375q0 3.71875 -1.578125 5.859375q-1.578125 2.125 -5.375 2.125zm-2.734375 -15.0625l5.25 0l0 -2.21875q0 -1.53125 -0.171875 -2.578125q-0.171875 -1.046875 -0.703125 -1.578125q-0.53125 -0.53125 -1.6875 -0.53125q-1.09375 0 -1.671875 0.515625q-0.578125 0.5 -0.796875 1.71875q-0.21875 1.21875 -0.21875 3.359375l0 1.3125zm14.005157 14.71875l0 -24.65625l4.5625 0l0 3.5q1.359375 -2.265625 2.71875 -3.03125q1.375 -0.765625 2.734375 -0.765625q0.171875 0 0.3125 0q0.15625 0 0.421875 0.046875l0 5.03125q-0.515625 -0.21875 -1.1875 -0.359375q-0.65625 -0.15625 -1.34375 -0.15625q-1.0625 0 -1.9375 0.5q-0.875 0.484375 -1.71875 1.890625l0 18.0l-4.5625 0zm30.101501 0.34375q-2.71875 0 -4.296875 -1.109375q-1.578125 -1.109375 -2.25 -3.15625q-0.65625 -2.046875 -0.65625 -4.828125l0 -7.15625q0 -2.78125 0.65625 -4.828125q0.671875 -2.046875 2.25 -3.15625q1.578125 -1.109375 4.296875 -1.109375q2.734375 0 4.28125 1.109375q1.5625 1.109375 2.21875 3.15625q0.671875 2.046875 0.671875 4.828125l0 7.15625q0 2.78125 -0.671875 4.828125q-0.65625 2.046875 -2.21875 3.15625q-1.546875 1.109375 -4.28125 1.109375zm0 -3.375q1.328125 0 1.859375 -0.765625q0.53125 -0.765625 0.640625 -2.015625q0.109375 -1.265625 0.109375 -2.640625l0 -7.71875q0 -1.40625 -0.109375 -2.640625q-0.109375 -1.234375 -0.640625 -2.015625q-0.53125 -0.796875 -1.859375 -0.796875q-1.3125 0 -1.875 0.796875q-0.546875 0.78125 -0.65625 2.015625q-0.109375 1.234375 -0.109375 2.640625l0 7.71875q0 1.375 0.109375 2.640625q0.109375 1.25 0.65625 2.015625q0.5625 0.765625 1.875 0.765625zm12.800781 3.03125l0 -21.28125l-2.9375 0l0 -3.375l2.9375 0l0 -1.28125q0 -2.296875 0.359375 -3.9375q0.375 -1.640625 1.515625 -2.53125q1.15625 -0.90625 3.453125 -0.90625q0.859375 0 1.515625 0.0625q0.671875 0.0625 1.484375 0.234375l0 3.328125q-0.390625 -0.09375 -0.859375 -0.15625q-0.46875 -0.0625 -0.859375 -0.0625q-1.3125 0 -1.6875 0.875q-0.359375 0.875 -0.359375 2.328125l0 2.046875l3.765625 0l0 3.375l-3.765625 0l0 21.28125l-4.5625 0zm27.13556 0.34375q-1.921875 0 -3.09375 -0.71875q-1.171875 -0.734375 -1.703125 -2.046875q-0.53125 -1.328125 -0.53125 -3.125l0 -16.078125l-2.609375 0l0 -3.03125l2.609375 0l0 -7.203125l4.5625 0l0 7.203125l3.96875 0l0 3.03125l-3.96875 0l0 15.78125q0 1.453125 0.46875 2.078125q0.46875 0.609375 1.78125 0.609375q0.34375 0 0.796875 -0.03125q0.453125 -0.046875 0.875 -0.09375l0 3.359375q-0.859375 0.140625 -1.59375 0.203125q-0.71875 0.0625 -1.5625 0.0625zm6.7006226 -0.34375l0 -34.546875l4.5625 0l0 12.453125q1.234375 -1.203125 2.765625 -2.046875q1.53125 -0.859375 3.421875 -0.859375q1.4375 0 2.21875 0.78125q0.796875 0.765625 1.109375 1.921875q0.328125 1.140625 0.328125 2.328125l0 19.96875l-4.5625 0l0 -18.640625q0 -1.328125 -0.390625 -2.046875q-0.375 -0.71875 -1.5625 -0.71875q-0.8125 0 -1.6875 0.46875q-0.875 0.46875 -1.640625 1.140625l0 19.796875l-4.5625 0zm25.669495 0.34375q-2.890625 0 -4.46875 -1.125q-1.578125 -1.140625 -2.203125 -3.328125q-0.625 -2.203125 -0.625 -5.40625l0 -5.625q0 -3.28125 0.640625 -5.453125q0.640625 -2.1875 2.234375 -3.296875q1.609375 -1.109375 4.421875 -1.109375q3.125 0 4.59375 1.28125q1.46875 1.28125 1.9375 3.703125q0.46875 2.40625 0.46875 5.765625l0 2.0l-9.734375 0l0 4.953125q0 1.5 0.28125 2.4375q0.28125 0.9375 0.890625 1.390625q0.625 0.4375 1.609375 0.4375q1.015625 0 1.546875 -0.484375q0.546875 -0.5 0.734375 -1.40625q0.1875 -0.921875 0.1875 -2.15625l0 -1.5l4.4375 0l0 0.9375q0 3.71875 -1.578125 5.859375q-1.578125 2.125 -5.375 2.125zm-2.734375 -15.0625l5.25 0l0 -2.21875q0 -1.53125 -0.171875 -2.578125q-0.171875 -1.046875 -0.703125 -1.578125q-0.53125 -0.53125 -1.6875 -0.53125q-1.09375 0 -1.671875 0.515625q-0.578125 0.5 -0.796875 1.71875q-0.21875 1.21875 -0.21875 3.359375l0 1.3125zm24.023376 14.71875l0 -34.546875l4.8125 0l0 14.921875l8.875 0l0 -14.921875l4.828125 0l0 34.546875l-4.828125 0l0 -16.171875l-8.875 0l0 16.171875l-4.8125 0zm24.180115 0l0 -34.546875l4.734375 0l0 34.546875l-4.734375 0zm14.12561 0l0 -30.96875l-5.84375 0l0 -3.578125l16.34375 0l0 3.578125l-5.6875 0l0 30.96875l-4.8125 0zm26.057129 0l-3.96875 -24.65625l3.765625 0l2.546875 18.171875l3.296875 -18.171875l3.5 0l3.28125 18.09375l2.5625 -18.09375l3.75 0l-4.09375 24.65625l-3.84375 0l-3.375 -17.40625l-3.328125 17.40625l-4.09375 0zm22.534973 0l0 -24.65625l4.5625 0l0 24.65625l-4.5625 0zm0 -28.328125l0 -4.765625l4.5625 0l0 4.765625l-4.5625 0zm9.8932495 28.328125l0 -34.546875l4.5625 0l0 34.546875l-4.5625 0zm9.7682495 0l0 -34.546875l4.5625 0l0 34.546875l-4.5625 0z" fill-rule="nonzero"/><path fill="#434343" d="m373.32434 283.72736q-1.328125 0 -2.375 -0.65625q-1.046875 -0.671875 -1.8125 -1.484375l0 1.796875l-4.5625 0l0 -34.546875l4.5625 0l0 11.859375q0.8125 -0.9375 1.9375 -1.625q1.140625 -0.6875 2.71875 -0.6875q1.90625 0 3.03125 1.015625q1.140625 1.0 1.6875 2.515625q0.5625 1.5 0.734375 3.0625q0.171875 1.5625 0.171875 2.671875l0 5.96875q0 2.59375 -0.515625 4.921875q-0.515625 2.328125 -1.84375 3.765625q-1.3125 1.421875 -3.734375 1.421875zm-0.953125 -3.578125q1.203125 0 1.703125 -0.875q0.515625 -0.875 0.640625 -2.375q0.140625 -1.5 0.140625 -3.28125l0 -5.96875q0 -1.546875 -0.171875 -2.84375q-0.171875 -1.296875 -0.734375 -2.0625q-0.546875 -0.765625 -1.734375 -0.765625q-0.90625 0 -1.703125 0.390625q-0.78125 0.375 -1.375 0.84375l0 15.828125q0.59375 0.46875 1.421875 0.796875q0.84375 0.3125 1.8125 0.3125zm18.004791 3.578125q-2.890625 0 -4.46875 -1.125q-1.578125 -1.140625 -2.203125 -3.328125q-0.625 -2.203125 -0.625 -5.40625l0 -5.625q0 -3.28125 0.640625 -5.453125q0.640625 -2.1875 2.234375 -3.296875q1.609375 -1.109375 4.421875 -1.109375q3.125 0 4.59375 1.28125q1.46875 1.28125 1.9375 3.703125q0.46875 2.40625 0.46875 5.765625l0 2.0l-9.734375 0l0 4.953125q0 1.5 0.28125 2.4375q0.28125 0.9375 0.890625 1.390625q0.625 0.4375 1.609375 0.4375q1.015625 0 1.546875 -0.484375q0.546875 -0.5 0.734375 -1.40625q0.1875 -0.921875 0.1875 -2.15625l0 -1.5l4.4375 0l0 0.9375q0 3.71875 -1.578125 5.859375q-1.578125 2.125 -5.375 2.125zm-2.734375 -15.0625l5.25 0l0 -2.21875q0 -1.53125 -0.171875 -2.578125q-0.171875 -1.046875 -0.703125 -1.578125q-0.53125 -0.53125 -1.6875 -0.53125q-1.09375 0 -1.671875 0.515625q-0.578125 0.5 -0.796875 1.71875q-0.21875 1.21875 -0.21875 3.359375l0 1.3125zm32.476532 15.0625q-1.328125 0 -2.375 -0.65625q-1.046875 -0.671875 -1.8125 -1.484375l0 1.796875l-4.5625 0l0 -34.546875l4.5625 0l0 11.859375q0.8125 -0.9375 1.9375 -1.625q1.140625 -0.6875 2.71875 -0.6875q1.90625 0 3.03125 1.015625q1.140625 1.0 1.6875 2.515625q0.5625 1.5 0.734375 3.0625q0.171875 1.5625 0.171875 2.671875l0 5.96875q0 2.59375 -0.515625 4.921875q-0.515625 2.328125 -1.84375 3.765625q-1.3125 1.421875 -3.734375 1.421875zm-0.953125 -3.578125q1.203125 0 1.703125 -0.875q0.515625 -0.875 0.640625 -2.375q0.140625 -1.5 0.140625 -3.28125l0 -5.96875q0 -1.546875 -0.171875 -2.84375q-0.171875 -1.296875 -0.734375 -2.0625q-0.546875 -0.765625 -1.734375 -0.765625q-0.90625 0 -1.703125 0.390625q-0.78125 0.375 -1.375 0.84375l0 15.828125q0.59375 0.46875 1.421875 0.796875q0.84375 0.3125 1.8125 0.3125zm15.614166 3.578125q-1.4375 0 -2.546875 -0.828125q-1.109375 -0.84375 -1.75 -2.140625q-0.640625 -1.296875 -0.640625 -2.75q0 -2.296875 0.765625 -3.875q0.765625 -1.578125 2.109375 -2.671875q1.34375 -1.09375 3.109375 -1.890625q1.78125 -0.8125 3.734375 -1.59375l0 -1.734375q0 -1.5 -0.171875 -2.484375q-0.171875 -0.984375 -0.703125 -1.46875q-0.53125 -0.484375 -1.59375 -0.484375q-0.9375 0 -1.515625 0.421875q-0.578125 0.421875 -0.84375 1.21875q-0.25 0.78125 -0.25 1.84375l0 1.25l-4.515625 -0.171875q0.078125 -4.09375 1.875 -6.03125q1.796875 -1.953125 5.546875 -1.953125q3.671875 0 5.203125 2.015625q1.53125 2.0 1.53125 5.796875l0 11.265625q0 1.140625 0.0625 2.21875q0.0625 1.0625 0.171875 1.984375q0.109375 0.90625 0.203125 1.71875l-4.1875 0q-0.125 -0.6875 -0.328125 -1.71875q-0.1875 -1.046875 -0.265625 -1.90625q-0.4375 1.453125 -1.65625 2.71875q-1.203125 1.25 -3.34375 1.25zm1.796875 -3.921875q0.6875 0 1.28125 -0.375q0.59375 -0.390625 1.0625 -0.875q0.46875 -0.5 0.640625 -0.796875l0 -7.0q-1.0625 0.59375 -2.0 1.203125q-0.9375 0.59375 -1.640625 1.25q-0.703125 0.65625 -1.109375 1.5q-0.40625 0.828125 -0.40625 1.890625q0 1.484375 0.546875 2.34375q0.5625 0.859375 1.625 0.859375zm17.655914 3.921875q-3.03125 0 -4.859375 -1.890625q-1.828125 -1.90625 -2.09375 -5.015625l3.796875 -1.15625q0.34375 2.34375 1.15625 3.515625q0.8125 1.171875 2.390625 1.171875q1.234375 0 1.875 -0.703125q0.640625 -0.703125 0.640625 -1.890625q0 -1.078125 -0.46875 -1.921875q-0.46875 -0.859375 -1.53125 -1.75l-4.234375 -3.625q-1.28125 -1.109375 -2.15625 -2.46875q-0.875 -1.375 -0.875 -3.546875q0 -1.96875 0.78125 -3.3125q0.796875 -1.34375 2.21875 -2.046875q1.4375 -0.703125 3.359375 -0.703125q2.953125 0 4.5 1.90625q1.5625 1.890625 1.78125 4.578125l-3.078125 1.15625q-0.171875 -1.28125 -0.515625 -2.234375q-0.34375 -0.96875 -0.9375 -1.5q-0.59375 -0.53125 -1.578125 -0.53125q-1.109375 0 -1.765625 0.75q-0.65625 0.734375 -0.65625 1.765625q0 0.640625 0.265625 1.265625q0.28125 0.609375 0.96875 1.203125l4.34375 4.015625q0.90625 0.8125 1.6875 1.75q0.796875 0.9375 1.296875 2.140625q0.515625 1.1875 0.515625 2.765625q0 2.09375 -0.859375 3.5q-0.84375 1.40625 -2.390625 2.109375q-1.53125 0.703125 -3.578125 0.703125zm17.062805 0q-2.890625 0 -4.46875 -1.125q-1.578125 -1.140625 -2.203125 -3.328125q-0.625 -2.203125 -0.625 -5.40625l0 -5.625q0 -3.28125 0.640625 -5.453125q0.640625 -2.1875 2.234375 -3.296875q1.609375 -1.109375 4.421875 -1.109375q3.125 0 4.59375 1.28125q1.46875 1.28125 1.9375 3.703125q0.46875 2.40625 0.46875 5.765625l0 2.0l-9.734375 0l0 4.953125q0 1.5 0.28125 2.4375q0.28125 0.9375 0.890625 1.390625q0.625 0.4375 1.609375 0.4375q1.015625 0 1.546875 -0.484375q0.546875 -0.5 0.734375 -1.40625q0.1875 -0.921875 0.1875 -2.15625l0 -1.5l4.4375 0l0 0.9375q0 3.71875 -1.578125 5.859375q-1.578125 2.125 -5.375 2.125zm-2.734375 -15.0625l5.25 0l0 -2.21875q0 -1.53125 -0.171875 -2.578125q-0.171875 -1.046875 -0.703125 -1.578125q-0.53125 -0.53125 -1.6875 -0.53125q-1.09375 0 -1.671875 0.515625q-0.578125 0.5 -0.796875 1.71875q-0.21875 1.21875 -0.21875 3.359375l0 1.3125zm19.583252 15.0625q-3.109375 0 -4.65625 -2.28125q-1.53125 -2.28125 -1.53125 -7.75l0 -4.765625q0 -2.828125 0.46875 -5.234375q0.46875 -2.40625 1.765625 -3.859375q1.3125 -1.453125 3.828125 -1.453125q1.234375 0 2.25 0.5625q1.03125 0.546875 1.84375 1.359375l0 -11.46875l4.5625 0l0 34.546875l-4.5625 0l0 -1.578125q-0.8125 0.859375 -1.78125 1.390625q-0.953125 0.53125 -2.1875 0.53125zm1.15625 -3.578125q0.640625 0 1.359375 -0.234375q0.734375 -0.25 1.453125 -0.71875l0 -16.15625q-0.59375 -0.4375 -1.328125 -0.75q-0.71875 -0.3125 -1.578125 -0.3125q-1.578125 0 -2.140625 1.515625q-0.546875 1.5 -0.546875 3.640625l0 6.953125q0 1.703125 0.1875 3.09375q0.203125 1.390625 0.796875 2.1875q0.609375 0.78125 1.796875 0.78125zm28.528564 3.578125q-2.71875 0 -4.296875 -1.109375q-1.5781555 -1.109375 -2.2500305 -3.15625q-0.65625 -2.046875 -0.65625 -4.828125l0 -7.15625q0 -2.78125 0.65625 -4.828125q0.671875 -2.046875 2.2500305 -3.15625q1.578125 -1.109375 4.296875 -1.109375q2.734375 0 4.28125 1.109375q1.5625 1.109375 2.21875 3.15625q0.671875 2.046875 0.671875 4.828125l0 7.15625q0 2.78125 -0.671875 4.828125q-0.65625 2.046875 -2.21875 3.15625q-1.546875 1.109375 -4.28125 1.109375zm0 -3.375q1.328125 0 1.859375 -0.765625q0.53125 -0.765625 0.640625 -2.015625q0.109375 -1.265625 0.109375 -2.640625l0 -7.71875q0 -1.40625 -0.109375 -2.640625q-0.109375 -1.234375 -0.640625 -2.015625q-0.53125 -0.796875 -1.859375 -0.796875q-1.3125 0 -1.875 0.796875q-0.546875 0.78125 -0.65625 2.015625q-0.109375 1.234375 -0.109375 2.640625l0 7.71875q0 1.375 0.109375 2.640625q0.109375 1.25 0.65625 2.015625q0.5625 0.765625 1.875 0.765625zm12.80072 3.03125l0 -21.28125l-2.9375 0l0 -3.375l2.9375 0l0 -1.28125q0 -2.296875 0.359375 -3.9375q0.375 -1.640625 1.515625 -2.53125q1.15625 -0.90625 3.453125 -0.90625q0.859375 0 1.515625 0.0625q0.671875 0.0625 1.484375 0.234375l0 3.328125q-0.390625 -0.09375 -0.859375 -0.15625q-0.46875 -0.0625 -0.859375 -0.0625q-1.3125 0 -1.6875 0.875q-0.359375 0.875 -0.359375 2.328125l0 2.046875l3.765625 0l0 3.375l-3.765625 0l0 21.28125l-4.5625 0zm11.140625 0l0 -21.28125l-2.9375 0l0 -3.375l2.9375 0l0 -1.28125q0 -2.296875 0.359375 -3.9375q0.375 -1.640625 1.515625 -2.53125q1.15625 -0.90625 3.453125 -0.90625q0.859375 0 1.515625 0.0625q0.671875 0.0625 1.484375 0.234375l0 3.328125q-0.390625 -0.09375 -0.859375 -0.15625q-0.46875 -0.0625 -0.859375 -0.0625q-1.3125 0 -1.6875 0.875q-0.359375 0.875 -0.359375 2.328125l0 2.046875l3.765625 0l0 3.375l-3.765625 0l0 21.28125l-4.5625 0zm27.33136 0.34375q-2.71875 0 -4.296875 -1.109375q-1.578125 -1.109375 -2.25 -3.15625q-0.65625 -2.046875 -0.65625 -4.828125l0 -7.15625q0 -2.78125 0.65625 -4.828125q0.671875 -2.046875 2.25 -3.15625q1.578125 -1.109375 4.296875 -1.109375q2.734375 0 4.28125 1.109375q1.5625 1.109375 2.21875 3.15625q0.671875 2.046875 0.671875 4.828125l0 7.15625q0 2.78125 -0.671875 4.828125q-0.65625 2.046875 -2.21875 3.15625q-1.546875 1.109375 -4.28125 1.109375zm0 -3.375q1.328125 0 1.859375 -0.765625q0.53125 -0.765625 0.640625 -2.015625q0.109375 -1.265625 0.109375 -2.640625l0 -7.71875q0 -1.40625 -0.109375 -2.640625q-0.109375 -1.234375 -0.640625 -2.015625q-0.53125 -0.796875 -1.859375 -0.796875q-1.3125 0 -1.875 0.796875q-0.546875 0.78125 -0.65625 2.015625q-0.109375 1.234375 -0.109375 2.640625l0 7.71875q0 1.375 0.109375 2.640625q0.109375 1.25 0.65625 2.015625q0.5625 0.765625 1.875 0.765625zm12.800781 3.03125l0 -21.28125l-2.9375 0l0 -3.375l2.9375 0l0 -1.28125q0 -2.296875 0.359375 -3.9375q0.375 -1.640625 1.515625 -2.53125q1.15625 -0.90625 3.453125 -0.90625q0.859375 0 1.515625 0.0625q0.671875 0.0625 1.484375 0.234375l0 3.328125q-0.390625 -0.09375 -0.859375 -0.15625q-0.46875 -0.0625 -0.859375 -0.0625q-1.3125 0 -1.6875 0.875q-0.359375 0.875 -0.359375 2.328125l0 2.046875l3.765625 0l0 3.375l-3.765625 0l0 21.28125l-4.5625 0zm9.9887085 0l0 -5.078125l4.5625 0l0 5.078125l-4.5625 0z" fill-rule="nonzero"/><path fill="#434343" d="m269.535 385.78357l0 -30.96875l-5.84375 0l0 -3.578125l16.34375 0l0 3.578125l-5.6875 0l0 30.96875l-4.8125 0zm13.570129 0l0 -24.65625l4.5625 0l0 3.5q1.359375 -2.265625 2.71875 -3.03125q1.375 -0.765625 2.734375 -0.765625q0.171875 0 0.3125 0q0.15625 0 0.421875 0.046875l0 5.03125q-0.515625 -0.21875 -1.1875 -0.359375q-0.65625 -0.15625 -1.34375 -0.15625q-1.0625 0 -1.9375 0.5q-0.875 0.484375 -1.71875 1.890625l0 18.0l-4.5625 0zm13.177032 6.1875l0 -3.5q1.65625 0 2.640625 -0.15625q0.984375 -0.140625 1.40625 -0.546875q0.421875 -0.40625 0.421875 -1.125q0 -0.390625 -0.296875 -1.703125q-0.296875 -1.328125 -0.640625 -2.828125l-4.9375 -20.984375l4.609375 0l3.328125 18.421875l3.1875 -18.421875l4.609375 0l-5.890625 26.015625q-0.375 1.796875 -1.40625 2.84375q-1.015625 1.046875 -2.625 1.515625q-1.59375 0.46875 -3.859375 0.46875l-0.546875 0zm33.442596 -5.84375q-1.921875 0 -3.09375 -0.71875q-1.171875 -0.734375 -1.703125 -2.046875q-0.53125 -1.328125 -0.53125 -3.125l0 -16.078125l-2.609375 0l0 -3.03125l2.609375 0l0 -7.203125l4.5625 0l0 7.203125l3.96875 0l0 3.03125l-3.96875 0l0 15.78125q0 1.453125 0.46875 2.078125q0.46875 0.609375 1.78125 0.609375q0.34375 0 0.796875 -0.03125q0.453125 -0.046875 0.875 -0.09375l0 3.359375q-0.859375 0.140625 -1.59375 0.203125q-0.71875 0.0625 -1.5625 0.0625zm13.341248 0q-2.71875 0 -4.296875 -1.109375q-1.578125 -1.109375 -2.25 -3.15625q-0.65625 -2.046875 -0.65625 -4.828125l0 -7.15625q0 -2.78125 0.65625 -4.828125q0.671875 -2.046875 2.25 -3.15625q1.578125 -1.109375 4.296875 -1.109375q2.734375 0 4.28125 1.109375q1.5625 1.109375 2.21875 3.15625q0.671875 2.046875 0.671875 4.828125l0 7.15625q0 2.78125 -0.671875 4.828125q-0.65625 2.046875 -2.21875 3.15625q-1.546875 1.109375 -4.28125 1.109375zm0 -3.375q1.328125 0 1.859375 -0.765625q0.53125 -0.765625 0.640625 -2.015625q0.109375 -1.265625 0.109375 -2.640625l0 -7.71875q0 -1.40625 -0.109375 -2.640625q-0.109375 -1.234375 -0.640625 -2.015625q-0.53125 -0.796875 -1.859375 -0.796875q-1.3125 0 -1.875 0.796875q-0.546875 0.78125 -0.65625 2.015625q-0.109375 1.234375 -0.109375 2.640625l0 7.71875q0 1.375 0.109375 2.640625q0.109375 1.25 0.65625 2.015625q0.5625 0.765625 1.875 0.765625zm21.2565 3.03125l0 -24.65625l4.5625 0l0 3.5q1.359375 -2.265625 2.71875 -3.03125q1.375 -0.765625 2.734375 -0.765625q0.171875 0 0.3125 0q0.15625 0 0.421875 0.046875l0 5.03125q-0.515625 -0.21875 -1.1875 -0.359375q-0.65625 -0.15625 -1.34375 -0.15625q-1.0625 0 -1.9375 0.5q-0.875 0.484375 -1.71875 1.890625l0 18.0l-4.5625 0zm20.380157 0.34375q-2.890625 0 -4.46875 -1.125q-1.578125 -1.140625 -2.203125 -3.328125q-0.625 -2.203125 -0.625 -5.40625l0 -5.625q0 -3.28125 0.640625 -5.453125q0.640625 -2.1875 2.234375 -3.296875q1.609375 -1.109375 4.421875 -1.109375q3.125 0 4.59375 1.28125q1.46875 1.28125 1.9375 3.703125q0.46875 2.40625 0.46875 5.765625l0 2.0l-9.734375 0l0 4.953125q0 1.5 0.28125 2.4375q0.28125 0.9375 0.890625 1.390625q0.625 0.4375 1.609375 0.4375q1.015625 0 1.546875 -0.484375q0.546875 -0.5 0.734375 -1.40625q0.1875 -0.921875 0.1875 -2.15625l0 -1.5l4.4375 0l0 0.9375q0 3.71875 -1.578125 5.859375q-1.578125 2.125 -5.375 2.125zm-2.734375 -15.0625l5.25 0l0 -2.21875q0 -1.53125 -0.171875 -2.578125q-0.171875 -1.046875 -0.703125 -1.578125q-0.53125 -0.53125 -1.6875 -0.53125q-1.09375 0 -1.671875 0.515625q-0.578125 0.5 -0.796875 1.71875q-0.21875 1.21875 -0.21875 3.359375l0 1.3125zm18.302002 15.0625q-1.4375 0 -2.546875 -0.828125q-1.109375 -0.84375 -1.75 -2.140625q-0.640625 -1.296875 -0.640625 -2.75q0 -2.296875 0.765625 -3.875q0.765625 -1.578125 2.109375 -2.671875q1.34375 -1.09375 3.109375 -1.890625q1.78125 -0.8125 3.734375 -1.59375l0 -1.734375q0 -1.5 -0.171875 -2.484375q-0.171875 -0.984375 -0.703125 -1.46875q-0.53125 -0.484375 -1.59375 -0.484375q-0.9375 0 -1.515625 0.421875q-0.578125 0.421875 -0.84375 1.21875q-0.25 0.78125 -0.25 1.84375l0 1.25l-4.515625 -0.171875q0.078125 -4.09375 1.875 -6.03125q1.796875 -1.953125 5.546875 -1.953125q3.671875 0 5.203125 2.015625q1.53125 2.0 1.53125 5.796875l0 11.265625q0 1.140625 0.0625 2.21875q0.0625 1.0625 0.171875 1.984375q0.109375 0.90625 0.203125 1.71875l-4.1875 0q-0.125 -0.6875 -0.328125 -1.71875q-0.1875 -1.046875 -0.265625 -1.90625q-0.4375 1.453125 -1.65625 2.71875q-1.203125 1.25 -3.34375 1.25zm1.796875 -3.921875q0.6875 0 1.28125 -0.375q0.59375 -0.390625 1.0625 -0.875q0.46875 -0.5 0.640625 -0.796875l0 -7.0q-1.0625 0.59375 -2.0 1.203125q-0.9375 0.59375 -1.640625 1.25q-0.703125 0.65625 -1.109375 1.5q-0.40625 0.828125 -0.40625 1.890625q0 1.484375 0.546875 2.34375q0.5625 0.859375 1.625 0.859375zm18.687164 3.921875q-3.03125 0 -4.59375 -1.21875q-1.546875 -1.21875 -2.09375 -3.4375q-0.53125 -2.21875 -0.53125 -5.15625l0 -5.671875q0 -3.109375 0.546875 -5.3125q0.5625 -2.203125 2.125 -3.375q1.5625 -1.171875 4.546875 -1.171875q2.6875 0 4.15625 0.875q1.46875 0.875 2.015625 2.609375q0.5625 1.71875 0.5625 4.28125l0 1.453125l-4.140625 0l0 -1.5q0 -1.609375 -0.21875 -2.546875q-0.203125 -0.953125 -0.765625 -1.375q-0.546875 -0.421875 -1.578125 -0.421875q-1.09375 0 -1.703125 0.515625q-0.59375 0.5 -0.796875 1.71875q-0.1875 1.21875 -0.1875 3.3125l0 7.765625q0 3.15625 0.59375 4.21875q0.609375 1.0625 2.140625 1.0625q1.15625 0 1.6875 -0.53125q0.53125 -0.53125 0.671875 -1.515625q0.15625 -0.984375 0.15625 -2.21875l0 -2.0l4.140625 0l0 1.703125q0 2.46875 -0.578125 4.265625q-0.578125 1.796875 -2.046875 2.734375q-1.46875 0.9375 -4.109375 0.9375zm10.922302 -0.34375l0 -34.546875l4.5625 0l0 12.453125q1.234375 -1.203125 2.765625 -2.046875q1.53125 -0.859375 3.421875 -0.859375q1.4375 0 2.21875 0.78125q0.796875 0.765625 1.109375 1.921875q0.328125 1.140625 0.328125 2.328125l0 19.96875l-4.5625 0l0 -18.640625q0 -1.328125 -0.390625 -2.046875q-0.375 -0.71875 -1.5625 -0.71875q-0.8125 0 -1.6875 0.46875q-0.875 0.46875 -1.640625 1.140625l0 19.796875l-4.5625 0zm35.187744 0.34375q-1.921875 0 -3.09375 -0.71875q-1.171875 -0.734375 -1.703125 -2.046875q-0.53125 -1.328125 -0.53125 -3.125l0 -16.078125l-2.609375 0l0 -3.03125l2.609375 0l0 -7.203125l4.5625 0l0 7.203125l3.96875 0l0 3.03125l-3.96875 0l0 15.78125q0 1.453125 0.46875 2.078125q0.46875 0.609375 1.78125 0.609375q0.34375 0 0.796875 -0.03125q0.453125 -0.046875 0.875 -0.09375l0 3.359375q-0.859375 0.140625 -1.59375 0.203125q-0.71875 0.0625 -1.5625 0.0625zm6.7006226 -0.34375l0 -34.546875l4.5625 0l0 12.453125q1.234375 -1.203125 2.765625 -2.046875q1.53125 -0.859375 3.421875 -0.859375q1.4375 0 2.21875 0.78125q0.796875 0.765625 1.109375 1.921875q0.328125 1.140625 0.328125 2.328125l0 19.96875l-4.5625 0l0 -18.640625q0 -1.328125 -0.390625 -2.046875q-0.375 -0.71875 -1.5625 -0.71875q-0.8125 0 -1.6875 0.46875q-0.875 0.46875 -1.640625 1.140625l0 19.796875l-4.5625 0zm25.669495 0.34375q-2.890625 0 -4.46875 -1.125q-1.578125 -1.140625 -2.203125 -3.328125q-0.625 -2.203125 -0.625 -5.40625l0 -5.625q0 -3.28125 0.640625 -5.453125q0.640625 -2.1875 2.234375 -3.296875q1.609375 -1.109375 4.421875 -1.109375q3.125 0 4.59375 1.28125q1.46875 1.28125 1.9375 3.703125q0.46875 2.40625 0.46875 5.765625l0 2.0l-9.734375 0l0 4.953125q0 1.5 0.28125 2.4375q0.28125 0.9375 0.890625 1.390625q0.625 0.4375 1.609375 0.4375q1.015625 0 1.546875 -0.484375q0.546875 -0.5 0.734375 -1.40625q0.1875 -0.921875 0.1875 -2.15625l0 -1.5l4.4375 0l0 0.9375q0 3.71875 -1.578125 5.859375q-1.578125 2.125 -5.375 2.125zm-2.734375 -15.0625l5.25 0l0 -2.21875q0 -1.53125 -0.171875 -2.578125q-0.171875 -1.046875 -0.703125 -1.578125q-0.53125 -0.53125 -1.6875 -0.53125q-1.09375 0 -1.671875 0.515625q-0.578125 0.5 -0.796875 1.71875q-0.21875 1.21875 -0.21875 3.359375l0 1.3125zm23.773376 14.71875l0 -24.65625l4.5625 0l0 3.5q1.359375 -2.265625 2.71875 -3.03125q1.375 -0.765625 2.734375 -0.765625q0.171875 0 0.3125 0q0.15625 0 0.421875 0.046875l0 5.03125q-0.515625 -0.21875 -1.1875 -0.359375q-0.65625 -0.15625 -1.34375 -0.15625q-1.0625 0 -1.9375 0.5q-0.875 0.484375 -1.71875 1.890625l0 18.0l-4.5625 0zm20.380188 0.34375q-2.890625 0 -4.46875 -1.125q-1.578125 -1.140625 -2.203125 -3.328125q-0.625 -2.203125 -0.625 -5.40625l0 -5.625q0 -3.28125 0.640625 -5.453125q0.640625 -2.1875 2.234375 -3.296875q1.609375 -1.109375 4.421875 -1.109375q3.125 0 4.59375 1.28125q1.46875 1.28125 1.9375 3.703125q0.46875 2.40625 0.46875 5.765625l0 2.0l-9.734375 0l0 4.953125q0 1.5 0.28125 2.4375q0.28125 0.9375 0.890625 1.390625q0.625 0.4375 1.609375 0.4375q1.015625 0 1.546875 -0.484375q0.546875 -0.5 0.734375 -1.40625q0.1875 -0.921875 0.1875 -2.15625l0 -1.5l4.4375 0l0 0.9375q0 3.71875 -1.578125 5.859375q-1.578125 2.125 -5.375 2.125zm-2.734375 -15.0625l5.25 0l0 -2.21875q0 -1.53125 -0.171875 -2.578125q-0.171875 -1.046875 -0.703125 -1.578125q-0.53125 -0.53125 -1.6875 -0.53125q-1.09375 0 -1.671875 0.515625q-0.578125 0.5 -0.796875 1.71875q-0.21875 1.21875 -0.21875 3.359375l0 1.3125zm19.583252 15.0625q-3.109375 0 -4.65625 -2.28125q-1.53125 -2.28125 -1.53125 -7.75l0 -4.765625q0 -2.828125 0.46875 -5.234375q0.46875 -2.40625 1.765625 -3.859375q1.3125 -1.453125 3.828125 -1.453125q1.234375 0 2.25 0.5625q1.03125 0.546875 1.84375 1.359375l0 -11.46875l4.5625 0l0 34.546875l-4.5625 0l0 -1.578125q-0.8125 0.859375 -1.78125 1.390625q-0.953125 0.53125 -2.1875 0.53125zm1.15625 -3.578125q0.640625 0 1.359375 -0.234375q0.734375 -0.25 1.453125 -0.71875l0 -16.15625q-0.59375 -0.4375 -1.328125 -0.75q-0.71875 -0.3125 -1.578125 -0.3125q-1.578125 0 -2.140625 1.515625q-0.546875 1.5 -0.546875 3.640625l0 6.953125q0 1.703125 0.1875 3.09375q0.203125 1.390625 0.796875 2.1875q0.609375 0.78125 1.796875 0.78125zm21.747314 3.234375l0 -24.65625l4.234375 0l0 2.34375q1.234375 -1.40625 2.71875 -2.078125q1.5 -0.6875 3.078125 -0.6875q1.359375 0 2.453125 0.6875q1.09375 0.671875 1.5625 2.421875q1.3125 -1.625 2.875 -2.359375q1.5625 -0.75 3.265625 -0.75q1.1875 0 2.171875 0.578125q0.984375 0.5625 1.578125 1.828125q0.59375 1.265625 0.59375 3.3125l0 19.359375l-4.171875 0l0 -19.0625q0 -1.796875 -0.578125 -2.40625q-0.578125 -0.625 -1.5625 -0.625q-0.9375 0 -1.96875 0.53125q-1.015625 0.53125 -1.875 1.46875q0 0.171875 0 0.34375q0 0.171875 0 0.390625l0 19.359375l-4.171875 0l0 -19.0625q0 -1.796875 -0.578125 -2.40625q-0.578125 -0.625 -1.5625 -0.625q-0.9375 0 -1.9375 0.53125q-1.0 0.53125 -1.890625 1.46875l0 20.09375l-4.234375 0zm33.443726 0.34375q-1.4375 0 -2.546875 -0.828125q-1.109375 -0.84375 -1.75 -2.140625q-0.640625 -1.296875 -0.640625 -2.75q0 -2.296875 0.765625 -3.875q0.765625 -1.578125 2.109375 -2.671875q1.34375 -1.09375 3.109375 -1.890625q1.78125 -0.8125 3.734375 -1.59375l0 -1.734375q0 -1.5 -0.171875 -2.484375q-0.171875 -0.984375 -0.703125 -1.46875q-0.53125 -0.484375 -1.59375 -0.484375q-0.9375 0 -1.515625 0.421875q-0.578125 0.421875 -0.84375 1.21875q-0.25 0.78125 -0.25 1.84375l0 1.25l-4.515625 -0.171875q0.078125 -4.09375 1.875 -6.03125q1.796875 -1.953125 5.546875 -1.953125q3.671875 0 5.203125 2.015625q1.53125 2.0 1.53125 5.796875l0 11.265625q0 1.140625 0.0625 2.21875q0.0625 1.0625 0.171875 1.984375q0.109375 0.90625 0.203125 1.71875l-4.1875 0q-0.125 -0.6875 -0.328125 -1.71875q-0.1875 -1.046875 -0.265625 -1.90625q-0.4375 1.453125 -1.65625 2.71875q-1.203125 1.25 -3.34375 1.25zm1.796875 -3.921875q0.6875 0 1.28125 -0.375q0.59375 -0.390625 1.0625 -0.875q0.46875 -0.5 0.640625 -0.796875l0 -7.0q-1.0625 0.59375 -2.0 1.203125q-0.9375 0.59375 -1.640625 1.25q-0.703125 0.65625 -1.109375 1.5q-0.40625 0.828125 -0.40625 1.890625q0 1.484375 0.546875 2.34375q0.5625 0.859375 1.625 0.859375zm12.077759 3.578125l0 -24.65625l4.5625 0l0 3.5q1.359375 -2.265625 2.71875 -3.03125q1.375 -0.765625 2.734375 -0.765625q0.171875 0 0.3125 0q0.15625 0 0.421875 0.046875l0 5.03125q-0.515625 -0.21875 -1.1875 -0.359375q-0.65625 -0.15625 -1.34375 -0.15625q-1.0625 0 -1.9375 0.5q-0.875 0.484375 -1.71875 1.890625l0 18.0l-4.5625 0zm13.645813 -0.046875l0 -34.546875l4.5625 0l0 20.609375l6.65625 -10.671875l4.78125 0l-5.8125 9.640625l5.640625 15.015625l-4.5625 0l-4.609375 -12.625l-2.09375 3.15625l0 9.421875l-4.5625 0zm25.033875 0.390625q-2.890625 0 -4.46875 -1.125q-1.578125 -1.140625 -2.203125 -3.328125q-0.625 -2.203125 -0.625 -5.40625l0 -5.625q0 -3.28125 0.640625 -5.453125q0.640625 -2.1875 2.234375 -3.296875q1.609375 -1.109375 4.421875 -1.109375q3.125 0 4.59375 1.28125q1.46875 1.28125 1.9375 3.703125q0.46875 2.40625 0.46875 5.765625l0 2.0l-9.734375 0l0 4.953125q0 1.5 0.28125 2.4375q0.28125 0.9375 0.890625 1.390625q0.625 0.4375 1.609375 0.4375q1.015625 0 1.546875 -0.484375q0.546875 -0.5 0.734375 -1.40625q0.1875 -0.921875 0.1875 -2.15625l0 -1.5l4.4375 0l0 0.9375q0 3.71875 -1.578125 5.859375q-1.578125 2.125 -5.375 2.125zm-2.734375 -15.0625l5.25 0l0 -2.21875q0 -1.53125 -0.171875 -2.578125q-0.171875 -1.046875 -0.703125 -1.578125q-0.53125 -0.53125 -1.6875 -0.53125q-1.09375 0 -1.671875 0.515625q-0.578125 0.5 -0.796875 1.71875q-0.21875 1.21875 -0.21875 3.359375l0 1.3125zm14.005127 14.71875l0 -24.65625l4.5625 0l0 3.5q1.359375 -2.265625 2.71875 -3.03125q1.375 -0.765625 2.734375 -0.765625q0.171875 0 0.3125 0q0.15625 0 0.421875 0.046875l0 5.03125q-0.515625 -0.21875 -1.1875 -0.359375q-0.65625 -0.15625 -1.34375 -0.15625q-1.0625 0 -1.9375 0.5q-0.875 0.484375 -1.71875 1.890625l0 18.0l-4.5625 0zm13.348877 0l0 -5.078125l4.5625 0l0 5.078125l-4.5625 0z" fill-rule="nonzero"/></g></svg>