<svg version="1.1" viewBox="0.0 0.0 960.0 540.0" fill="none" stroke="none" stroke-linecap="square" stroke-miterlimit="10" xmlns:xlink="http://www.w3.org/1999/xlink" xmlns="http://www.w3.org/2000/svg"><clipPath id="ge065cb58f1_0_100.0"><path d="m0 0l960.0 0l0 540.0l-960.0 0l0 -540.0z" clip-rule="nonzero"/></clipPath><g clip-path="url(#ge065cb58f1_0_100.0)"><path fill="#ffffff" d="m0 0l960.0 0l0 540.0l-960.0 0z" fill-rule="evenodd"/><path fill="#000000" fill-opacity="0.0" d="m184.15749 169.81102l591.68506 0l0 155.11812l-591.68506 0z" fill-rule="evenodd"/><path fill="#666666" d="m247.3582 215.02602q-2.84375 0 -4.546875 -1.203125q-1.6875 -1.21875 -2.453125 -3.53125q-0.765625 -2.328125 -0.765625 -5.5625l0 -10.125q0 -3.328125 0.6875 -5.65625q0.6875 -2.328125 2.453125 -3.5625q1.78125 -1.234375 4.953125 -1.234375q2.84375 0 4.578125 0.953125q1.734375 0.953125 2.515625 2.921875q0.78125 1.953125 0.78125 4.9375l0 1.125l-3.953125 0l0 -0.9375q0 -1.984375 -0.265625 -3.234375q-0.265625 -1.25 -1.0625 -1.859375q-0.796875 -0.625 -2.515625 -0.625q-1.875 0 -2.71875 0.859375q-0.828125 0.859375 -1.03125 2.34375q-0.203125 1.46875 -0.203125 3.328125l0 11.203125q0 2.171875 0.3125 3.625q0.3125 1.453125 1.203125 2.171875q0.90625 0.703125 2.546875 0.703125q1.640625 0 2.53125 -0.78125q0.90625 -0.78125 1.234375 -2.3125q0.34375 -1.53125 0.34375 -3.8125l0 -2.09375l-3.84375 0l0 -2.984375l7.65625 0l0 14.96875l-2.65625 0l-0.40625 -3.46875q-0.609375 1.671875 -1.875 2.765625q-1.265625 1.078125 -3.5 1.078125zm18.361221 -0.078125q-2.390625 0 -3.78125 -0.96875q-1.375 -0.96875 -1.953125 -2.75q-0.578125 -1.796875 -0.578125 -4.234375l0 -6.265625q0 -2.421875 0.578125 -4.21875q0.578125 -1.796875 1.953125 -2.765625q1.390625 -0.96875 3.78125 -0.96875q2.390625 0 3.75 0.96875q1.359375 0.96875 1.9375 2.765625q0.578125 1.796875 0.578125 4.21875l0 6.265625q0 2.4375 -0.578125 4.234375q-0.578125 1.78125 -1.9375 2.75q-1.359375 0.96875 -3.75 0.96875zm0 -2.953125q1.15625 0 1.625 -0.671875q0.46875 -0.671875 0.5625 -1.765625q0.09375 -1.109375 0.09375 -2.296875l0 -6.75q0 -1.234375 -0.09375 -2.3125q-0.09375 -1.09375 -0.5625 -1.78125q-0.46875 -0.6875 -1.625 -0.6875q-1.15625 0 -1.640625 0.6875q-0.484375 0.6875 -0.578125 1.78125q-0.09375 1.078125 -0.09375 2.3125l0 6.75q0 1.1875 0.09375 2.296875q0.09375 1.09375 0.578125 1.765625q0.484375 0.671875 1.640625 0.671875zm15.864502 2.953125q-2.390625 0 -3.78125 -0.96875q-1.375 -0.96875 -1.953125 -2.75q-0.578125 -1.796875 -0.578125 -4.234375l0 -6.265625q0 -2.421875 0.578125 -4.21875q0.578125 -1.796875 1.953125 -2.765625q1.390625 -0.96875 3.78125 -0.96875q2.390625 0 3.75 0.96875q1.359375 0.96875 1.9375 2.765625q0.578125 1.796875 0.578125 4.21875l0 6.265625q0 2.4375 -0.578125 4.234375q-0.578125 1.78125 -1.9375 2.75q-1.359375 0.96875 -3.75 0.96875zm0 -2.953125q1.15625 0 1.625 -0.671875q0.46875 -0.671875 0.5625 -1.765625q0.09375 -1.109375 0.09375 -2.296875l0 -6.75q0 -1.234375 -0.09375 -2.3125q-0.09375 -1.09375 -0.5625 -1.78125q-0.46875 -0.6875 -1.625 -0.6875q-1.15625 0 -1.640625 0.6875q-0.484375 0.6875 -0.578125 1.78125q-0.09375 1.078125 -0.09375 2.3125l0 6.75q0 1.1875 0.09375 2.296875q0.09375 1.09375 0.578125 1.765625q0.484375 0.671875 1.640625 0.671875zm14.927002 2.953125q-2.71875 0 -4.0625 -2.0q-1.34375 -2.0 -1.34375 -6.765625l0 -4.1875q0 -2.46875 0.40625 -4.578125q0.40625 -2.109375 1.546875 -3.375q1.140625 -1.265625 3.34375 -1.265625q1.078125 0 1.96875 0.484375q0.90625 0.484375 1.609375 1.203125l0 -10.046875l4.0 0l0 30.234375l-4.0 0l0 -1.375q-0.703125 0.734375 -1.546875 1.203125q-0.84375 0.46875 -1.921875 0.46875zm1.015625 -3.140625q0.546875 0 1.1875 -0.203125q0.640625 -0.203125 1.265625 -0.609375l0 -14.15625q-0.515625 -0.359375 -1.15625 -0.640625q-0.625 -0.28125 -1.375 -0.28125q-1.390625 0 -1.875 1.328125q-0.484375 1.3125 -0.484375 3.1875l0 6.078125q0 1.5 0.171875 2.71875q0.171875 1.203125 0.6875 1.890625q0.53125 0.6875 1.578125 0.6875zm19.406647 2.84375l0 -30.234375l4.0 0l0 30.234375l-4.0 0zm11.266907 0.296875q-1.265625 0 -1.984375 -0.671875q-0.703125 -0.671875 -0.984375 -1.671875q-0.28125 -1.015625 -0.28125 -2.0625l0 -17.46875l4.0 0l0 16.28125q0 1.15625 0.328125 1.8125q0.34375 0.640625 1.390625 0.640625q0.671875 0 1.390625 -0.390625q0.734375 -0.390625 1.40625 -0.953125l0 -17.390625l4.0 0l0 21.578125l-4.0 0l0 -2.125q-1.046875 1.0 -2.375 1.71875q-1.3125 0.703125 -2.890625 0.703125zm19.221313 0q-2.640625 0 -4.015625 -1.0625q-1.359375 -1.0625 -1.828125 -3.0q-0.453125 -1.953125 -0.453125 -4.515625l0 -4.96875q0 -2.71875 0.484375 -4.640625q0.484375 -1.9375 1.84375 -2.953125q1.359375 -1.03125 3.96875 -1.03125q2.359375 0 3.640625 0.765625q1.296875 0.765625 1.78125 2.28125q0.484375 1.515625 0.484375 3.75l0 1.265625l-3.625 0l0 -1.3125q0 -1.40625 -0.1875 -2.21875q-0.1875 -0.828125 -0.671875 -1.203125q-0.484375 -0.375 -1.375 -0.375q-0.96875 0 -1.5 0.453125q-0.515625 0.4375 -0.6875 1.5q-0.171875 1.0625 -0.171875 2.890625l0 6.796875q0 2.765625 0.515625 3.703125q0.53125 0.921875 1.875 0.921875q1.015625 0 1.46875 -0.453125q0.46875 -0.46875 0.59375 -1.328125q0.140625 -0.859375 0.140625 -1.953125l0 -1.75l3.625 0l0 1.5q0 2.15625 -0.515625 3.734375q-0.5 1.5625 -1.78125 2.390625q-1.28125 0.8125 -3.609375 0.8125zm9.529388 -0.328125l0 -30.234375l3.984375 0l0 18.015625l5.828125 -9.328125l4.1875 0l-5.078125 8.4375l4.921875 13.140625l-4.0 0l-4.03125 -11.046875l-1.828125 2.765625l0 8.25l-3.984375 0zm16.045074 4.921875l-0.625 -1.71875q1.0 -0.328125 1.578125 -1.171875q0.578125 -0.84375 0.578125 -2.0l-2.125 0l0 -4.296875l4.109375 0l0 4.21875q0 1.984375 -0.859375 3.15625q-0.859375 1.171875 -2.65625 1.8125zm19.294159 -4.59375q-1.265625 0 -2.234375 -0.71875q-0.96875 -0.734375 -1.53125 -1.875q-0.5625 -1.140625 -0.5625 -2.40625q0 -2.015625 0.671875 -3.390625q0.671875 -1.390625 1.84375 -2.34375q1.1875 -0.953125 2.734375 -1.65625q1.546875 -0.703125 3.265625 -1.375l0 -1.53125q0 -1.3125 -0.15625 -2.171875q-0.140625 -0.859375 -0.609375 -1.28125q-0.46875 -0.4375 -1.40625 -0.4375q-0.8125 0 -1.328125 0.375q-0.5 0.375 -0.71875 1.0625q-0.21875 0.6875 -0.21875 1.625l0 1.078125l-3.953125 -0.140625q0.0625 -3.59375 1.625 -5.28125q1.578125 -1.703125 4.859375 -1.703125q3.21875 0 4.5625 1.765625q1.34375 1.75 1.34375 5.0625l0 9.859375q0 1.0 0.046875 1.9375q0.0625 0.9375 0.15625 1.75q0.09375 0.796875 0.171875 1.5l-3.671875 0q-0.109375 -0.59375 -0.28125 -1.5q-0.15625 -0.921875 -0.234375 -1.671875q-0.375 1.265625 -1.4375 2.375q-1.0625 1.09375 -2.9375 1.09375zm1.578125 -3.4375q0.59375 0 1.109375 -0.328125q0.53125 -0.34375 0.9375 -0.765625q0.40625 -0.4375 0.5625 -0.6875l0 -6.125q-0.9375 0.515625 -1.765625 1.046875q-0.8125 0.515625 -1.4375 1.09375q-0.609375 0.578125 -0.96875 1.3125q-0.34375 0.71875 -0.34375 1.65625q0 1.3125 0.484375 2.0625q0.484375 0.734375 1.421875 0.734375zm10.4487 3.140625l0 -21.578125l4.0 0l0 2.125q1.078125 -1.0 2.375 -1.703125q1.3125 -0.71875 2.875 -0.71875q1.3125 0 2.0 0.671875q0.6875 0.671875 0.96875 1.6875q0.28125 1.0 0.28125 2.046875l0 17.46875l-3.984375 0l0 -16.3125q0 -1.15625 -0.34375 -1.78125q-0.328125 -0.640625 -1.375 -0.640625q-0.671875 0 -1.40625 0.390625q-0.71875 0.390625 -1.390625 0.953125l0 17.390625l-4.0 0zm21.387115 0.296875q-2.71875 0 -4.0625 -2.0q-1.34375 -2.0 -1.34375 -6.765625l0 -4.1875q0 -2.46875 0.40625 -4.578125q0.40625 -2.109375 1.546875 -3.375q1.140625 -1.265625 3.34375 -1.265625q1.078125 0 1.96875 0.484375q0.90625 0.484375 1.609375 1.203125l0 -10.046875l4.0 0l0 30.234375l-4.0 0l0 -1.375q-0.703125 0.734375 -1.546875 1.203125q-0.84375 0.46875 -1.921875 0.46875zm1.015625 -3.140625q0.546875 0 1.1875 -0.203125q0.640625 -0.203125 1.265625 -0.609375l0 -14.15625q-0.515625 -0.359375 -1.15625 -0.640625q-0.625 -0.28125 -1.375 -0.28125q-1.390625 0 -1.875 1.328125q-0.484375 1.3125 -0.484375 3.1875l0 6.078125q0 1.5 0.171875 2.71875q0.171875 1.203125 0.6875 1.890625q0.53125 0.6875 1.578125 0.6875zm19.140991 2.84375l0 -21.578125l4.0 0l0 3.0625q1.1875 -1.984375 2.375 -2.65625q1.203125 -0.671875 2.40625 -0.671875q0.140625 0 0.265625 0q0.140625 0 0.359375 0.046875l0 4.40625q-0.4375 -0.1875 -1.03125 -0.3125q-0.578125 -0.140625 -1.171875 -0.140625q-0.921875 0 -1.6875 0.4375q-0.765625 0.421875 -1.515625 1.65625l0 15.75l-4.0 0zm17.841736 0.296875q-2.53125 0 -3.921875 -0.984375q-1.375 -1.0 -1.921875 -2.921875q-0.53125 -1.921875 -0.53125 -4.71875l0 -4.921875q0 -2.875 0.546875 -4.78125q0.5625 -1.90625 1.96875 -2.875q1.40625 -0.96875 3.859375 -0.96875q2.734375 0 4.015625 1.125q1.28125 1.109375 1.6875 3.21875q0.421875 2.109375 0.421875 5.0625l0 1.75l-8.515625 0l0 4.328125q0 1.3125 0.234375 2.140625q0.25 0.8125 0.796875 1.203125q0.546875 0.390625 1.40625 0.390625q0.890625 0 1.359375 -0.421875q0.46875 -0.4375 0.625 -1.234375q0.171875 -0.796875 0.171875 -1.890625l0 -1.296875l3.890625 0l0 0.8125q0 3.25 -1.390625 5.125q-1.375 1.859375 -4.703125 1.859375zm-2.390625 -13.171875l4.59375 0l0 -1.9375q0 -1.34375 -0.15625 -2.265625q-0.140625 -0.921875 -0.609375 -1.375q-0.46875 -0.46875 -1.46875 -0.46875q-0.96875 0 -1.484375 0.453125q-0.5 0.4375 -0.6875 1.5q-0.1875 1.0625 -0.1875 2.9375l0 1.15625zm12.137085 12.875l0 -21.578125l3.703125 0l0 2.0625q1.078125 -1.234375 2.375 -1.828125q1.3125 -0.609375 2.6875 -0.609375q1.203125 0 2.15625 0.609375q0.953125 0.59375 1.359375 2.125q1.15625 -1.421875 2.515625 -2.078125q1.359375 -0.65625 2.859375 -0.65625q1.046875 0 1.90625 0.515625q0.859375 0.5 1.375 1.609375q0.53125 1.09375 0.53125 2.875l0 16.953125l-3.65625 0l0 -16.6875q0 -1.5625 -0.515625 -2.109375q-0.5 -0.546875 -1.359375 -0.546875q-0.8125 0 -1.71875 0.46875q-0.890625 0.46875 -1.640625 1.296875q0 0.140625 0 0.296875q0 0.140625 0 0.328125l0 16.953125l-3.65625 0l0 -16.6875q0 -1.5625 -0.515625 -2.109375q-0.5 -0.546875 -1.34375 -0.546875q-0.828125 0 -1.703125 0.46875q-0.875 0.46875 -1.65625 1.296875l0 17.578125l-3.703125 0zm31.35196 0.296875q-2.53125 0 -3.921875 -0.984375q-1.375 -1.0 -1.921875 -2.921875q-0.53125 -1.921875 -0.53125 -4.71875l0 -4.921875q0 -2.875 0.546875 -4.78125q0.5625 -1.90625 1.96875 -2.875q1.40625 -0.96875 3.859375 -0.96875q2.734375 0 4.015625 1.125q1.28125 1.109375 1.6875 3.21875q0.421875 2.109375 0.421875 5.0625l0 1.75l-8.515625 0l0 4.328125q0 1.3125 0.234375 2.140625q0.25 0.8125 0.796875 1.203125q0.546875 0.390625 1.40625 0.390625q0.890625 0 1.359375 -0.421875q0.46875 -0.4375 0.625 -1.234375q0.171875 -0.796875 0.171875 -1.890625l0 -1.296875l3.890625 0l0 0.8125q0 3.25 -1.390625 5.125q-1.375 1.859375 -4.703125 1.859375zm-2.390625 -13.171875l4.59375 0l0 -1.9375q0 -1.34375 -0.15625 -2.265625q-0.140625 -0.921875 -0.609375 -1.375q-0.46875 -0.46875 -1.46875 -0.46875q-0.96875 0 -1.484375 0.453125q-0.5 0.4375 -0.6875 1.5q-0.1875 1.0625 -0.1875 2.9375l0 1.15625zm12.1371155 12.875l0 -21.578125l3.703125 0l0 2.0625q1.078125 -1.234375 2.375 -1.828125q1.3125 -0.609375 2.6875 -0.609375q1.203125 0 2.15625 0.609375q0.953125 0.59375 1.359375 2.125q1.15625 -1.421875 2.515625 -2.078125q1.359375 -0.65625 2.859375 -0.65625q1.046875 0 1.90625 0.515625q0.859375 0.5 1.375 1.609375q0.53125 1.09375 0.53125 2.875l0 16.953125l-3.65625 0l0 -16.6875q0 -1.5625 -0.515625 -2.109375q-0.5 -0.546875 -1.359375 -0.546875q-0.8125 0 -1.71875 0.46875q-0.890625 0.46875 -1.640625 1.296875q0 0.140625 0 0.296875q0 0.140625 0 0.328125l0 16.953125l-3.65625 0l0 -16.6875q0 -1.5625 -0.515625 -2.109375q-0.5 -0.546875 -1.34375 -0.546875q-0.828125 0 -1.703125 0.46875q-0.875 0.46875 -1.65625 1.296875l0 17.578125l-3.703125 0zm33.117554 0.296875q-1.171875 0 -2.09375 -0.578125q-0.90625 -0.578125 -1.578125 -1.28125l0 1.5625l-3.984375 0l0 -30.234375l3.984375 0l0 10.375q0.71875 -0.828125 1.703125 -1.421875q0.984375 -0.59375 2.375 -0.59375q1.671875 0 2.65625 0.875q1.0 0.875 1.484375 2.203125q0.484375 1.328125 0.625 2.6875q0.15625 1.359375 0.15625 2.328125l0 5.234375q0 2.28125 -0.453125 4.3125q-0.4375 2.03125 -1.59375 3.28125q-1.15625 1.25 -3.28125 1.25zm-0.828125 -3.140625q1.046875 0 1.484375 -0.765625q0.453125 -0.765625 0.5625 -2.0625q0.125 -1.3125 0.125 -2.875l0 -5.234375q0 -1.34375 -0.15625 -2.46875q-0.15625 -1.140625 -0.640625 -1.8125q-0.484375 -0.671875 -1.53125 -0.671875q-0.78125 0 -1.46875 0.34375q-0.6875 0.328125 -1.21875 0.734375l0 13.84375q0.53125 0.421875 1.25 0.703125q0.734375 0.265625 1.59375 0.265625zm15.74823 3.140625q-2.53125 0 -3.921875 -0.984375q-1.375 -1.0 -1.921875 -2.921875q-0.53125 -1.921875 -0.53125 -4.71875l0 -4.921875q0 -2.875 0.546875 -4.78125q0.5625 -1.90625 1.96875 -2.875q1.40625 -0.96875 3.859375 -0.96875q2.734375 0 4.015625 1.125q1.28125 1.109375 1.6875 3.21875q0.421875 2.109375 0.421875 5.0625l0 1.75l-8.515625 0l0 4.328125q0 1.3125 0.234375 2.140625q0.25 0.8125 0.796875 1.203125q0.546875 0.390625 1.40625 0.390625q0.890625 0 1.359375 -0.421875q0.46875 -0.4375 0.625 -1.234375q0.171875 -0.796875 0.171875 -1.890625l0 -1.296875l3.890625 0l0 0.8125q0 3.25 -1.390625 5.125q-1.375 1.859375 -4.703125 1.859375zm-2.390625 -13.171875l4.59375 0l0 -1.9375q0 -1.34375 -0.15625 -2.265625q-0.140625 -0.921875 -0.609375 -1.375q-0.46875 -0.46875 -1.46875 -0.46875q-0.96875 0 -1.484375 0.453125q-0.5 0.4375 -0.6875 1.5q-0.1875 1.0625 -0.1875 2.9375l0 1.15625zm12.24646 12.875l0 -21.578125l4.0 0l0 3.0625q1.1875 -1.984375 2.375 -2.65625q1.203125 -0.671875 2.40625 -0.671875q0.140625 0 0.265625 0q0.140625 0 0.359375 0.046875l0 4.40625q-0.4375 -0.1875 -1.03125 -0.3125q-0.578125 -0.140625 -1.171875 -0.140625q-0.921875 0 -1.6875 0.4375q-0.765625 0.421875 -1.515625 1.65625l0 15.75l-4.0 0zm26.171143 0.296875q-1.6875 0 -2.71875 -0.625q-1.015625 -0.640625 -1.484375 -1.796875q-0.46875 -1.15625 -0.46875 -2.734375l0 -14.0625l-2.265625 0l0 -2.65625l2.265625 0l0 -6.3125l4.0 0l0 6.3125l3.46875 0l0 2.65625l-3.46875 0l0 13.8125q0 1.265625 0.40625 1.8125q0.40625 0.53125 1.578125 0.53125q0.296875 0 0.6875 -0.03125q0.390625 -0.046875 0.765625 -0.078125l0 2.953125q-0.75 0.109375 -1.390625 0.15625q-0.625 0.0625 -1.375 0.0625zm11.68457 0q-2.390625 0 -3.78125 -0.96875q-1.375 -0.96875 -1.953125 -2.75q-0.578125 -1.796875 -0.578125 -4.234375l0 -6.265625q0 -2.421875 0.578125 -4.21875q0.578125 -1.796875 1.953125 -2.765625q1.390625 -0.96875 3.78125 -0.96875q2.390625 0 3.75 0.96875q1.359375 0.96875 1.9375 2.765625q0.578125 1.796875 0.578125 4.21875l0 6.265625q0 2.4375 -0.578125 4.234375q-0.578125 1.78125 -1.9375 2.75q-1.359375 0.96875 -3.75 0.96875zm0 -2.953125q1.15625 0 1.625 -0.671875q0.46875 -0.671875 0.5625 -1.765625q0.09375 -1.109375 0.09375 -2.296875l0 -6.75q0 -1.234375 -0.09375 -2.3125q-0.09375 -1.09375 -0.5625 -1.78125q-0.46875 -0.6875 -1.625 -0.6875q-1.15625 0 -1.640625 0.6875q-0.484375 0.6875 -0.578125 1.78125q-0.09375 1.078125 -0.09375 2.3125l0 6.75q0 1.1875 0.09375 2.296875q0.09375 1.09375 0.578125 1.765625q0.484375 0.671875 1.640625 0.671875zm24.22522 2.953125q-1.6875 0 -2.71875 -0.625q-1.015625 -0.640625 -1.484375 -1.796875q-0.46875 -1.15625 -0.46875 -2.734375l0 -14.0625l-2.265625 0l0 -2.65625l2.265625 0l0 -6.3125l4.0 0l0 6.3125l3.46875 0l0 2.65625l-3.46875 0l0 13.8125q0 1.265625 0.40625 1.8125q0.40625 0.53125 1.578125 0.53125q0.296875 0 0.6875 -0.03125q0.390625 -0.046875 0.765625 -0.078125l0 2.953125q-0.75 0.109375 -1.390625 0.15625q-0.625 0.0625 -1.375 0.0625zm5.8564453 -0.296875l0 -21.578125l4.0 0l0 3.0625q1.1875 -1.984375 2.375 -2.65625q1.203125 -0.671875 2.40625 -0.671875q0.140625 0 0.265625 0q0.140625 0 0.359375 0.046875l0 4.40625q-0.4375 -0.1875 -1.03125 -0.3125q-0.578125 -0.140625 -1.171875 -0.140625q-0.921875 0 -1.6875 0.4375q-0.765625 0.421875 -1.515625 1.65625l0 15.75l-4.0 0zm11.544861 5.40625l0 -3.046875q1.453125 0 2.3125 -0.140625q0.859375 -0.125 1.21875 -0.484375q0.375 -0.359375 0.375 -0.984375q0 -0.34375 -0.265625 -1.5q-0.25 -1.15625 -0.546875 -2.453125l-4.328125 -18.375l4.03125 0l2.90625 16.125l2.796875 -16.125l4.03125 0l-5.140625 22.765625q-0.34375 1.578125 -1.25 2.484375q-0.890625 0.921875 -2.296875 1.328125q-1.390625 0.40625 -3.359375 0.40625l-0.484375 0zm27.383972 -5.109375q-1.265625 0 -2.234375 -0.71875q-0.96875 -0.734375 -1.53125 -1.875q-0.5625 -1.140625 -0.5625 -2.40625q0 -2.015625 0.671875 -3.390625q0.671875 -1.390625 1.84375 -2.34375q1.1875 -0.953125 2.734375 -1.65625q1.546875 -0.703125 3.265625 -1.375l0 -1.53125q0 -1.3125 -0.15625 -2.171875q-0.140625 -0.859375 -0.609375 -1.28125q-0.46875 -0.4375 -1.40625 -0.4375q-0.8125 0 -1.328125 0.375q-0.5 0.375 -0.71875 1.0625q-0.21875 0.6875 -0.21875 1.625l0 1.078125l-3.953125 -0.140625q0.0625 -3.59375 1.625 -5.28125q1.578125 -1.703125 4.859375 -1.703125q3.21875 0 4.5625 1.765625q1.34375 1.75 1.34375 5.0625l0 9.859375q0 1.0 0.046875 1.9375q0.0625 0.9375 0.15625 1.75q0.09375 0.796875 0.171875 1.5l-3.671875 0q-0.109375 -0.59375 -0.28125 -1.5q-0.15625 -0.921875 -0.234375 -1.671875q-0.375 1.265625 -1.4375 2.375q-1.0625 1.09375 -2.9375 1.09375zm1.578125 -3.4375q0.59375 0 1.109375 -0.328125q0.53125 -0.34375 0.9375 -0.765625q0.40625 -0.4375 0.5625 -0.6875l0 -6.125q-0.9375 0.515625 -1.765625 1.046875q-0.8125 0.515625 -1.4375 1.09375q-0.609375 0.578125 -0.96875 1.3125q-0.34375 0.71875 -0.34375 1.65625q0 1.3125 0.484375 2.0625q0.484375 0.734375 1.421875 0.734375zm10.448669 3.140625l0 -21.578125l4.0 0l0 2.125q1.078125 -1.0 2.375 -1.703125q1.3125 -0.71875 2.875 -0.71875q1.3125 0 2.0 0.671875q0.6875 0.671875 0.96875 1.6875q0.28125 1.0 0.28125 2.046875l0 17.46875l-3.984375 0l0 -16.3125q0 -1.15625 -0.34375 -1.78125q-0.328125 -0.640625 -1.375 -0.640625q-0.671875 0 -1.40625 0.390625q-0.71875 0.390625 -1.390625 0.953125l0 17.390625l-4.0 0zm21.387085 0.296875q-2.71875 0 -4.0625 -2.0q-1.34375 -2.0 -1.34375 -6.765625l0 -4.1875q0 -2.46875 0.40625 -4.578125q0.40625 -2.109375 1.546875 -3.375q1.140625 -1.265625 3.34375 -1.265625q1.078125 0 1.96875 0.484375q0.90625 0.484375 1.609375 1.203125l0 -10.046875l4.0 0l0 30.234375l-4.0 0l0 -1.375q-0.703125 0.734375 -1.546875 1.203125q-0.84375 0.46875 -1.921875 0.46875zm1.015625 -3.140625q0.546875 0 1.1875 -0.203125q0.640625 -0.203125 1.265625 -0.609375l0 -14.15625q-0.515625 -0.359375 -1.15625 -0.640625q-0.625 -0.28125 -1.375 -0.28125q-1.390625 0 -1.875 1.328125q-0.484375 1.3125 -0.484375 3.1875l0 6.078125q0 1.5 0.171875 2.71875q0.171875 1.203125 0.6875 1.890625q0.53125 0.6875 1.578125 0.6875z" fill-rule="nonzero"/><path fill="#666666" d="m230.04622 259.7479q-2.53125 0 -3.921875 -0.984375q-1.375 -1.0 -1.921875 -2.921875q-0.53125 -1.921875 -0.53125 -4.71875l0 -4.921875q0 -2.875 0.546875 -4.78125q0.5625 -1.90625 1.96875 -2.875q1.40625 -0.96875 3.859375 -0.96875q2.734375 0 4.015625 1.125q1.28125 1.109375 1.6875 3.21875q0.421875 2.109375 0.421875 5.0625l0 1.75l-8.515625 0l0 4.328125q0 1.3125 0.234375 2.140625q0.25 0.8125 0.796875 1.203125q0.546875 0.390625 1.40625 0.390625q0.890625 0 1.359375 -0.421875q0.46875 -0.4375 0.625 -1.234375q0.171875 -0.796875 0.171875 -1.890625l0 -1.296875l3.890625 0l0 0.8125q0 3.25 -1.390625 5.125q-1.375 1.859375 -4.703125 1.859375zm-2.390625 -13.171875l4.59375 0l0 -1.9375q0 -1.34375 -0.15625 -2.265625q-0.140625 -0.921875 -0.609375 -1.375q-0.46875 -0.46875 -1.46875 -0.46875q-0.96875 0 -1.484375 0.453125q-0.5 0.4375 -0.6875 1.5q-0.1875 1.0625 -0.1875 2.9375l0 1.15625zm10.465195 12.875l4.84375 -11.34375l-4.734375 -10.234375l3.796875 0l3.171875 6.828125l2.8125 -6.828125l3.90625 0l-4.921875 10.71875l5.0 10.859375l-3.796875 0l-3.40625 -7.3125l-2.90625 7.3125l-3.765625 0zm16.192566 7.09375l0 -28.671875l4.0 0l0 1.71875q0.703125 -0.828125 1.703125 -1.421875q1.015625 -0.59375 2.390625 -0.59375q1.6875 0 2.671875 0.875q1.0 0.875 1.484375 2.203125q0.484375 1.328125 0.625 2.6875q0.15625 1.359375 0.15625 2.328125l0 5.234375q0 2.28125 -0.453125 4.3125q-0.453125 2.03125 -1.625 3.28125q-1.171875 1.25 -3.296875 1.25q-1.15625 0 -2.0625 -0.578125q-0.890625 -0.578125 -1.59375 -1.328125l0 8.703125l-4.0 0zm6.875 -9.9375q1.03125 0 1.484375 -0.765625q0.453125 -0.765625 0.5625 -2.0625q0.109375 -1.3125 0.109375 -2.875l0 -5.234375q0 -1.34375 -0.15625 -2.46875q-0.140625 -1.140625 -0.625 -1.8125q-0.484375 -0.671875 -1.53125 -0.671875q-0.78125 0 -1.5 0.34375q-0.703125 0.328125 -1.21875 0.765625l0 13.8125q0.546875 0.421875 1.25 0.703125q0.71875 0.265625 1.625 0.265625zm10.148376 2.84375l0 -30.234375l4.0 0l0 30.234375l-4.0 0zm14.110687 0.296875q-2.390625 0 -3.78125 -0.96875q-1.375 -0.96875 -1.953125 -2.75q-0.578125 -1.796875 -0.578125 -4.234375l0 -6.265625q0 -2.421875 0.578125 -4.21875q0.578125 -1.796875 1.953125 -2.765625q1.390625 -0.96875 3.78125 -0.96875q2.390625 0 3.75 0.96875q1.359375 0.96875 1.9375 2.765625q0.578125 1.796875 0.578125 4.21875l0 6.265625q0 2.4375 -0.578125 4.234375q-0.578125 1.78125 -1.9375 2.75q-1.359375 0.96875 -3.75 0.96875zm0 -2.953125q1.15625 0 1.625 -0.671875q0.46875 -0.671875 0.5625 -1.765625q0.09375 -1.109375 0.09375 -2.296875l0 -6.75q0 -1.234375 -0.09375 -2.3125q-0.09375 -1.09375 -0.5625 -1.78125q-0.46875 -0.6875 -1.625 -0.6875q-1.15625 0 -1.640625 0.6875q-0.484375 0.6875 -0.578125 1.78125q-0.09375 1.078125 -0.09375 2.3125l0 6.75q0 1.1875 0.09375 2.296875q0.09375 1.09375 0.578125 1.765625q0.484375 0.671875 1.640625 0.671875zm10.036377 2.65625l0 -21.578125l4.0 0l0 3.0625q1.1875 -1.984375 2.375 -2.65625q1.203125 -0.671875 2.40625 -0.671875q0.140625 0 0.265625 0q0.140625 0 0.359375 0.046875l0 4.40625q-0.4375 -0.1875 -1.03125 -0.3125q-0.578125 -0.140625 -1.171875 -0.140625q-0.921875 0 -1.6875 0.4375q-0.765625 0.421875 -1.515625 1.65625l0 15.75l-4.0 0zm17.841736 0.296875q-2.53125 0 -3.921875 -0.984375q-1.375 -1.0 -1.921875 -2.921875q-0.53125 -1.921875 -0.53125 -4.71875l0 -4.921875q0 -2.875 0.546875 -4.78125q0.5625 -1.90625 1.96875 -2.875q1.40625 -0.96875 3.859375 -0.96875q2.734375 0 4.015625 1.125q1.28125 1.109375 1.6875 3.21875q0.421875 2.109375 0.421875 5.0625l0 1.75l-8.515625 0l0 4.328125q0 1.3125 0.234375 2.140625q0.25 0.8125 0.796875 1.203125q0.546875 0.390625 1.40625 0.390625q0.890625 0 1.359375 -0.421875q0.46875 -0.4375 0.625 -1.234375q0.171875 -0.796875 0.171875 -1.890625l0 -1.296875l3.890625 0l0 0.8125q0 3.25 -1.390625 5.125q-1.375 1.859375 -4.703125 1.859375zm-2.390625 -13.171875l4.59375 0l0 -1.9375q0 -1.34375 -0.15625 -2.265625q-0.140625 -0.921875 -0.609375 -1.375q-0.46875 -0.46875 -1.46875 -0.46875q-0.96875 0 -1.484375 0.453125q-0.5 0.4375 -0.6875 1.5q-0.1875 1.0625 -0.1875 2.9375l0 1.15625zm26.435242 13.171875q-1.6875 0 -2.71875 -0.625q-1.015625 -0.640625 -1.484375 -1.796875q-0.46875 -1.15625 -0.46875 -2.734375l0 -14.0625l-2.265625 0l0 -2.65625l2.265625 0l0 -6.3125l4.0 0l0 6.3125l3.46875 0l0 2.65625l-3.46875 0l0 13.8125q0 1.265625 0.40625 1.8125q0.40625 0.53125 1.578125 0.53125q0.296875 0 0.6875 -0.03125q0.390625 -0.046875 0.765625 -0.078125l0 2.953125q-0.75 0.109375 -1.390625 0.15625q-0.625 0.0625 -1.375 0.0625zm5.856476 -0.296875l0 -30.234375l4.0 0l0 10.890625q1.078125 -1.03125 2.421875 -1.78125q1.34375 -0.75 2.984375 -0.75q1.265625 0 1.953125 0.671875q0.703125 0.671875 0.984375 1.6875q0.28125 1.0 0.28125 2.046875l0 17.46875l-4.0 0l0 -16.3125q0 -1.15625 -0.34375 -1.78125q-0.328125 -0.640625 -1.375 -0.640625q-0.703125 0 -1.46875 0.40625q-0.765625 0.40625 -1.4375 1.015625l0 17.3125l-4.0 0zm22.470428 0.296875q-2.53125 0 -3.921875 -0.984375q-1.375 -1.0 -1.921875 -2.921875q-0.53125 -1.921875 -0.53125 -4.71875l0 -4.921875q0 -2.875 0.546875 -4.78125q0.5625 -1.90625 1.96875 -2.875q1.40625 -0.96875 3.859375 -0.96875q2.734375 0 4.015625 1.125q1.28125 1.109375 1.6875 3.21875q0.421875 2.109375 0.421875 5.0625l0 1.75l-8.515625 0l0 4.328125q0 1.3125 0.234375 2.140625q0.25 0.8125 0.796875 1.203125q0.546875 0.390625 1.40625 0.390625q0.890625 0 1.359375 -0.421875q0.46875 -0.4375 0.625 -1.234375q0.171875 -0.796875 0.171875 -1.890625l0 -1.296875l3.890625 0l0 0.8125q0 3.25 -1.390625 5.125q-1.375 1.859375 -4.703125 1.859375zm-2.390625 -13.171875l4.59375 0l0 -1.9375q0 -1.34375 -0.15625 -2.265625q-0.140625 -0.921875 -0.609375 -1.375q-0.46875 -0.46875 -1.46875 -0.46875q-0.96875 0 -1.484375 0.453125q-0.5 0.4375 -0.6875 1.5q-0.1875 1.0625 -0.1875 2.9375l0 1.15625zm20.685242 12.875l0 -21.578125l4.0 0l0 2.125q1.078125 -1.0 2.375 -1.703125q1.3125 -0.71875 2.875 -0.71875q1.3125 0 2.0 0.671875q0.6875 0.671875 0.96875 1.6875q0.28125 1.0 0.28125 2.046875l0 17.46875l-3.984375 0l0 -16.3125q0 -1.15625 -0.34375 -1.78125q-0.328125 -0.640625 -1.375 -0.640625q-0.671875 0 -1.40625 0.390625q-0.71875 0.390625 -1.390625 0.953125l0 17.390625l-4.0 0zm22.355865 0.296875q-2.53125 0 -3.921875 -0.984375q-1.375 -1.0 -1.921875 -2.921875q-0.53125 -1.921875 -0.53125 -4.71875l0 -4.921875q0 -2.875 0.546875 -4.78125q0.5625 -1.90625 1.96875 -2.875q1.40625 -0.96875 3.859375 -0.96875q2.734375 0 4.015625 1.125q1.28125 1.109375 1.6875 3.21875q0.421875 2.109375 0.421875 5.0625l0 1.75l-8.515625 0l0 4.328125q0 1.3125 0.234375 2.140625q0.25 0.8125 0.796875 1.203125q0.546875 0.390625 1.40625 0.390625q0.890625 0 1.359375 -0.421875q0.46875 -0.4375 0.625 -1.234375q0.171875 -0.796875 0.171875 -1.890625l0 -1.296875l3.890625 0l0 0.8125q0 3.25 -1.390625 5.125q-1.375 1.859375 -4.703125 1.859375zm-2.390625 -13.171875l4.59375 0l0 -1.9375q0 -1.34375 -0.15625 -2.265625q-0.140625 -0.921875 -0.609375 -1.375q-0.46875 -0.46875 -1.46875 -0.46875q-0.96875 0 -1.484375 0.453125q-0.5 0.4375 -0.6875 1.5q-0.1875 1.0625 -0.1875 2.9375l0 1.15625zm12.402679 12.875l0 -21.578125l3.984375 0l0 21.578125l-3.984375 0zm0 -24.78125l0 -4.1875l3.984375 0l0 4.1875l-3.984375 0zm13.876312 31.46875q-1.9375 0 -3.515625 -0.421875q-1.5625 -0.40625 -2.453125 -1.3125q-0.890625 -0.890625 -0.890625 -2.34375q0 -1.046875 0.4375 -1.828125q0.453125 -0.78125 1.15625 -1.359375q0.71875 -0.578125 1.5 -0.953125q-1.046875 -0.296875 -1.578125 -0.953125q-0.515625 -0.65625 -0.515625 -1.359375q0 -1.203125 0.640625 -2.046875q0.640625 -0.859375 1.75 -1.875q-1.234375 -0.9375 -1.875 -2.390625q-0.625 -1.453125 -0.625 -4.03125q0 -2.53125 0.6875 -4.234375q0.703125 -1.703125 2.0625 -2.578125q1.359375 -0.875 3.34375 -0.875q1.75 0 2.8125 0.59375q1.0625 0.59375 1.625 1.796875q0.1875 -0.296875 1.0 -1.015625q0.828125 -0.734375 1.90625 -1.21875l0.59375 -0.265625l1.015625 2.578125q-0.484375 0.0625 -1.296875 0.34375q-0.796875 0.28125 -1.484375 0.5625q-0.6875 0.28125 -0.875 0.46875q0.25 0.640625 0.453125 1.84375q0.21875 1.1875 0.21875 2.109375q0 2.203125 -0.5625 3.890625q-0.5625 1.671875 -1.859375 2.625q-1.28125 0.953125 -3.546875 0.953125q-0.5 0 -1.0625 -0.0625q-0.546875 -0.078125 -1.0 -0.203125q-0.21875 0.34375 -0.46875 0.796875q-0.234375 0.4375 -0.234375 0.859375q0 0.40625 0.421875 0.65625q0.4375 0.234375 1.359375 0.3125l3.359375 0.296875q2.546875 0.21875 3.78125 1.53125q1.234375 1.296875 1.234375 3.734375q0 1.75 -0.828125 2.953125q-0.828125 1.21875 -2.484375 1.8125q-1.65625 0.609375 -4.203125 0.609375zm0.296875 -3.140625q2.140625 0 3.140625 -0.515625q1.015625 -0.5 1.015625 -1.609375q0 -0.671875 -0.25 -1.125q-0.234375 -0.453125 -0.875 -0.703125q-0.640625 -0.265625 -1.828125 -0.375l-3.390625 -0.296875q-0.421875 0.40625 -0.796875 0.828125q-0.375 0.40625 -0.59375 0.859375q-0.21875 0.46875 -0.21875 1.0q0 0.96875 0.8125 1.453125q0.828125 0.484375 2.984375 0.484375zm-0.171875 -12.953125q0.84375 0 1.34375 -0.3125q0.515625 -0.328125 0.765625 -0.9375q0.265625 -0.609375 0.359375 -1.5q0.09375 -0.90625 0.09375 -2.03125q0 -1.109375 -0.09375 -2.03125q-0.09375 -0.921875 -0.34375 -1.5625q-0.234375 -0.65625 -0.734375 -0.984375q-0.5 -0.34375 -1.359375 -0.34375q-0.828125 0 -1.375 0.34375q-0.53125 0.328125 -0.796875 0.953125q-0.25 0.609375 -0.375 1.53125q-0.109375 0.90625 -0.109375 2.09375q0 1.015625 0.09375 1.890625q0.09375 0.875 0.375 1.515625q0.28125 0.625 0.796875 1.0q0.53125 0.375 1.359375 0.375zm10.628418 9.40625l0 -30.234375l4.0 0l0 10.890625q1.078125 -1.03125 2.421875 -1.78125q1.34375 -0.75 2.984375 -0.75q1.265625 0 1.953125 0.671875q0.703125 0.671875 0.984375 1.6875q0.28125 1.0 0.28125 2.046875l0 17.46875l-4.0 0l0 -16.3125q0 -1.15625 -0.34375 -1.78125q-0.328125 -0.640625 -1.375 -0.640625q-0.703125 0 -1.46875 0.40625q-0.765625 0.40625 -1.4375 1.015625l0 17.3125l-4.0 0zm24.236053 0.296875q-1.171875 0 -2.09375 -0.578125q-0.90625 -0.578125 -1.578125 -1.28125l0 1.5625l-3.984375 0l0 -30.234375l3.984375 0l0 10.375q0.71875 -0.828125 1.703125 -1.421875q0.984375 -0.59375 2.375 -0.59375q1.671875 0 2.65625 0.875q1.0 0.875 1.484375 2.203125q0.484375 1.328125 0.625 2.6875q0.15625 1.359375 0.15625 2.328125l0 5.234375q0 2.28125 -0.453125 4.3125q-0.4375 2.03125 -1.59375 3.28125q-1.15625 1.25 -3.28125 1.25zm-0.828125 -3.140625q1.046875 0 1.484375 -0.765625q0.453125 -0.765625 0.5625 -2.0625q0.125 -1.3125 0.125 -2.875l0 -5.234375q0 -1.34375 -0.15625 -2.46875q-0.15625 -1.140625 -0.640625 -1.8125q-0.484375 -0.671875 -1.53125 -0.671875q-0.78125 0 -1.46875 0.34375q-0.6875 0.328125 -1.21875 0.734375l0 13.84375q0.53125 0.421875 1.25 0.703125q0.734375 0.265625 1.59375 0.265625zm15.71698 3.140625q-2.390625 0 -3.78125 -0.96875q-1.375 -0.96875 -1.953125 -2.75q-0.578125 -1.796875 -0.578125 -4.234375l0 -6.265625q0 -2.421875 0.578125 -4.21875q0.578125 -1.796875 1.953125 -2.765625q1.390625 -0.96875 3.78125 -0.96875q2.390625 0 3.75 0.96875q1.359375 0.96875 1.9375 2.765625q0.578125 1.796875 0.578125 4.21875l0 6.265625q0 2.4375 -0.578125 4.234375q-0.578125 1.78125 -1.9375 2.75q-1.359375 0.96875 -3.75 0.96875zm0 -2.953125q1.15625 0 1.625 -0.671875q0.46875 -0.671875 0.5625 -1.765625q0.09375 -1.109375 0.09375 -2.296875l0 -6.75q0 -1.234375 -0.09375 -2.3125q-0.09375 -1.09375 -0.5625 -1.78125q-0.46875 -0.6875 -1.625 -0.6875q-1.15625 0 -1.640625 0.6875q-0.484375 0.6875 -0.578125 1.78125q-0.09375 1.078125 -0.09375 2.3125l0 6.75q0 1.1875 0.09375 2.296875q0.09375 1.09375 0.578125 1.765625q0.484375 0.671875 1.640625 0.671875zm10.036377 2.65625l0 -21.578125l4.0 0l0 3.0625q1.1875 -1.984375 2.375 -2.65625q1.203125 -0.671875 2.40625 -0.671875q0.140625 0 0.265625 0q0.140625 0 0.359375 0.046875l0 4.40625q-0.4375 -0.1875 -1.03125 -0.3125q-0.578125 -0.140625 -1.171875 -0.140625q-0.921875 0 -1.6875 0.4375q-0.765625 0.421875 -1.515625 1.65625l0 15.75l-4.0 0zm11.982361 0l0 -30.234375l4.0 0l0 10.890625q1.078125 -1.03125 2.421875 -1.78125q1.34375 -0.75 2.984375 -0.75q1.2656555 0 1.9531555 0.671875q0.703125 0.671875 0.984375 1.6875q0.28125 1.0 0.28125 2.046875l0 17.46875l-4.0000305 0l0 -16.3125q0 -1.15625 -0.34375 -1.78125q-0.328125 -0.640625 -1.375 -0.640625q-0.703125 0 -1.46875 0.40625q-0.765625 0.40625 -1.4375 1.015625l0 17.3125l-4.0 0zm22.439178 0.296875q-2.390625 0 -3.78125 -0.96875q-1.375 -0.96875 -1.953125 -2.75q-0.578125 -1.796875 -0.578125 -4.234375l0 -6.265625q0 -2.421875 0.578125 -4.21875q0.578125 -1.796875 1.953125 -2.765625q1.390625 -0.96875 3.78125 -0.96875q2.390625 0 3.75 0.96875q1.359375 0.96875 1.9375 2.765625q0.578125 1.796875 0.578125 4.21875l0 6.265625q0 2.4375 -0.578125 4.234375q-0.578125 1.78125 -1.9375 2.75q-1.359375 0.96875 -3.75 0.96875zm0 -2.953125q1.15625 0 1.625 -0.671875q0.46875 -0.671875 0.5625 -1.765625q0.09375 -1.109375 0.09375 -2.296875l0 -6.75q0 -1.234375 -0.09375 -2.3125q-0.09375 -1.09375 -0.5625 -1.78125q-0.46875 -0.6875 -1.625 -0.6875q-1.15625 0 -1.640625 0.6875q-0.484375 0.6875 -0.578125 1.78125q-0.09375 1.078125 -0.09375 2.3125l0 6.75q0 1.1875 0.09375 2.296875q0.09375 1.09375 0.578125 1.765625q0.484375 0.671875 1.640625 0.671875zm15.864502 2.953125q-2.390625 0 -3.78125 -0.96875q-1.375 -0.96875 -1.953125 -2.75q-0.578125 -1.796875 -0.578125 -4.234375l0 -6.265625q0 -2.421875 0.578125 -4.21875q0.578125 -1.796875 1.953125 -2.765625q1.390625 -0.96875 3.78125 -0.96875q2.390625 0 3.75 0.96875q1.359375 0.96875 1.9375 2.765625q0.578125 1.796875 0.578125 4.21875l0 6.265625q0 2.4375 -0.578125 4.234375q-0.578125 1.78125 -1.9375 2.75q-1.359375 0.96875 -3.75 0.96875zm0 -2.953125q1.15625 0 1.625 -0.671875q0.46875 -0.671875 0.5625 -1.765625q0.09375 -1.109375 0.09375 -2.296875l0 -6.75q0 -1.234375 -0.09375 -2.3125q-0.09375 -1.09375 -0.5625 -1.78125q-0.46875 -0.6875 -1.625 -0.6875q-1.15625 0 -1.640625 0.6875q-0.484375 0.6875 -0.578125 1.78125q-0.09375 1.078125 -0.09375 2.3125l0 6.75q0 1.1875 0.09375 2.296875q0.09375 1.09375 0.578125 1.765625q0.484375 0.671875 1.640625 0.671875zm14.927002 2.953125q-2.71875 0 -4.0625 -2.0q-1.34375 -2.0 -1.34375 -6.765625l0 -4.1875q0 -2.46875 0.40625 -4.578125q0.40625 -2.109375 1.546875 -3.375q1.140625 -1.265625 3.34375 -1.265625q1.078125 0 1.96875 0.484375q0.90625 0.484375 1.609375 1.203125l0 -10.046875l4.0 0l0 30.234375l-4.0 0l0 -1.375q-0.703125 0.734375 -1.546875 1.203125q-0.84375 0.46875 -1.921875 0.46875zm1.015625 -3.140625q0.546875 0 1.1875 -0.203125q0.640625 -0.203125 1.265625 -0.609375l0 -14.15625q-0.515625 -0.359375 -1.15625 -0.640625q-0.625 -0.28125 -1.375 -0.28125q-1.390625 0 -1.875 1.328125q-0.484375 1.3125 -0.484375 3.1875l0 6.078125q0 1.5 0.171875 2.71875q0.171875 1.203125 0.6875 1.890625q0.53125 0.6875 1.578125 0.6875zm15.483459 3.140625q-2.640625 0 -4.25 -1.65625q-1.609375 -1.671875 -1.828125 -4.390625l3.3125 -1.0q0.296875 2.046875 1.0 3.078125q0.71875 1.015625 2.109375 1.015625q1.078125 0 1.640625 -0.609375q0.5625 -0.609375 0.5625 -1.65625q0 -0.9375 -0.421875 -1.6875q-0.40625 -0.75 -1.34375 -1.53125l-3.6875 -3.171875q-1.125 -0.96875 -1.890625 -2.15625q-0.765625 -1.203125 -0.765625 -3.109375q0 -1.71875 0.6875 -2.890625q0.703125 -1.171875 1.953125 -1.78125q1.25 -0.625 2.921875 -0.625q2.578125 0 3.9375 1.671875q1.359375 1.65625 1.546875 4.0l-2.6875 1.015625q-0.140625 -1.125 -0.4375 -1.96875q-0.296875 -0.84375 -0.828125 -1.296875q-0.515625 -0.46875 -1.375 -0.46875q-0.96875 0 -1.546875 0.65625q-0.578125 0.640625 -0.578125 1.546875q0 0.5625 0.234375 1.109375q0.25 0.53125 0.84375 1.046875l3.796875 3.515625q0.796875 0.703125 1.484375 1.53125q0.6875 0.8125 1.125 1.859375q0.453125 1.046875 0.453125 2.4375q0 1.828125 -0.75 3.0625q-0.734375 1.21875 -2.078125 1.84375q-1.34375 0.609375 -3.140625 0.609375zm21.383911 0q-1.265625 0 -2.234375 -0.71875q-0.96875 -0.734375 -1.53125 -1.875q-0.5625 -1.140625 -0.5625 -2.40625q0 -2.015625 0.671875 -3.390625q0.671875 -1.390625 1.84375 -2.34375q1.1875 -0.953125 2.734375 -1.65625q1.546875 -0.703125 3.265625 -1.375l0 -1.53125q0 -1.3125 -0.15625 -2.171875q-0.140625 -0.859375 -0.609375 -1.28125q-0.46875 -0.4375 -1.40625 -0.4375q-0.8125 0 -1.328125 0.375q-0.5 0.375 -0.71875 1.0625q-0.21875 0.6875 -0.21875 1.625l0 1.078125l-3.953125 -0.140625q0.0625 -3.59375 1.625 -5.28125q1.578125 -1.703125 4.859375 -1.703125q3.21875 0 4.5625 1.765625q1.34375 1.75 1.34375 5.0625l0 9.859375q0 1.0 0.046875 1.9375q0.0625 0.9375 0.15625 1.75q0.09375 0.796875 0.171875 1.5l-3.671875 0q-0.109375 -0.59375 -0.28125 -1.5q-0.15625 -0.921875 -0.234375 -1.671875q-0.375 1.265625 -1.4375 2.375q-1.0625 1.09375 -2.9375 1.09375zm1.578125 -3.4375q0.59375 0 1.109375 -0.328125q0.53125 -0.34375 0.9375 -0.765625q0.40625 -0.4375 0.5625 -0.6875l0 -6.125q-0.9375 0.515625 -1.765625 1.046875q-0.8125 0.515625 -1.4375 1.09375q-0.609375 0.578125 -0.96875 1.3125q-0.34375 0.71875 -0.34375 1.65625q0 1.3125 0.484375 2.0625q0.484375 0.734375 1.421875 0.734375zm15.44873 3.4375q-2.640625 0 -4.25 -1.65625q-1.609375 -1.671875 -1.828125 -4.390625l3.3125 -1.0q0.296875 2.046875 1.0 3.078125q0.71875 1.015625 2.109375 1.015625q1.078125 0 1.640625 -0.609375q0.5625 -0.609375 0.5625 -1.65625q0 -0.9375 -0.421875 -1.6875q-0.40625 -0.75 -1.34375 -1.53125l-3.6875 -3.171875q-1.125 -0.96875 -1.890625 -2.15625q-0.765625 -1.203125 -0.765625 -3.109375q0 -1.71875 0.6875 -2.890625q0.703125 -1.171875 1.953125 -1.78125q1.25 -0.625 2.921875 -0.625q2.578125 0 3.9375 1.671875q1.359375 1.65625 1.546875 4.0l-2.6875 1.015625q-0.140625 -1.125 -0.4375 -1.96875q-0.296875 -0.84375 -0.828125 -1.296875q-0.515625 -0.46875 -1.375 -0.46875q-0.96875 0 -1.546875 0.65625q-0.578125 0.640625 -0.578125 1.546875q0 0.5625 0.234375 1.109375q0.25 0.53125 0.84375 1.046875l3.796875 3.515625q0.796875 0.703125 1.484375 1.53125q0.6875 0.8125 1.125 1.859375q0.453125 1.046875 0.453125 2.4375q0 1.828125 -0.75 3.0625q-0.734375 1.21875 -2.078125 1.84375q-1.34375 0.609375 -3.140625 0.609375zm17.508911 -0.296875l0 -21.578125l3.703125 0l0 2.0625q1.078125 -1.234375 2.375 -1.828125q1.3125 -0.609375 2.6875 -0.609375q1.203125 0 2.15625 0.609375q0.953125 0.59375 1.359375 2.125q1.15625 -1.421875 2.515625 -2.078125q1.359375 -0.65625 2.859375 -0.65625q1.046875 0 1.90625 0.515625q0.859375 0.5 1.375 1.609375q0.53125 1.09375 0.53125 2.875l0 16.953125l-3.65625 0l0 -16.6875q0 -1.5625 -0.515625 -2.109375q-0.5 -0.546875 -1.359375 -0.546875q-0.8125 0 -1.71875 0.46875q-0.890625 0.46875 -1.640625 1.296875q0 0.140625 0 0.296875q0 0.140625 0 0.328125l0 16.953125l-3.65625 0l0 -16.6875q0 -1.5625 -0.515625 -2.109375q-0.5 -0.546875 -1.34375 -0.546875q-0.828125 0 -1.703125 0.46875q-0.875 0.46875 -1.65625 1.296875l0 17.578125l-3.703125 0zm28.47699 0.296875q-1.265625 0 -1.984375 -0.671875q-0.703125 -0.671875 -0.984375 -1.671875q-0.28125 -1.015625 -0.28125 -2.0625l0 -17.46875l4.0 0l0 16.28125q0 1.15625 0.328125 1.8125q0.34375 0.640625 1.390625 0.640625q0.671875 0 1.390625 -0.390625q0.734375 -0.390625 1.40625 -0.953125l0 -17.390625l4.0 0l0 21.578125l-4.0 0l0 -2.125q-1.046875 1.0 -2.375 1.71875q-1.3125 0.703125 -2.890625 0.703125zm19.221252 0q-2.640625 0 -4.015625 -1.0625q-1.359375 -1.0625 -1.828125 -3.0q-0.453125 -1.953125 -0.453125 -4.515625l0 -4.96875q0 -2.71875 0.484375 -4.640625q0.484375 -1.9375 1.84375 -2.953125q1.359375 -1.03125 3.96875 -1.03125q2.359375 0 3.640625 0.765625q1.296875 0.765625 1.78125 2.28125q0.484375 1.515625 0.484375 3.75l0 1.265625l-3.625 0l0 -1.3125q0 -1.40625 -0.1875 -2.21875q-0.1875 -0.828125 -0.671875 -1.203125q-0.484375 -0.375 -1.375 -0.375q-0.96875 0 -1.5 0.453125q-0.515625 0.4375 -0.6875 1.5q-0.171875 1.0625 -0.171875 2.890625l0 6.796875q0 2.765625 0.515625 3.703125q0.53125 0.921875 1.875 0.921875q1.015625 0 1.46875 -0.453125q0.46875 -0.46875 0.59375 -1.328125q0.140625 -0.859375 0.140625 -1.953125l0 -1.75l3.625 0l0 1.5q0 2.15625 -0.515625 3.734375q-0.5 1.5625 -1.78125 2.390625q-1.28125 0.8125 -3.609375 0.8125zm9.560669 -0.296875l0 -30.234375l4.0 0l0 10.890625q1.078125 -1.03125 2.421875 -1.78125q1.34375 -0.75 2.984375 -0.75q1.265625 0 1.953125 0.671875q0.703125 0.671875 0.984375 1.6875q0.28125 1.0 0.28125 2.046875l0 17.46875l-4.0 0l0 -16.3125q0 -1.15625 -0.34375 -1.78125q-0.328125 -0.640625 -1.375 -0.640625q-0.703125 0 -1.46875 0.40625q-0.765625 0.40625 -1.4375 1.015625l0 17.3125l-4.0 0zm28.924866 0.296875q-1.265625 0 -2.234375 -0.71875q-0.96875 -0.734375 -1.53125 -1.875q-0.5625 -1.140625 -0.5625 -2.40625q0 -2.015625 0.671875 -3.390625q0.671875 -1.390625 1.84375 -2.34375q1.1875 -0.953125 2.734375 -1.65625q1.546875 -0.703125 3.265625 -1.375l0 -1.53125q0 -1.3125 -0.15625 -2.171875q-0.140625 -0.859375 -0.609375 -1.28125q-0.46875 -0.4375 -1.40625 -0.4375q-0.8125 0 -1.328125 0.375q-0.5 0.375 -0.71875 1.0625q-0.21875 0.6875 -0.21875 1.625l0 1.078125l-3.953125 -0.140625q0.0625 -3.59375 1.625 -5.28125q1.578125 -1.703125 4.859375 -1.703125q3.21875 0 4.5625 1.765625q1.34375 1.75 1.34375 5.0625l0 9.859375q0 1.0 0.046875 1.9375q0.0625 0.9375 0.15625 1.75q0.09375 0.796875 0.171875 1.5l-3.671875 0q-0.109375 -0.59375 -0.28125 -1.5q-0.15625 -0.921875 -0.234375 -1.671875q-0.375 1.265625 -1.4375 2.375q-1.0625 1.09375 -2.9375 1.09375zm1.578125 -3.4375q0.59375 0 1.109375 -0.328125q0.53125 -0.34375 0.9375 -0.765625q0.40625 -0.4375 0.5625 -0.6875l0 -6.125q-0.9375 0.515625 -1.765625 1.046875q-0.8125 0.515625 -1.4375 1.09375q-0.609375 0.578125 -0.96875 1.3125q-0.34375 0.71875 -0.34375 1.65625q0 1.3125 0.484375 2.0625q0.484375 0.734375 1.421875 0.734375zm15.44873 3.4375q-2.640625 0 -4.25 -1.65625q-1.609375 -1.671875 -1.828125 -4.390625l3.3125 -1.0q0.296875 2.046875 1.0 3.078125q0.71875 1.015625 2.109375 1.015625q1.078125 0 1.640625 -0.609375q0.5625 -0.609375 0.5625 -1.65625q0 -0.9375 -0.421875 -1.6875q-0.40625 -0.75 -1.34375 -1.53125l-3.6875 -3.171875q-1.125 -0.96875 -1.890625 -2.15625q-0.765625 -1.203125 -0.765625 -3.109375q0 -1.71875 0.6875 -2.890625q0.703125 -1.171875 1.953125 -1.78125q1.25 -0.625 2.921875 -0.625q2.578125 0 3.9375 1.671875q1.359375 1.65625 1.546875 4.0l-2.6875 1.015625q-0.140625 -1.125 -0.4375 -1.96875q-0.296875 -0.84375 -0.828125 -1.296875q-0.515625 -0.46875 -1.375 -0.46875q-0.96875 0 -1.546875 0.65625q-0.578125 0.640625 -0.578125 1.546875q0 0.5625 0.234375 1.109375q0.25 0.53125 0.84375 1.046875l3.796875 3.515625q0.796875 0.703125 1.484375 1.53125q0.6875 0.8125 1.125 1.859375q0.453125 1.046875 0.453125 2.4375q0 1.828125 -0.75 3.0625q-0.734375 1.21875 -2.078125 1.84375q-1.34375 0.609375 -3.140625 0.609375z" fill-rule="nonzero"/><path fill="#666666" d="m330.4816 311.34476l0 -28.671875l4.0 0l0 1.71875q0.703125 -0.828125 1.703125 -1.421875q1.015625 -0.59375 2.390625 -0.59375q1.6875 0 2.671875 0.875q1.0 0.875 1.484375 2.203125q0.484375 1.328125 0.625 2.6875q0.15625 1.359375 0.15625 2.328125l0 5.234375q0 2.28125 -0.453125 4.3125q-0.453125 2.03125 -1.625 3.28125q-1.171875 1.25 -3.296875 1.25q-1.15625 0 -2.0625 -0.578125q-0.890625 -0.578125 -1.59375 -1.328125l0 8.703125l-4.0 0zm6.875 -9.9375q1.03125 0 1.484375 -0.765625q0.453125 -0.765625 0.5625 -2.0625q0.109375 -1.3125 0.109375 -2.875l0 -5.234375q0 -1.34375 -0.15625 -2.46875q-0.140625 -1.140625 -0.625 -1.8125q-0.484375 -0.671875 -1.53125 -0.671875q-0.78125 0 -1.5 0.34375q-0.703125 0.328125 -1.21875 0.765625l0 13.8125q0.546875 0.421875 1.25 0.703125q0.71875 0.265625 1.625 0.265625zm15.710907 3.140625q-2.390625 0 -3.78125 -0.96875q-1.375 -0.96875 -1.953125 -2.75q-0.578125 -1.796875 -0.578125 -4.234375l0 -6.265625q0 -2.421875 0.578125 -4.21875q0.578125 -1.796875 1.953125 -2.765625q1.390625 -0.96875 3.78125 -0.96875q2.390625 0 3.75 0.96875q1.359375 0.96875 1.9375 2.765625q0.578125 1.796875 0.578125 4.21875l0 6.265625q0 2.4375 -0.578125 4.234375q-0.578125 1.78125 -1.9375 2.75q-1.359375 0.96875 -3.75 0.96875zm0 -2.953125q1.15625 0 1.625 -0.671875q0.46875 -0.671875 0.5625 -1.765625q0.09375 -1.109375 0.09375 -2.296875l0 -6.75q0 -1.234375 -0.09375 -2.3125q-0.09375 -1.09375 -0.5625 -1.78125q-0.46875 -0.6875 -1.625 -0.6875q-1.15625 0 -1.640625 0.6875q-0.484375 0.6875 -0.578125 1.78125q-0.09375 1.078125 -0.09375 2.3125l0 6.75q0 1.1875 0.09375 2.296875q0.09375 1.09375 0.578125 1.765625q0.484375 0.671875 1.640625 0.671875zm14.927002 2.953125q-2.640625 0 -4.25 -1.65625q-1.609375 -1.671875 -1.828125 -4.390625l3.3125 -1.0q0.296875 2.046875 1.0 3.078125q0.71875 1.015625 2.109375 1.015625q1.078125 0 1.640625 -0.609375q0.5625 -0.609375 0.5625 -1.65625q0 -0.9375 -0.421875 -1.6875q-0.40625 -0.75 -1.34375 -1.53125l-3.6875 -3.171875q-1.125 -0.96875 -1.890625 -2.15625q-0.765625 -1.203125 -0.765625 -3.109375q0 -1.71875 0.6875 -2.890625q0.703125 -1.171875 1.953125 -1.78125q1.25 -0.625 2.921875 -0.625q2.578125 0 3.9375 1.671875q1.359375 1.65625 1.546875 4.0l-2.6875 1.015625q-0.140625 -1.125 -0.4375 -1.96875q-0.296875 -0.84375 -0.828125 -1.296875q-0.515625 -0.46875 -1.375 -0.46875q-0.96875 0 -1.546875 0.65625q-0.578125 0.640625 -0.578125 1.546875q0 0.5625 0.234375 1.109375q0.25 0.53125 0.84375 1.046875l3.796875 3.515625q0.796875 0.703125 1.484375 1.53125q0.6875 0.8125 1.125 1.859375q0.453125 1.046875 0.453125 2.4375q0 1.828125 -0.75 3.0625q-0.734375 1.21875 -2.078125 1.84375q-1.34375 0.609375 -3.140625 0.609375zm13.960754 0q-2.640625 0 -4.25 -1.65625q-1.609375 -1.671875 -1.828125 -4.390625l3.3125 -1.0q0.296875 2.046875 1.0 3.078125q0.71875 1.015625 2.109375 1.015625q1.078125 0 1.640625 -0.609375q0.5625 -0.609375 0.5625 -1.65625q0 -0.9375 -0.421875 -1.6875q-0.40625 -0.75 -1.34375 -1.53125l-3.6875 -3.171875q-1.125 -0.96875 -1.890625 -2.15625q-0.765625 -1.203125 -0.765625 -3.109375q0 -1.71875 0.6875 -2.890625q0.703125 -1.171875 1.953125 -1.78125q1.25 -0.625 2.921875 -0.625q2.578125 0 3.9375 1.671875q1.359375 1.65625 1.546875 4.0l-2.6875 1.015625q-0.140625 -1.125 -0.4375 -1.96875q-0.296875 -0.84375 -0.828125 -1.296875q-0.515625 -0.46875 -1.375 -0.46875q-0.96875 0 -1.546875 0.65625q-0.578125 0.640625 -0.578125 1.546875q0 0.5625 0.234375 1.109375q0.25 0.53125 0.84375 1.046875l3.796875 3.515625q0.796875 0.703125 1.484375 1.53125q0.6875 0.8125 1.125 1.859375q0.453125 1.046875 0.453125 2.4375q0 1.828125 -0.75 3.0625q-0.734375 1.21875 -2.078125 1.84375q-1.34375 0.609375 -3.140625 0.609375zm9.22641 -0.296875l0 -21.578125l3.984375 0l0 21.578125l-3.984375 0zm0 -24.78125l0 -4.1875l3.984375 0l0 4.1875l-3.984375 0zm16.016907 25.078125q-1.171875 0 -2.09375 -0.578125q-0.90625 -0.578125 -1.578125 -1.28125l0 1.5625l-3.984375 0l0 -30.234375l3.984375 0l0 10.375q0.71875 -0.828125 1.703125 -1.421875q0.984375 -0.59375 2.375 -0.59375q1.671875 0 2.65625 0.875q1.0 0.875 1.484375 2.203125q0.484375 1.328125 0.625 2.6875q0.15625 1.359375 0.15625 2.328125l0 5.234375q0 2.28125 -0.453125 4.3125q-0.4375 2.03125 -1.59375 3.28125q-1.15625 1.25 -3.28125 1.25zm-0.828125 -3.140625q1.046875 0 1.484375 -0.765625q0.453125 -0.765625 0.5625 -2.0625q0.125 -1.3125 0.125 -2.875l0 -5.234375q0 -1.34375 -0.15625 -2.46875q-0.15625 -1.140625 -0.640625 -1.8125q-0.484375 -0.671875 -1.53125 -0.671875q-0.78125 0 -1.46875 0.34375q-0.6875 0.328125 -1.21875 0.734375l0 13.84375q0.53125 0.421875 1.25 0.703125q0.734375 0.265625 1.59375 0.265625zm10.15448 2.84375l0 -30.234375l4.0 0l0 30.234375l-4.0 0zm14.141937 0.296875q-2.53125 0 -3.921875 -0.984375q-1.375 -1.0 -1.921875 -2.921875q-0.53125 -1.921875 -0.53125 -4.71875l0 -4.921875q0 -2.875 0.546875 -4.78125q0.5625 -1.90625 1.96875 -2.875q1.40625 -0.96875 3.859375 -0.96875q2.734375 0 4.015625 1.125q1.28125 1.109375 1.6875 3.21875q0.421875 2.109375 0.421875 5.0625l0 1.75l-8.515625 0l0 4.328125q0 1.3125 0.234375 2.140625q0.25 0.8125 0.796875 1.203125q0.546875 0.390625 1.40625 0.390625q0.890625 0 1.359375 -0.421875q0.46875 -0.4375 0.625 -1.234375q0.171875 -0.796875 0.171875 -1.890625l0 -1.296875l3.890625 0l0 0.8125q0 3.25 -1.390625 5.125q-1.375 1.859375 -4.703125 1.859375zm-2.390625 -13.171875l4.59375 0l0 -1.9375q0 -1.34375 -0.15625 -2.265625q-0.140625 -0.921875 -0.609375 -1.375q-0.46875 -0.46875 -1.46875 -0.46875q-0.96875 0 -1.484375 0.453125q-0.5 0.4375 -0.6875 1.5q-0.1875 1.0625 -0.1875 2.9375l0 1.15625zm23.185242 12.875l-3.46875 -21.578125l3.28125 0l2.234375 15.90625l2.875 -15.90625l3.0625 0l2.875 15.828125l2.25 -15.828125l3.28125 0l-3.59375 21.578125l-3.359375 0l-2.9375 -15.234375l-2.921875 15.234375l-3.578125 0zm19.55835 0l0 -30.234375l4.0 0l0 10.890625q1.078125 -1.03125 2.421875 -1.78125q1.34375 -0.75 2.984375 -0.75q1.265625 0 1.953125 0.671875q0.703125 0.671875 0.984375 1.6875q0.28125 1.0 0.28125 2.046875l0 17.46875l-4.0 0l0 -16.3125q0 -1.15625 -0.34375 -1.78125q-0.328125 -0.640625 -1.375 -0.640625q-0.703125 0 -1.46875 0.40625q-0.765625 0.40625 -1.4375 1.015625l0 17.3125l-4.0 0zm16.767334 0l0 -21.578125l3.984375 0l0 21.578125l-3.984375 0zm0 -24.78125l0 -4.1875l3.984375 0l0 4.1875l-3.984375 0zm8.657532 24.78125l0 -30.234375l4.0 0l0 30.234375l-4.0 0zm14.141937 0.296875q-2.53125 0 -3.921875 -0.984375q-1.375 -1.0 -1.921875 -2.921875q-0.53125 -1.921875 -0.53125 -4.71875l0 -4.921875q0 -2.875 0.546875 -4.78125q0.5625 -1.90625 1.96875 -2.875q1.40625 -0.96875 3.859375 -0.96875q2.7344055 0 4.0156555 1.125q1.28125 1.109375 1.6875 3.21875q0.421875 2.109375 0.421875 5.0625l0 1.75l-8.5156555 0l0 4.328125q0 1.3125 0.234375 2.140625q0.25 0.8125 0.796875 1.203125q0.546875 0.390625 1.40625 0.390625q0.890625 0 1.359375 -0.421875q0.46878052 -0.4375 0.6250305 -1.234375q0.171875 -0.796875 0.171875 -1.890625l0 -1.296875l3.890625 0l0 0.8125q0 3.25 -1.390625 5.125q-1.375 1.859375 -4.7031555 1.859375zm-2.390625 -13.171875l4.5937805 0l0 -1.9375q0 -1.34375 -0.15625 -2.265625q-0.140625 -0.921875 -0.609375 -1.375q-0.46878052 -0.46875 -1.4687805 -0.46875q-0.96875 0 -1.484375 0.453125q-0.5 0.4375 -0.6875 1.5q-0.1875 1.0625 -0.1875 2.9375l0 1.15625zm20.685272 19.96875l0 -28.671875l4.0 0l0 1.71875q0.703125 -0.828125 1.703125 -1.421875q1.015625 -0.59375 2.390625 -0.59375q1.6875 0 2.671875 0.875q1.0 0.875 1.484375 2.203125q0.484375 1.328125 0.625 2.6875q0.15625 1.359375 0.15625 2.328125l0 5.234375q0 2.28125 -0.453125 4.3125q-0.453125 2.03125 -1.625 3.28125q-1.171875 1.25 -3.296875 1.25q-1.15625 0 -2.0625 -0.578125q-0.890625 -0.578125 -1.59375 -1.328125l0 8.703125l-4.0 0zm6.875 -9.9375q1.03125 0 1.484375 -0.765625q0.453125 -0.765625 0.5625 -2.0625q0.109375 -1.3125 0.109375 -2.875l0 -5.234375q0 -1.34375 -0.15625 -2.46875q-0.140625 -1.140625 -0.625 -1.8125q-0.484375 -0.671875 -1.53125 -0.671875q-0.78125 0 -1.5 0.34375q-0.703125 0.328125 -1.21875 0.765625l0 13.8125q0.546875 0.421875 1.25 0.703125q0.71875 0.265625 1.625 0.265625zm10.148376 2.84375l0 -30.234375l4.0 0l0 30.234375l-4.0 0zm12.048157 0.296875q-1.265625 0 -2.234375 -0.71875q-0.96875 -0.734375 -1.53125 -1.875q-0.5625 -1.140625 -0.5625 -2.40625q0 -2.015625 0.671875 -3.390625q0.671875 -1.390625 1.84375 -2.34375q1.1875 -0.953125 2.734375 -1.65625q1.546875 -0.703125 3.265625 -1.375l0 -1.53125q0 -1.3125 -0.15625 -2.171875q-0.140625 -0.859375 -0.609375 -1.28125q-0.46875 -0.4375 -1.40625 -0.4375q-0.8125 0 -1.328125 0.375q-0.5 0.375 -0.71875 1.0625q-0.21875 0.6875 -0.21875 1.625l0 1.078125l-3.953125 -0.140625q0.0625 -3.59375 1.625 -5.28125q1.578125 -1.703125 4.859375 -1.703125q3.21875 0 4.5625 1.765625q1.34375 1.75 1.34375 5.0625l0 9.859375q0 1.0 0.046875 1.9375q0.0625 0.9375 0.15625 1.75q0.09375 0.796875 0.171875 1.5l-3.671875 0q-0.109375 -0.59375 -0.28125 -1.5q-0.15625 -0.921875 -0.234375 -1.671875q-0.375 1.265625 -1.4375 2.375q-1.0625 1.09375 -2.9375 1.09375zm1.578125 -3.4375q0.59375 0 1.109375 -0.328125q0.53125 -0.34375 0.9375 -0.765625q0.40625 -0.4375 0.5625 -0.6875l0 -6.125q-0.9375 0.515625 -1.765625 1.046875q-0.8125 0.515625 -1.4375 1.09375q-0.609375 0.578125 -0.96875 1.3125q-0.34375 0.71875 -0.34375 1.65625q0 1.3125 0.484375 2.0625q0.484375 0.734375 1.421875 0.734375zm10.120605 8.546875l0 -3.046875q1.453125 0 2.3125 -0.140625q0.859375 -0.125 1.21875 -0.484375q0.375 -0.359375 0.375 -0.984375q0 -0.34375 -0.265625 -1.5q-0.25 -1.15625 -0.546875 -2.453125l-4.328125 -18.375l4.03125 0l2.90625 16.125l2.796875 -16.125l4.03125 0l-5.140625 22.765625q-0.34375 1.578125 -1.25 2.484375q-0.890625 0.921875 -2.296875 1.328125q-1.390625 0.40625 -3.359375 0.40625l-0.484375 0zm15.226379 -5.40625l0 -21.578125l3.984375 0l0 21.578125l-3.984375 0zm0 -24.78125l0 -4.1875l3.984375 0l0 4.1875l-3.984375 0zm8.282593 24.78125l0 -21.578125l4.0 0l0 2.125q1.078125 -1.0 2.375 -1.703125q1.3125 -0.71875 2.875 -0.71875q1.3125 0 2.0 0.671875q0.6875 0.671875 0.96875 1.6875q0.28125 1.0 0.28125 2.046875l0 17.46875l-3.984375 0l0 -16.3125q0 -1.15625 -0.34375 -1.78125q-0.328125 -0.640625 -1.375 -0.640625q-0.671875 0 -1.40625 0.390625q-0.71875 0.390625 -1.390625 0.953125l0 17.390625l-4.0 0zm21.980835 6.6875q-1.9375 0 -3.515625 -0.421875q-1.5625 -0.40625 -2.453125 -1.3125q-0.890625 -0.890625 -0.890625 -2.34375q0 -1.046875 0.4375 -1.828125q0.453125 -0.78125 1.15625 -1.359375q0.71875 -0.578125 1.5 -0.953125q-1.046875 -0.296875 -1.578125 -0.953125q-0.515625 -0.65625 -0.515625 -1.359375q0 -1.203125 0.640625 -2.046875q0.640625 -0.859375 1.75 -1.875q-1.234375 -0.9375 -1.875 -2.390625q-0.625 -1.453125 -0.625 -4.03125q0 -2.53125 0.6875 -4.234375q0.703125 -1.703125 2.0625 -2.578125q1.359375 -0.875 3.34375 -0.875q1.75 0 2.8125 0.59375q1.0625 0.59375 1.625 1.796875q0.1875 -0.296875 1.0 -1.015625q0.828125 -0.734375 1.90625 -1.21875l0.59375 -0.265625l1.015625 2.578125q-0.484375 0.0625 -1.296875 0.34375q-0.796875 0.28125 -1.484375 0.5625q-0.6875 0.28125 -0.875 0.46875q0.25 0.640625 0.453125 1.84375q0.21875 1.1875 0.21875 2.109375q0 2.203125 -0.5625 3.890625q-0.5625 1.671875 -1.859375 2.625q-1.28125 0.953125 -3.546875 0.953125q-0.5 0 -1.0625 -0.0625q-0.546875 -0.078125 -1.0 -0.203125q-0.21875 0.34375 -0.46875 0.796875q-0.234375 0.4375 -0.234375 0.859375q0 0.40625 0.421875 0.65625q0.4375 0.234375 1.359375 0.3125l3.359375 0.296875q2.546875 0.21875 3.78125 1.53125q1.234375 1.296875 1.234375 3.734375q0 1.75 -0.828125 2.953125q-0.828125 1.21875 -2.484375 1.8125q-1.65625 0.609375 -4.203125 0.609375zm0.296875 -3.140625q2.140625 0 3.140625 -0.515625q1.015625 -0.5 1.015625 -1.609375q0 -0.671875 -0.25 -1.125q-0.234375 -0.453125 -0.875 -0.703125q-0.640625 -0.265625 -1.828125 -0.375l-3.390625 -0.296875q-0.421875 0.40625 -0.796875 0.828125q-0.375 0.40625 -0.59375 0.859375q-0.21875 0.46875 -0.21875 1.0q0 0.96875 0.8125 1.453125q0.828125 0.484375 2.984375 0.484375zm-0.171875 -12.953125q0.84375 0 1.34375 -0.3125q0.515625 -0.328125 0.765625 -0.9375q0.265625 -0.609375 0.359375 -1.5q0.09375 -0.90625 0.09375 -2.03125q0 -1.109375 -0.09375 -2.03125q-0.09375 -0.921875 -0.34375 -1.5625q-0.234375 -0.65625 -0.734375 -0.984375q-0.5 -0.34375 -1.359375 -0.34375q-0.828125 0 -1.375 0.34375q-0.53125 0.328125 -0.796875 0.953125q-0.25 0.609375 -0.375 1.53125q-0.109375 0.90625 -0.109375 2.09375q0 1.015625 0.09375 1.890625q0.09375 0.875 0.375 1.515625q0.28125 0.625 0.796875 1.0q0.53125 0.375 1.359375 0.375zm11.644043 2.953125l-1.28125 -23.78125l4.03125 0l-1.34375 23.78125l-1.40625 0zm-1.28125 6.453125l0 -4.109375l4.03125 0l0 4.109375l-4.03125 0z" fill-rule="nonzero"/></g></svg>